<svg width="85mm" height="55mm" version="1.1" viewBox="0 0 85 55" xmlns="http://www.w3.org/2000/svg">
 <defs>
  <style>.cls-1{fill:#fff}.cls-2{fill:#326ce5}</style>
 </defs>
 <rect y="-6.9388939e-18" width="85" height="55" ry="0" fill="#f2f2f2" stroke-width="1.7729" style="paint-order:stroke fill markers"/>
 <g transform="matrix(.56182737 0 0 .56182737 19.335358 9.1792123)">
  <g id="its-pronounced" transform="matrix(.26458333 0 0 .26458333 -6.7444328 -2.4124724)">
   <g id="kyoob-cuttle">
    <path id="kkkkkkk" d="m16.841 243.586c0.952-1.07 1.904-2.141 2.974-3.212q1.493-1.66 2.975-3.33c0.951-1.191 1.903-2.262 2.737-3.214s1.665-1.903 2.26-2.617h11.54c-2.26 2.617-4.522 5.235-6.781 7.614q-3.213 3.57-7.138 7.495a48.052 48.052 0 0 1 4.045 4.284c1.427 1.665 2.736 3.33 4.045 4.995a50.807 50.807 0 0 1 3.568 5.236c1.07 1.784 2.024 3.33 2.737 4.759h-11.183c-0.715-1.19-1.547-2.38-2.38-3.69a43.32 43.32 0 0 0-2.856-4.162 34.21 34.21 0 0 0-3.211-4.045 20.442 20.442 0 0 0-3.213-3.213v14.99h-9.755v-49.134l9.755-1.547v28.791"/>
    <path id="uuuuuuu" d="m73.709 264.406a46.294 46.294 0 0 1-6.424 1.309 45.986 45.986 0 0 1-8.21 0.594 19.17 19.17 0 0 1-7.375-1.189 10.928 10.928 0 0 1-6.9-8.328 27.977 27.977 0 0 1-0.715-6.425v-19.154h9.757v17.965c0 3.093 0.357 5.354 1.19 6.782s2.378 2.141 4.639 2.141a15.169 15.169 0 0 0 2.26-0.119c0.833-0.119 1.429-0.119 2.142-0.238v-26.53h9.755l-0.119 33.192"/>
    <path id="bbbbbbb" d="m105 248.107c0-6.305-2.262-9.398-6.902-9.398a12.706 12.706 0 0 0-2.974 0.356 8.99 8.99 0 0 0-2.379 0.952v17.727c0.475 0.119 1.07 0.119 1.784 0.238 0.714 0 1.546 0.12 2.38 0.12a7.366 7.366 0 0 0 6.068-2.738 12.2 12.2 0 0 0 2.022-7.257m9.874 0.238a21.543 21.543 0 0 1-1.19 7.496 15.313 15.313 0 0 1-3.45 5.71 18.297 18.297 0 0 1-5.591 3.688 21.774 21.774 0 0 1-7.615 1.19c-1.189 0-2.379-0.12-3.688-0.238s-2.497-0.238-3.806-0.358c-1.19-0.118-2.38-0.356-3.57-0.595a15.037 15.037 0 0 1-2.974-0.832v-48.066l9.756-1.546v17.132a16.617 16.617 0 0 1 3.45-1.07 19.691 19.691 0 0 1 3.807-0.357 15.074 15.074 0 0 1 6.424 1.308 12.884 12.884 0 0 1 4.76 3.57 14.348 14.348 0 0 1 2.855 5.71 33.785 33.785 0 0 1 0.832 7.257"/>
    <path d="m120.704 248.702a20.303 20.303 0 0 1 1.427-7.97 18.206 18.206 0 0 1 3.689-5.712 13.866 13.866 0 0 1 5.233-3.45 15.9 15.9 0 0 1 6.187-1.19 15.227 15.227 0 0 1 11.54 4.521c2.855 2.974 4.282 7.378 4.282 13.087a10.887 10.887 0 0 1-0.118 1.904c0 0.595-0.119 1.189-0.119 1.784h-22.13a6.522 6.522 0 0 0 2.856 4.759 11.32 11.32 0 0 0 6.662 1.784 25.212 25.212 0 0 0 5.235-0.475 21.342 21.342 0 0 0 4.283-1.19l1.308 7.97c-0.476 0.239-1.19 0.477-2.14 0.833a11.994 11.994 0 0 1-2.976 0.596 26.855 26.855 0 0 1-3.45 0.475c-1.19 0.12-2.497 0.238-3.688 0.238a20.92 20.92 0 0 1-8.09-1.427 17.517 17.517 0 0 1-5.71-3.688 17.172 17.172 0 0 1-3.33-5.71 27.944 27.944 0 0 1-0.954-7.139m22.962-3.807a7.692 7.692 0 0 0-0.476-2.38 7.232 7.232 0 0 0-1.07-2.141 5.684 5.684 0 0 0-4.76-2.142 7.188 7.188 0 0 0-2.855 0.595 4.732 4.732 0 0 0-1.903 1.428 6.24 6.24 0 0 0-1.19 2.142 17.396 17.396 0 0 0-0.595 2.38h12.85"/>
    <path id="rrrrrrr" d="m181.26 239.78a17.875 17.875 0 0 0-3.094-0.596 19.688 19.688 0 0 0-3.807-0.357 20.977 20.977 0 0 0-2.26 0.238 18.687 18.687 0 0 0-1.904 0.357v26.293h-9.756v-32.717a50.606 50.606 0 0 1 6.186-1.666 33.468 33.468 0 0 1 7.971-0.832 11.58 11.58 0 0 1 1.904 0.118 16.256 16.256 0 0 1 2.26 0.238c0.715 0.12 1.428 0.238 2.261 0.357 0.713 0.12 1.428 0.358 1.903 0.476l-1.665 8.09"/>
    <path id="nnnnnnn" d="m188.16 232.403a57.524 57.524 0 0 1 14.633-1.903 18.147 18.147 0 0 1 7.257 1.189 10.191 10.191 0 0 1 4.64 3.212 13.897 13.897 0 0 1 2.38 4.997 26.54 26.54 0 0 1 0.713 6.424v19.393h-9.756v-18.201c0-3.094-0.356-5.354-1.19-6.663s-2.379-1.904-4.64-1.904a15.17 15.17 0 0 0-2.26 0.12 11.787 11.787 0 0 0-2.14 0.237v26.531h-9.638v-33.43"/>
    <path d="m225.04 248.702a20.301 20.301 0 0 1 1.427-7.97 18.206 18.206 0 0 1 3.69-5.712 13.866 13.866 0 0 1 5.234-3.45 15.9 15.9 0 0 1 6.187-1.19 15.227 15.227 0 0 1 11.54 4.521c2.854 2.974 4.282 7.378 4.282 13.087a10.884 10.884 0 0 1-0.119 1.904c0 0.595-0.12 1.189-0.12 1.784h-22.127a6.522 6.522 0 0 0 2.856 4.759 11.32 11.32 0 0 0 6.66 1.784 25.213 25.213 0 0 0 5.237-0.475 21.34 21.34 0 0 0 4.282-1.19l1.309 7.97c-0.476 0.239-1.19 0.477-2.142 0.833a11.992 11.992 0 0 1-2.974 0.596 26.86 26.86 0 0 1-3.45 0.475c-1.19 0.12-2.499 0.238-3.688 0.238a20.92 20.92 0 0 1-8.09-1.427 17.516 17.516 0 0 1-5.71-3.688 17.172 17.172 0 0 1-3.332-5.71 27.938 27.938 0 0 1-0.952-7.139m22.961-3.807a7.693 7.693 0 0 0-0.475-2.38 7.233 7.233 0 0 0-1.071-2.141 5.684 5.684 0 0 0-4.76-2.142 7.188 7.188 0 0 0-2.855 0.595 4.732 4.732 0 0 0-1.903 1.428 6.24 6.24 0 0 0-1.19 2.142 17.388 17.388 0 0 0-0.594 2.38h12.848"/>
    <path id="ttttttt" d="m264.657 222.647 9.756-1.546v10.112h11.66v8.09h-11.66v12.135a9.566 9.566 0 0 0 1.07 4.878c0.715 1.19 2.261 1.785 4.403 1.785a29.167 29.167 0 0 0 3.212-0.238 19.344 19.344 0 0 0 3.093-0.833l1.427 7.614a18.948 18.948 0 0 1-3.926 1.19 22.872 22.872 0 0 1-5.354 0.475 18.18 18.18 0 0 1-6.66-1.07 11.01 11.01 0 0 1-4.165-2.975 11.804 11.804 0 0 1-2.261-4.758 30.834 30.834 0 0 1-0.594-6.068v-28.791"/>
    <path d="m291.069 248.702a20.3 20.3 0 0 1 1.428-7.97 18.206 18.206 0 0 1 3.688-5.712 13.866 13.866 0 0 1 5.234-3.45 15.9 15.9 0 0 1 6.187-1.19 15.227 15.227 0 0 1 11.54 4.521c2.856 2.974 4.283 7.378 4.283 13.087a10.885 10.885 0 0 1-0.12 1.904c0 0.595-0.119 1.189-0.119 1.784h-22.128a6.522 6.522 0 0 0 2.856 4.759 11.32 11.32 0 0 0 6.661 1.784 25.213 25.213 0 0 0 5.236-0.475 21.34 21.34 0 0 0 4.282-1.19l1.31 7.97c-0.476 0.239-1.19 0.477-2.143 0.833a11.992 11.992 0 0 1-2.974 0.596 26.856 26.856 0 0 1-3.45 0.475c-1.19 0.12-2.497 0.238-3.688 0.238a20.92 20.92 0 0 1-8.09-1.427 17.516 17.516 0 0 1-5.71-3.688 17.172 17.172 0 0 1-3.33-5.71 23.525 23.525 0 0 1-0.953-7.139m22.843-3.807a7.692 7.692 0 0 0-0.477-2.38 7.232 7.232 0 0 0-1.07-2.141 5.684 5.684 0 0 0-4.759-2.142 7.188 7.188 0 0 0-2.856 0.595 4.732 4.732 0 0 0-1.904 1.428 6.24 6.24 0 0 0-1.188 2.142 17.391 17.391 0 0 0-0.596 2.38h12.85"/>
    <path id="sssssss" d="m340.68 258.576a9.776 9.776 0 0 0 3.807-0.475 2.084 2.084 0 0 0 1.07-2.023c0-0.833-0.475-1.427-1.427-2.022a22.567 22.567 0 0 0-4.403-2.023c-1.546-0.595-2.974-1.19-4.162-1.785a11.894 11.894 0 0 1-3.095-2.141 9.304 9.304 0 0 1-2.022-3.094 11.526 11.526 0 0 1-0.714-4.282 9.052 9.052 0 0 1 3.569-7.614c2.38-1.904 5.711-2.856 9.875-2.856a33.842 33.842 0 0 1 6.068 0.595 21.997 21.997 0 0 1 4.52 1.191l-1.665 7.614c-1.19-0.358-2.38-0.715-3.69-1.071a16.645 16.645 0 0 0-4.4-0.477c-3.094 0-4.522 0.833-4.522 2.498a3.474 3.474 0 0 0 0.238 1.072 1.998 1.998 0 0 0 0.833 0.952c0.357 0.238 0.952 0.594 1.547 0.951 0.714 0.357 1.546 0.595 2.617 1.071a39.243 39.243 0 0 1 5.354 2.379 8.882 8.882 0 0 1 3.213 2.499 6.214 6.214 0 0 1 1.665 2.974 12.346 12.346 0 0 1 0.476 3.807 8.868 8.868 0 0 1-3.808 7.734c-2.498 1.784-6.067 2.616-10.826 2.616a27.502 27.502 0 0 1-7.613-0.832 21.717 21.717 0 0 1-4.164-1.31l1.665-7.97a36.36 36.36 0 0 0 5.116 1.546 21.894 21.894 0 0 0 4.877 0.476"/>
   </g>
  </g>
  <g stroke-width=".264583">
   <path class="cls-1" d="m13.502277 31.187495h2.809611v2.230966h-2.809875z"/>
   <path class="cls-2" d="m46.354267 29.349963a0.94985417 0.94985417 0 0 0-0.226219-0.0172 0.97498958 0.97498958 0 0 0-0.377031 0.0979 0.98557292 0.98557292 0 0 0-0.477044 1.276615l-0.0069 0.0098 2.256367 5.451211a11.517312 11.517312 0 0 0 4.655343-5.847821l-5.814483-0.982662zm-9.047162 0.772584a0.98425 0.98425 0 0 0-0.944033-0.765704 0.96731667 0.96731667 0 0 0-0.193939 0.0172l-0.0098-0.01191-5.763948 0.978429a11.560969 11.560969 0 0 0 4.640792 5.806546l2.233612-5.397235-0.01746-0.02117a0.97446042 0.97446042 0 0 0 0.05477-0.60616zm4.827322 2.116666a0.98372083 0.98372083 0 0 0-1.734872 0.0021h-0.0048l-2.834481 5.125508a11.545623 11.545623 0 0 0 6.301051 0.324115q0.581289-0.132292 1.135591-0.317235l-2.841095-5.134769zm8.97308-11.90625-4.361128 3.903398 0.0024 0.01244a0.98557292 0.98557292 0 0 0 0.386291 1.69201l0.0053 0.02355 5.648854 1.627188a11.715221 11.715221 0 0 0-1.681691-7.25805zm-8.102336 0.437357a0.98557292 0.98557292 0 0 0 1.564481 0.751416l0.0172 0.0074 4.772025-3.383757a11.601979 11.601979 0 0 0-6.69052-3.225261l0.331522 5.848614zm-5.053541 0.773112a0.98425 0.98425 0 0 0 1.5621-0.754062l0.02434-0.01164 0.331523-5.85761a11.821583 11.821583 0 0 0-1.19089 0.205052 11.500644 11.500644 0 0 0-5.539581 3.018631l4.803246 3.404923zm-2.560637 4.42595a0.98425 0.98425 0 0 0 0.386821-1.692275l0.0048-0.02302-4.385204-3.922448a11.497204 11.497204 0 0 0-1.63195 7.278953l5.621073-1.621896zm4.259262 1.722967 1.617663 0.777875 1.612899-0.776023 0.400579-1.741488-1.116277-1.395941h-1.79652l-1.119452 1.393825z"/>
   <path class="cls-2" d="m68.010413 31.122936-4.609571-20.022343a3.5988625 3.5988625 0 0 0-1.929606-2.4005654l-18.658682-8.90852095a3.5954229 3.5954229 0 0 0-3.096946 0l-18.654979 8.91328295a3.5978042 3.5978042 0 0 0-1.930135 2.4003004l-4.602162 20.021815a3.5229271 3.5229271 0 0 0-0.0011 1.537229 3.5731979 3.5731979 0 0 0 0.129911 0.454554 3.4663062 3.4663062 0 0 0 0.355335 0.721255c0.06324 0.09657 0.12991 0.1905 0.202406 0.281516l12.912726 16.054388c0.05636 0.06985 0.118534 0.133614 0.180182 0.198437a3.5515021 3.5515021 0 0 0 0.681037 0.564356 3.6840583 3.6840583 0 0 0 1.020498 0.443707 3.5184292 3.5184292 0 0 0 0.907521 0.125148h0.200819l20.506265-0.0048a3.438525 3.438525 0 0 0 0.373063-0.02196 3.5639375 3.5639375 0 0 0 0.526256-0.100013 3.6697708 3.6697708 0 0 0 0.36539-0.116946c0.0934-0.03572 0.186531-0.07144 0.276489-0.114564a3.6885562 3.6885562 0 0 0 0.391319-0.217488 3.5200167 3.5200167 0 0 0 0.856456-0.758031l0.3937-0.489479 12.514527-15.568083a3.4885312 3.4885312 0 0 0 0.557742-1.001448 3.6168542 3.6168542 0 0 0 0.132292-0.456142 3.5141958 3.5141958 0 0 0-0.0011-1.536965zm-19.353477 7.787217a3.8404271 3.8404271 0 0 0 0.186002 0.450585 0.87682917 0.87682917 0 0 0-0.08652 0.658813 10.41744 10.41744 0 0 0 0.990071 1.772708 9.2776146 9.2776146 0 0 1 0.598752 0.890059c0.04498 0.08334 0.103717 0.21246 0.146315 0.300566a1.1218333 1.1218333 0 1 1-2.018771 0.954352c-0.0426-0.08731-0.101865-0.203729-0.138113-0.286279a9.3331771 9.3331771 0 0 1-0.324114-1.023408 10.399448 10.399448 0 0 0-0.766234-1.877748 0.88238542 0.88238542 0 0 0-0.569912-0.345811c-0.03572-0.06165-0.168011-0.304006-0.238919-0.429418a14.450748 14.450748 0 0 1-10.304991-0.02646l-0.252677 0.457994a0.90725625 0.90725625 0 0 0-0.481276 0.234422 7.8099708 7.8099708 0 0 0-0.864658 2.006071 9.2334292 9.2334292 0 0 1-0.322263 1.023408c-0.03572 0.08202-0.09551 0.19685-0.138112 0.283898v0.0024l-0.0019 0.0021a1.1213042 1.1213042 0 1 1-2.015861-0.956733c0.04207-0.08864 0.09842-0.216959 0.142875-0.300302a9.3075125 9.3075125 0 0 1 0.598488-0.89244 10.907977 10.907977 0 0 0 1.010708-1.816629 1.108075 1.108075 0 0 0-0.09948-0.631561l0.2032-0.486833a14.531446 14.531446 0 0 1-6.439429-8.039894l-0.486569 0.08282a1.23825 1.23825 0 0 0-0.642408-0.226219 10.457656 10.457656 0 0 0-1.946275 0.572823 9.4151979 9.4151979 0 0 1-1.001977 0.383646c-0.0807 0.02222-0.197115 0.04445-0.28919 0.06456-0.0074 0.0026-0.01376 0.0058-0.02117 0.0077a0.15954375 0.15954375 0 0 1-0.0172 0.0016 1.120775 1.120775 0 1 1-0.495829-2.175934l0.01614-4e-3 0.0098-0.0026c0.0934-0.02196 0.21299-0.05292 0.298186-0.06932a9.331325 9.331325 0 0 1 1.071562-0.08625 10.421937 10.421937 0 0 0 2.001309-0.328613 1.5438437 1.5438437 0 0 0 0.479954-0.484187l0.467558-0.136592a14.44969 14.44969 0 0 1 2.278856-10.073481l-0.357981-0.319088a1.2403667 1.2403667 0 0 0-0.224367-0.644525 10.415587 10.415587 0 0 0-1.66079-1.166812 9.3268271 9.3268271 0 0 1-0.925777-0.541338c-0.06773-0.05053-0.157691-0.126471-0.231246-0.186267l-0.01667-0.01164a1.1834812 1.1834812 0 0 1-0.274638-1.646238 1.0757958 1.0757958 0 0 1 0.889794-0.3937 1.3308542 1.3308542 0 0 1 0.778404 0.293688c0.07594 0.05953 0.179917 0.139171 0.247386 0.197114a9.3273562 9.3273562 0 0 1 0.735541 0.780521 10.42035 10.42035 0 0 0 1.505479 1.360488 0.88185625 0.88185625 0 0 0 0.663311 0.06429q0.199496 0.145521 0.402696 0.286279a14.363965 14.363965 0 0 1 7.296414-4.168245 14.565842 14.565842 0 0 1 2.018771-0.310357l0.02646-0.472016a1.2173479 1.2173479 0 0 0 0.362479-0.57785 10.444692 10.444692 0 0 0-0.124354-2.0251214 9.3842417 9.3842417 0 0 1-0.1524-1.062038c-0.0029-0.08123 0.0016-0.19341 0.0026-0.286014 0-0.01058-0.0026-0.0209-0.0026-0.03122a1.1223625 1.1223625 0 1 1 2.233347-0.0011c0 0.0979 0.0058 0.227806 0.0024 0.3175a9.2897854 9.2897854 0 0 1-0.153193 1.061773 10.459773 10.459773 0 0 0-0.126471 2.0256504 0.88476667 0.88476667 0 0 0 0.36486 0.55827c4e-3 0.0807 0.0172 0.350044 0.02699 0.498475a14.63384 14.63384 0 0 1 9.268883 4.478602l0.424921-0.303477a1.2408958 1.2408958 0 0 0 0.677333-0.07355 10.458979 10.458979 0 0 0 1.505479-1.362075 9.261475 9.261475 0 0 1 0.737394-0.780521c0.06853-0.05874 0.171979-0.137583 0.24765-0.197379a1.1223625 1.1223625 0 1 1 1.391179 1.745721c-0.07488 0.06059-0.173831 0.144992-0.245798 0.198438a9.2858167 9.2858167 0 0 1-0.927893 0.541337 10.449719 10.449719 0 0 0-1.66079 1.166813 0.88291458 0.88291458 0 0 0-0.20955 0.632354c-0.06218 0.05715-0.280458 0.25056-0.396081 0.355335a14.508956 14.508956 0 0 1 2.326217 10.049669l0.45085 0.131233a1.2554479 1.2554479 0 0 0 0.481541 0.484452 10.441517 10.441517 0 0 0 2.002367 0.329407 9.42975 9.42975 0 0 1 1.070504 0.08573c0.09393 0.0172 0.229658 0.05477 0.325438 0.07673a1.120775 1.120775 0 1 1-0.496888 2.175669l-0.01614-0.0021c-0.0074-0.0019-0.01429-0.0058-0.02196-0.0077-0.09207-0.02011-0.207698-0.04022-0.288396-0.06138a9.2974583 9.2974583 0 0 1-1.001469-0.38682 10.444956 10.444956 0 0 0-1.948127-0.572823 0.88291458 0.88291458 0 0 0-0.624946 0.232039q-0.238125-0.04524-0.477308-0.08361a14.530917 14.530917 0 0 1-6.436783 8.097573z"/>
   <path class="cls-1" d="m70.444315 31.636493-5.028936-21.8442654a3.9258875 3.9258875 0 0 0-2.105554-2.619375l-20.355718-9.718146a3.9224479 3.9224479 0 0 0-3.378993 0l-20.353868 9.723967a3.9258875 3.9258875 0 0 0-2.106348 2.618052l-5.020204 21.8453234a3.8809083 3.8809083 0 0 0 0.527844 2.959364c0.06906 0.105834 0.142346 0.208492 0.221721 0.307446l14.088005 17.51674a3.9634583 3.9634583 0 0 0 3.042444 1.451771l22.591976-5e-3a3.9650458 3.9650458 0 0 0 3.042708-1.449919l14.082977-17.518619a3.8946667 3.8946667 0 0 0 0.751946-3.26681zm-2.433373 1.022879a3.6187062 3.6187062 0 0 1-0.131763 0.455877 3.4882667 3.4882667 0 0 1-0.55827 1.001448l-12.514527 15.567554-0.393171 0.490008a3.5202812 3.5202812 0 0 1-0.85725 0.758031 3.6890854 3.6890854 0 0 1-0.389996 0.217488q-0.135731 0.06271-0.27649 0.114035a3.6684479 3.6684479 0 0 1-0.365918 0.117475 3.5644667 3.5644667 0 0 1-0.526257 0.100277 3.4364083 3.4364083 0 0 1-0.373062 0.0217l-20.506266 0.0048h-0.201083a3.5184292 3.5184292 0 0 1-0.907256-0.124884 3.6840583 3.6840583 0 0 1-1.019969-0.44397 3.5515021 3.5515021 0 0 1-0.681567-0.564092c-0.06165-0.06509-0.123825-0.128852-0.179916-0.198438l-12.912991-16.054693q-0.10795-0.135995-0.202406-0.282045a3.4665708 3.4665708 0 0 1-0.355336-0.721255 3.5734625 3.5734625 0 0 1-0.12991-0.454818 3.5229271 3.5229271 0 0 1 0.0011-1.536965l4.602163-20.022344a3.5978042 3.5978042 0 0 1 1.930135-2.3997704l18.655201-8.91275495a3.5956875 3.5956875 0 0 1 3.096947 0l18.658152 8.90852095a3.5988625 3.5988625 0 0 1 1.929606 2.4005654l4.609571 20.022343a3.5141958 3.5141958 0 0 1 5.29e-4 1.536436z"/>
   <path class="cls-1" d="m59.968667 29.519297c-0.09525-0.02196-0.231246-0.05953-0.324644-0.07673a9.4284271 9.4284271 0 0 0-1.070504-0.08625 10.441517 10.441517 0 0 1-2.002896-0.328612 1.2554479 1.2554479 0 0 1-0.481541-0.484717l-0.45085-0.131233a14.508956 14.508956 0 0 0-2.325688-10.049673c0.115358-0.104775 0.333904-0.298185 0.395552-0.355071a0.88317917 0.88317917 0 0 1 0.20955-0.632354 10.449719 10.449719 0 0 1 1.66079-1.166812 9.2860812 9.2860812 0 0 0 0.927893-0.541338c0.07197-0.05345 0.170392-0.138112 0.245798-0.198437a1.1223625 1.1223625 0 1 0-1.39065-1.74625c-0.0762 0.06006-0.179916 0.138906-0.24765 0.197643a9.2622687 9.2622687 0 0 0-0.737923 0.780521 10.459508 10.459508 0 0 1-1.505479 1.362075 1.2408958 1.2408958 0 0 1-0.677333 0.07355l-0.424921 0.303477a14.63384 14.63384 0 0 0-9.268883-4.478598c-0.01032-0.148431-0.02302-0.417248-0.02699-0.498475a0.88476667 0.88476667 0 0 1-0.364331-0.55827 10.460037 10.460037 0 0 1 0.126471-2.0256504 9.2897854 9.2897854 0 0 0 0.152135-1.061509c0.0034-0.08996-0.0019-0.220662-0.0019-0.317764a1.1223625 1.1223625 0 1 0-2.233347 0.0011c0 0.01058 0.0024 0.02064 0.0026 0.03122-0.0011 0.0926-0.0056 0.204787-0.0026 0.28575a9.3860937 9.3860937 0 0 0 0.1524 1.062302 10.444427 10.444427 0 0 1 0.124354 2.0251214 1.2173479 1.2173479 0 0 1-0.362479 0.577321l-0.02646 0.472545a14.566635 14.566635 0 0 0-2.018771 0.310357 14.363965 14.363965 0 0 0-7.295621 4.168245q-0.203729-0.140493-0.403754-0.286279a0.88185625 0.88185625 0 0 1-0.663046-0.06429 10.420085 10.420085 0 0 1-1.505479-1.360223 9.3278854 9.3278854 0 0 0-0.734748-0.780521c-0.068-0.05821-0.171979-0.137584-0.248179-0.198173a1.3308542 1.3308542 0 0 0-0.778404-0.293688 1.0757958 1.0757958 0 0 0-0.889794 0.393965 1.1834812 1.1834812 0 0 0 0.274638 1.646237l0.0172 0.01217c0.07303 0.0598 0.162983 0.136261 0.230716 0.185738a9.3284146 9.3284146 0 0 0 0.925777 0.541866 10.415852 10.415852 0 0 1 1.660525 1.167342 1.2408958 1.2408958 0 0 1 0.224632 0.643996l0.357452 0.319617a14.44969 14.44969 0 0 0-2.278277 10.073477l-0.467519 0.135996a1.5438437 1.5438437 0 0 1-0.479954 0.483393 10.421937 10.421937 0 0 1-2.001573 0.329936 9.3302667 9.3302667 0 0 0-1.071298 0.08625c-0.08573 0.01587-0.204788 0.04604-0.298186 0.06932l-0.0098 0.0021-0.01587 0.0048a1.120775 1.120775 0 1 0 0.496094 2.175933l0.01667-0.0026c0.0074-0.0016 0.01376-0.0053 0.02117-0.0066 0.09207-0.0209 0.207962-0.04313 0.288925-0.06509a9.4151979 9.4151979 0 0 0 1.001712-0.38391 10.458185 10.458185 0 0 1 1.946805-0.572823 1.23825 1.23825 0 0 1 0.641879 0.226748l0.486833-0.08334a14.531446 14.531446 0 0 0 6.439958 8.039894l-0.203464 0.486833a1.108075 1.108075 0 0 1 0.09975 0.631561 10.907977 10.907977 0 0 1-1.010709 1.8161 9.3088354 9.3088354 0 0 0-0.598752 0.892175c-0.04445 0.08414-0.100806 0.212989-0.143404 0.301096a1.1213042 1.1213042 0 1 0 2.01639 0.956733l0.0019-0.0021v-0.0026c0.04233-0.08731 0.102394-0.201877 0.138112-0.283633a9.2339583 9.2339583 0 0 0 0.322263-1.023408 7.8097062 7.8097062 0 0 1 0.864658-2.006071 0.90752083 0.90752083 0 0 1 0.481277-0.23495l0.253207-0.457729a14.450748 14.450748 0 0 0 10.304461 0.02619c0.07091 0.12647 0.2032 0.3683 0.238125 0.429418a0.88238542 0.88238542 0 0 1 0.570177 0.346605 10.399712 10.399712 0 0 1 0.766763 1.877483 9.3329125 9.3329125 0 0 0 0.324114 1.023408c0.03625 0.08255 0.09525 0.198702 0.138113 0.286279a1.1218333 1.1218333 0 1 0 2.018771-0.954352c-0.0426-0.08811-0.101336-0.216958-0.145521-0.300566a9.2768208 9.2768208 0 0 0-0.598752-0.890059 10.41744 10.41744 0 0 1-0.990071-1.772708 0.87682917 0.87682917 0 0 1 0.08572-0.658813 3.8404271 3.8404271 0 0 1-0.186002-0.450585 14.530917 14.530917 0 0 0 6.436783-8.097573c0.144463 0.02302 0.396081 0.06694 0.477838 0.08361a0.88291458 0.88291458 0 0 1 0.624416-0.232039 10.444956 10.444956 0 0 1 1.947334 0.572823 9.2961354 9.2961354 0 0 0 1.002241 0.386821c0.0807 0.02117 0.195792 0.04127 0.288396 0.06165 0.0077 0.0021 0.01455 0.0056 0.02196 0.0074l0.01587 0.0024a1.120775 1.120775 0 1 0 0.496849-2.176085zm-10.609792-11.373644-4.772289 3.383227-0.01667-0.0077a0.98504375 0.98504375 0 0 1-1.564481-0.751152l-0.0053-0.0024-0.331523-5.84835a11.601979 11.601979 0 0 1 6.68999 3.226329zm-8.990011 6.410325h1.79599l1.116542 1.395942-0.400314 1.741223-1.612899 0.776022-1.617663-0.777875-0.401108-1.741752zm-1.689629-9.431867a11.820525 11.820525 0 0 1 1.191418-0.204787l-0.332052 5.857081-0.02434 0.01164a0.98425 0.98425 0 0 1-1.5621 0.754591l-0.0093 0.0053-4.803246-3.405717a11.500644 11.500644 0 0 1 5.539582-3.018102zm-7.281334 5.207265 4.385204 3.921919-0.0048 0.02408a0.98425 0.98425 0 0 1-0.386821 1.691746l-0.0045 0.01905-5.621073 1.62216a11.497204 11.497204 0 0 1 1.63195-7.278688zm5.871369 10.419292-2.233348 5.396441a11.561233 11.561233 0 0 1-4.639733-5.807075l5.763419-0.978694 0.0098 0.0127a0.96705208 0.96705208 0 0 1 0.193146-0.0172 0.98425 0.98425 0 0 1 0.890058 1.371864zm6.592357 6.94002a11.545623 11.545623 0 0 1-6.301051-0.32385l2.834482-5.125508h0.0048a0.98557292 0.98557292 0 0 1 1.734872-0.0016h0.02117l2.841625 5.133975q-0.553244 0.184679-1.135857 0.317235zm3.662098-1.521883-2.256366-5.45174 0.0069-0.0098a0.98557292 0.98557292 0 0 1 0.477044-1.276086 0.97498958 0.97498958 0 0 1 0.377031-0.09789 0.94985417 0.94985417 0 0 1 0.226219 0.01667l0.0098-0.01217 5.814748 0.982662a11.517312 11.517312 0 0 1-4.655344 5.848615zm5.266002-8.577527-5.649383-1.627188-0.0053-0.02381a0.98557292 0.98557292 0 0 1-0.386291-1.692275l-0.0021-0.01138 4.360863-3.902869a11.715485 11.715485 0 0 1 1.681956 7.257521z"/>
  </g>
 </g>
</svg>
