<svg width="85mm" height="55mm" version="1.1" viewBox="0 0 85 55" xmlns="http://www.w3.org/2000/svg" xmlns:xlink="http://www.w3.org/1999/xlink">
 <defs>
  <linearGradient id="linearGradient1145">
   <stop stop-color="#00c853" offset="0"/>
   <stop stop-color="#00bfa6" offset=".51541096"/>
   <stop stop-color="#00c2df" offset="1"/>
  </linearGradient>
  <linearGradient id="linearGradient4" x1="57.909866" x2="203.67538" y1="72.222191" y2="127.70997" gradientUnits="userSpaceOnUse" xlink:href="#linearGradient1145"/>
  <linearGradient id="linearGradient447" x1="40.755844" x2="256.24417" y1="105.29618" y2="105.29618" gradientUnits="userSpaceOnUse" xlink:href="#linearGradient1145"/>
 </defs>
 <rect y="-6.9388939e-18" width="85" height="55" ry="0" fill="#333" stroke-width="1.7729" style="paint-order:stroke fill markers"/>
 <g transform="matrix(.17167173 0 0 .17167173 8.2777822 25.873078)" fill="url(#linearGradient447)" stroke-width="11.7527" aria-label="n5i">
  <path d="m144.33043 132.98517q-0.8464 0-1.41068-0.28214-0.47022-0.18809-0.47022-0.75236 0-0.75236 0.56427-0.94045 0.56427-0.28214 1.59877-0.56427 1.41068-0.37618 2.72731-1.0345 1.31663-0.65831 1.31663-2.53922v-20.21972q0-2.53922-0.56427-4.32608-0.47023-1.78685-2.9154-2.44517-0.37618-0.188091-0.65832-0.376181-0.28213-0.282136-0.28213-0.846407 0-1.034497 0.8464-1.128542 3.29159-0.846407 5.36058-2.068994 2.06899-1.222588 4.04394-2.727311 0.28214-0.18809 0.47023-0.282136 0.28214-0.18809 0.56427-0.18809 0.18809 0 0.28214 0.18809 0.18809 0.188091 0.18809 0.470226 0 0.658317-0.28214 2.727311-0.18809 1.974949-0.18809 3.291582 0 0.376181 0 0.752361 0.0941 0.282136 0.18809 0.376181 3.29158-3.103491 6.95935-4.70226 3.7618-1.598768 8.18193-1.598768 4.60821 0 7.61766 3.761808 3.00945 3.76181 3.00945 9.31047v20.03163q0 1.88091 1.31663 2.53922 1.31663 0.56427 2.72731 1.0345 0.75236 0.28213 1.41068 0.65832 0.75236 0.28213 0.75236 1.03449 0 0.56427-0.65832 0.65832-0.65831 0.18809-1.22259 0.18809-1.8809 0-2.9154-0.18809-1.03449-0.094-1.97495-0.18809-0.94045-0.0941-2.63326-0.0941-1.59877 0-2.63327 0.0941-1.03449 0.094-2.16304 0.18809-1.03449 0.18809-2.9154 0.18809-0.47022 0-1.22259-0.18809-0.65831-0.094-0.65831-0.65832 0-0.75236 0.65831-1.03449 0.75237-0.37619 1.50473-0.65832 1.41068-0.47023 2.72731-1.0345 1.31663-0.65831 1.31663-2.53922v-19.74949q0-4.13799-2.35113-6.39507-2.25708-2.351133-6.11294-2.445178-3.38562 0-5.92484 1.128542-2.53922 1.034496-4.51417 2.633266-0.37618 0.37618-0.56427 1.0345-0.18809 0.56427-0.18809 1.12854v22.66489q0 1.88091 1.31663 2.53922 1.31663 0.65832 2.72731 1.0345 2.16304 0.56427 2.16304 1.50472 0 0.56427-0.47023 0.75236-0.47022 0.28214-1.41068 0.28214-1.8809 0-3.00944-0.18809-1.0345-0.094-1.97495-0.18809-0.94045-0.0941-2.63327-0.0941-1.59876 0-2.63326 0.0941-0.94045 0.094-2.069 0.18809-1.03449 0.18809-2.9154 0.18809z"/>
  <path d="m200.09922 136.27675q-1.03449 0-2.25708-0.28213-1.22259-0.1881-1.22259-0.84641 0-0.75236 1.22259-1.31663 1.31663-0.47023 2.16304-0.47023 7.42957 0 12.22587-2.63327 4.89035-2.72731 7.24148-6.77125 2.44518-4.04394 2.44518-8.08789 0-3.66776-2.16304-6.48912-2.16304-2.82135-7.14744-5.17248-4.89035-2.35113-13.26037-4.514171-1.22259-1.034497-1.78686-2.068994-0.47022-1.034497-0.47022-2.257085 0-1.316632 0.47022-3.197536 0.56427-1.880904 1.31664-3.949899 0.75236-2.163039 1.50472-4.232033 0.75236-2.068995 1.22259-3.573718 0.47022-1.410678 1.41067-2.163039 0.94046-0.846407 2.44518-1.222588 2.16304-0.564271 4.42012-1.034497 2.25709-0.470226 4.70226-0.846407 2.44518-0.470226 4.9844-0.752361 2.63326-0.376181 5.36058-0.658317 0.75236-0.09404 1.03449 0.470226 0.37618 0.470226 0 1.128543-0.37618 0.752361-0.8464 1.598768-0.37618 0.752361-0.75237 1.504723-0.65831 1.410678-1.50472 2.16304-0.75236 0.658316-1.97495 0.846406-1.78686 0.188091-4.13799 0.470226-2.35113 0.188091-4.70226 0.470226-2.35113 0.188091-4.32608 0.376181-1.97494 0.18809-3.00944 0.376181-0.65832 0.09404-1.59877 1.692813-0.94045 1.504724-1.69281 3.291582-0.75237 1.692814-0.84641 2.445175-0.094 0.658317 0.094 1.128543 0.28214 0.470226 1.12855 0.658316 5.26653 1.504723 9.59261 3.103492 4.32608 1.504723 7.52361 3.197536 5.26653 2.727308 7.80575 6.489118 2.63327 3.66776 2.63327 9.40452 0 5.17249-3.10349 9.68666t-8.37002 7.52361q-2.53922 1.41068-5.36058 2.35113-2.82136 1.0345-5.92485 1.59877t-6.48912 0.56427z"/>
  <path d="m239.12793 132.98517q-0.8464 0-1.41067-0.28214-0.47023-0.18809-0.47023-0.75236 0-0.75236 0.65832-1.0345 0.75236-0.28213 1.50472-0.47022 1.97495-0.47023 3.00944-1.12854 1.0345-0.75237 1.0345-2.44518v-20.40781q0-2.53922-0.94045-4.51417-0.84641-1.974945-3.29158-2.351126-0.47023-0.09405-0.75236-0.376181-0.18809-0.282135-0.18809-0.846406 0-1.034497 0.8464-1.128543 3.76181-0.846406 6.20699-2.257084 2.44517-1.504724 3.66776-2.445175 0.84641-0.658317 1.31663-0.658317 0.56427 0 0.56427 0.470226 0 0.752362-0.28213 3.009446-0.18809 2.16304-0.37618 4.89035-0.18809 2.63327-0.18809 4.79631v21.81848q0 1.59877 1.03449 2.35113 1.12855 0.75236 3.00945 1.22259 0.75236 0.18809 1.41068 0.47022 0.75236 0.28214 0.75236 1.0345 0 1.0345-1.88091 1.0345-1.78685 0-2.9154-0.18809-1.03449-0.094-2.06899-0.18809-0.94045-0.0941-2.63327-0.0941-1.59876 0-2.63326 0.0941-1.0345 0.094-2.069 0.18809-1.03449 0.18809-2.9154 0.18809zm7.52362-48.809458q-1.97495 0-3.38563-1.316633-1.31663-1.410678-1.31663-3.385627 0-2.068994 1.31663-3.385627 1.41068-1.410678 3.38563-1.410678 2.06899 0 3.38563 1.410678 1.41067 1.316633 1.41067 3.385627 0 1.974949-1.41067 3.385627-1.31664 1.316633-3.38563 1.316633z"/>
 </g>
 <g transform="matrix(.25912932 0 0 .25912932 22.074146 -7.3080624)">
  <path d="m96.334688 42.010872-37.172924 28.752767 28.121797 11.275798zm2.397787 0.735873-9.098153 40.235787 28.285098 11.341426zm-39.927796 30.567643 19.176608 49.861042 8.743652-38.666376zm30.271021 12.13776-8.974646 39.690082 37.115566-28.407049z" fill="url(#linearGradient4)"/>
  <g transform="matrix(.81846079 .19045036 -.14925454 .6414217 33.66698 39.370754)">
   <path transform="matrix(1.1590476 -.34414339 .26970263 1.4789569 -49.640029 -46.641379)" d="m77.925781 123.45313-0.527344 1.40429c-0.432043 1.14893-0.920151 3.16381-1.873046 5.14844-0.952896 1.98463-2.267891 3.64415-3.875 4.09766-4.163963 1.17501-7.875554 2.16557-11.017579 3.94921-3.142024 1.78365-5.659728 4.46009-7.089843 8.58985-1.406436 4.06137-1.415516 7.72104-2.619141 10.88867s-3.451366 6.10487-9.835937 9.10937l-1.357422 0.63868 1.277343 2.71484 1.357422-0.63867c6.849723-3.2234 9.91256-6.93989 11.363282-10.75781 1.450721-3.81792 1.43992-7.47718 2.65039-10.97266 1.217757-3.51653 3.077586-5.45555 5.736328-6.96484 2.658743-1.5093 6.170959-2.48882 10.34961-3.66797 2.920221-0.82405 4.643781-3.35507 5.763672-5.6875 1.119891-2.33244 1.739403-4.75995 1.976562-5.39063l0.529297-1.40429z" fill="#00c477" stop-color="#000000" stroke-linecap="square" stroke-miterlimit="4.6"/>
   <g fill="#00c37f">
    <path transform="matrix(-.1507251 .12252916 .13364475 .16439858 61.15662 25.926123)" d="m219.37787 392.05652-40.24016-24.55262 20.69164-11.28634 20.69163-11.28635-0.57156 23.56266z"/>
    <path transform="matrix(-.1446132 .12968606 .14145092 .15773222 37.813354 58.798574)" d="m219.37787 392.05652-40.24016-24.55262 20.69164-11.28634 20.69163-11.28635-0.57156 23.56266z"/>
    <path transform="matrix(.13411583 -.1015878 -.129187 -.20900256 73.112374 237.45879)" d="m219.37787 392.05652-40.24016-24.55262 20.69164-11.28634 20.69163-11.28635-0.57156 23.56266z"/>
    <path transform="matrix(.12166361 -.15142462 -.16516156 -.1327007 107.13113 189.74719)" d="m219.37787 392.05652-40.24016-24.55262 20.69164-11.28634 20.69163-11.28635-0.57156 23.56266z"/>
   </g>
  </g>
 </g>
</svg>
