<svg xmlns="http://www.w3.org/2000/svg" fill="none" viewBox="0 0 856 557"><path fill="#3d8a61" stroke="#224d2b" stroke-miterlimit="10" stroke-width="1.716" d="M61.9 451.1V51.4C61.9 39 71.9 29 84.3 29h629.8c12.4 0 22.4 10 22.4 22.4v399.7c0 12.4-10 22.4-22.4 22.4H84.4c-12.4 0-22.5-10.1-22.5-22.4zm498.9-6.4c0-7.4-6-13.3-13.3-13.3-7.4 0-13.3 6-13.3 13.3 0 7.4 6 13.3 13.3 13.3 7.3.1 13.3-5.9 13.3-13.3zm0-390c0-7.4-6-13.3-13.3-13.3-7.4 0-13.3 6-13.3 13.3s6 13.3 13.3 13.3 13.3-5.9 13.3-13.3zm-458.5 390c0-7.4-6-13.3-13.3-13.3s-13.3 6-13.3 13.3c0 7.4 6 13.3 13.3 13.3s13.3-5.9 13.3-13.3zm0-390c0-7.4-6-13.3-13.3-13.3s-13.3 6-13.3 13.3S81.7 68 89 68s13.3-5.9 13.3-13.3zm443 97.9c0 3.4 2.8 6.2 6.2 6.2s6.2-2.8 6.2-6.2-2.8-6.2-6.2-6.2c-3.5 0-6.2 2.8-6.2 6.2zm24.3 0c0 3.4 2.8 6.2 6.2 6.2s6.2-2.8 6.2-6.2-2.8-6.2-6.2-6.2-6.2 2.7-6.2 6.2z"/><path fill="#1e1e1c" d="M367.833 475.316v-90.6h-132.2v90.6z" opacity=".2"/><g stroke="#6ca75f" stroke-linecap="round" stroke-miterlimit="10" opacity=".25"><path stroke-width="1.586" d="M264.7 288.3V277m46.1.9v8.4" opacity=".25"/><g opacity=".25"><g stroke-width="1.463"><path d="M107.6 244.4h8.6v2.4h16.5l24.7 22.7h22l15.4-15.6h8.6l5.3-5v-3h8.9" opacity=".25"/><path d="M108.4 252.6h7.8v-3.5h15.3l24.9 22.5h24l15.3-15.3h8.7l5.2-4.6h7.5" opacity=".25"/><path d="M107.6 267.3h8.6v2.4h12.4l14.7 14.4h46.9l15.4-15.6" opacity=".25"/><path d="M108.4 275.5h7.8V272h11.6l14.5 14.3h48.9l15.3-15.4" opacity=".25"/><path d="m219.3 268.6-24.9 25.2h-79.2v-1.9h-6.8" opacity=".25"/><path d="M107.6 299.2h7.1V296h81l24.2-25.1M134 162.7v3.9l1.5 2.4v36l-14.2 14.1h-13.7" opacity=".25"/><path d="M138.3 167.8v43l-17.2 16.9h-13.5" opacity=".25"/></g><g opacity=".25"><path stroke-width="1.463" d="M254.6 278.6c0 1.3-1.7 1.3-1.7 2.7 0 1.3 1.7 1.3 1.7 2.7 0 1.3-1.7 1.3-1.7 2.7 0 1.3 1.7 1.3 1.7 2.7 0 1.3-1.7 1.3-1.7 2.7 0 1.3 1.7 1.3 1.7 2.7 0 1.3-1.7 1.3-1.7 2.7s1.7 1.4 1.7 2.7c0 1.4-1.7 1.4-1.7 2.7" opacity=".25"/><path stroke-width="1.586" d="M260.1 296.4c1.1 1.1-.1 2.3 1 3.4s2.3 0 3.4 1.1-.1 2.3 1 3.4 2.3 0 3.4 1.1-.1 2.3 1 3.4 2.3 0 3.4 1.1-.1 2.3 1 3.4 2.3 0 3.4 1.1-.1 2.3 1 3.4" opacity=".25"/></g><g stroke-width="1.463"><path d="m253.2 302.1 56.4 55.9v4.8" opacity=".25"/><path d="M256.7 278.4v23l56.2 57v4m-53-84.5v18.4" opacity=".25"/></g><path stroke-width="1.586" d="M278.4 317.3s0-1.9 3 .9 40.1 40.2 40.1 40.2v4" opacity=".25"/><path stroke-width="1.586" d="M261.9 277.9v17.2l62.4 62.1v5.6" opacity=".25"/><path stroke-width="1.586" d="M264.4 288.5c1.1 1.1-.1 2.3 1 3.4s2.3 0 3.4 1.1-.1 2.3 1 3.4 2.3 0 3.4 1.1-.1 2.3 1 3.4 2.3 0 3.4 1.1-.1 2.3 1 3.4 2.3 0 3.4 1.1-.1 2.3 1 3.4" opacity=".25"/><path stroke-width="1.586" d="M282.8 309.4s0-1.9 3 .9 46.9 46.1 46.9 46.1v7.2" opacity=".25"/><path stroke-width="1.586" d="M266.2 269.9v17.2l70 69.8v7.1" opacity=".25"/><path stroke-width="1.586" d="M269.4 281.6c1.1 1.1-.1 2.3 1 3.4s2.3 0 3.4 1.1-.1 2.3 1 3.4 2.3 0 3.4 1.1-.1 2.3 1 3.4 2.3 0 3.4 1.1-.1 2.3 1 3.4 2.3 0 3.4 1.1-.1 2.3 1 3.4" opacity=".25"/><path stroke-width="1.586" d="M287.8 302.5s0-1.9 3 .9 54.8 54 54.8 54v5.4" opacity=".25"/><path stroke-width="1.586" d="m271.2 280.2 77.3 77.2v5.4M311.8 285.4s-.7.8.4 2c.5.5 2.3 0 2.9.6.5.6-.1 2.3.6 3 .6.6 2.3 0 3 .6.6.6 0 2.3.6 3 .6.6 2.3 0 3 .6.6.6 0 2.4.6 3s2.4 0 3 .6 0 2.4.6 3 2.4 0 3 .6 0 2.4.6 3 2.4 0 3 .6 0 2.4.6 3 2.4 0 3 .6.1 2.4.6 3c.6.6 2.4.1 3 .6.7.7.1 2.4.6 2.9 1.1 1.1 2.1-.3 3 .6m-37.1-24.6s-.7.8.4 2c.5.5 2.3 0 2.9.6.5.6-.1 2.3.6 3 .6.6 2.3 0 3 .6.6.6 0 2.3.6 3 .6.6 2.3 0 3 .6.6.6 0 2.4.6 3s2.4 0 3 .6 0 2.4.6 3 2.4 0 3 .6 0 2.4.6 3 2.4 0 3 .6 0 2.4.6 3 2.4 0 3 .6.1 2.4.6 3c.6.6 2.4.1 3 .6.7.7.1 2.4.6 2.9 1.1 1.1 2.1-.3 3 .6m-36.5-24.9s-.7.8.4 2c.5.5 2.3 0 2.9.6.5.6-.1 2.3.6 3 .6.6 2.3 0 3 .6.6.6 0 2.3.6 3 .6.6 2.3 0 3 .6.6.6 0 2.4.6 3s2.4 0 3 .6 0 2.4.6 3 2.4 0 3 .6 0 2.4.6 3 2.4 0 3 .6 0 2.4.6 3 2.4 0 3 .6.1 2.4.6 3c.6.6 2.4.1 3 .6.7.7.1 2.4.6 2.9 1.1 1.1 2.1-.3 3 .6" opacity=".25"/><g stroke-width="1.586"><path d="M301.5 281.1V299m4.4-24.7v17.8m2.4-14.2v8.4l33.2 32.9h30.6l2.1 2.3-.1 2.7-1.5 2.2h-11.5l-2.5 2.6v5.2l2.9 2.7h23.4l3.2 2.2h5.9v2.2h5.2" opacity=".25"/><path d="M344.3 316.7h28.6l3.5 3.6v5.2l-2.7 3.5h-11l-1.5 1.2v2.2l1.3 2.2h23.3l3.3 2.3h4.9v-2.5h3.6m-98.9-55.3v20.1l88.2 87.8h7.9v2.5h3.3" opacity=".25"/><path d="m333.3 329.8 53.8 54.4h7.7v-2.3h3.3m-84.5-101.7 32.5 31.9h41.1" opacity=".25"/><path d="m316.2 279.1 31.8 30.5h38.7M338 322.9l19.4 20.1h14.5l4.2 4v4.4l-3.8 4.4v3.3l5.1 4.9h3.8l2.8-3.2h10.9v-3.1h2.7" opacity=".25"/><path d="M303.2 277.2v15.5l52.8 52.6h14.9l2.8 2.7v3.4l-3.6 3.9v5l6.3 6.1h5.3l3.3-3.6h9.4v2.3l4.4.4M631.9 66.8l-35.7 35.4v93.4l-5.9 6.9h-19.4" opacity=".25"/><path d="m634.5 69.1-35 34.4v93l-6.9 8.6h-21.7" opacity=".25"/><path d="M631.2 96h-15.8L604 107.3v92.3l-9.3 11.2h-23.8" opacity=".25"/><path d="M632.1 99.2h-16.2l-8.2 9.2v92.5L596 214.8h-26.7m61.1 7.2h-60.5m61.3 2.6h-61.3m1 6.5h32.7l10.7 8.9H629" opacity=".25"/><path d="M630.3 242.2h-17.4l-10.5-8.9h-31.5m-36.5 0V274l25.6 26.5v58.3l5.6 5.4h31.1" opacity=".25"/><path d="M597.6 366.6H565l-7.4-6.8v-58.5l-26.7-27.5v-39" opacity=".25"/><path d="M522.5 236.8V248l-6.2 7v15l36.5 37.2v65.1l11.5 12h30.4" opacity=".25"/><path d="M595.6 387.1H563l-13.2-13.8V308L513 270v-15l6.7-8v-9.2m37.8-97.3h5.2l5.1 5.5m-189.1-15.3 10.5-10.7h65.3l21.9 20.5h70.5m24.6 48.6h7.1l4.6-4.1h5.1v-21.4" opacity=".25"/><path d="M517.6 311.7 472.8 270V148.7l-23-22.9h-51l-6.3 7.2" opacity=".25"/><path d="m390.3 127.4 4.6-4.6h57.6l23.1 22.9v122.8l46.7 43.2" opacity=".25"/><path d="M510.9 310.5 470 272.4V150.8l-16.4-16.4h-54.1l-7.1 7.2h-5.2l-2.8-2.6h-72.8l-27.8 28.8" opacity=".25"/><path d="m427.7 306.9 38.5-37.6V152.6L452.5 139h-52.2m88.8-63.4-35.3 36.3h-68l-15.3 15.7h-81.3l-4.1 3.5h-13.3m38.7 3.3h-13.4l-22.8 23.3v9.4" opacity=".25"/><path d="m481 72-33.3 35.3h-62.8l-17.6 17.1h-80.4l-3.1 2.7h-8.4" opacity=".25"/><path d="m500.5 72-44.2 44.1h-69.9L373.3 130h-80.9l-5.2 4.9h-11.5m65-60.7L321.3 94h-13.7l-5.1 4.9" opacity=".25"/><path d="m320.4 71.9-13.1 15.4h-2.9l-17.5 18.4h-11.2l-10.9 11v50.4" opacity=".25"/><path d="m305.4 83.1-20.3 20.3h-13.3L262 113v54.1m17.3-96.6v12.6l-62.9 62.6v31" opacity=".25"/><path d="M276.5 69v12l-64.1 64v35.9l6.7 6" opacity=".25"/><path d="m219.1 190.5-8.9-7.1v-39.6l26.8-27.5V72m8.2 3.6 7.6 7.5h8.3m291.8 177.2V251l-5.9-5v-12.1" opacity=".25"/><path d="M544.3 233.3v16.1l5.5 4.9v6.1M469.9 72.9c-.5 1-27 29.3-27 29.3h-60.8L365.7 120h-93.9" opacity=".25"/><path d="M278.2 114.6h79.6l20.9-21.5h41.6L444 69" opacity=".25"/><path d="m458.1 73.2-24 25.7h-54.7L357.8 120" opacity=".25"/><path d="m423.8 72-18.3 16.3h-26.8l-23.8 21.5h-70.1m-26.7 9.7v47.6m-11.4.7 6.5-7.6v-47.8L271 94.7h3.3l3.3-3.8m-63.7 40.2-8.6 7.5v49.9l14.6 12.8" opacity=".25"/><path d="M203.1 134.4v55.3l16.8 16.5" opacity=".25"/><path d="m231.4 74.5-33.8 33.2v16.4l-2.8 3v62.7l17.6 18h8.4" opacity=".25"/><path d="m217.1 207.6-18.4-18.7v-59" opacity=".25"/><path d="M198.7 101c-.4.4-10.9 10.4-10.9 10.4v81.8l20.5 19.5h15.2" opacity=".25"/><path d="M221.5 209.6h-10.6l-19.1-18.2v-68.8" opacity=".25"/><path d="M221.5 215.4h-15.8L184.9 194v-87.2l27.7-27.1h6.1" opacity=".25"/><path d="M181.6 107.9v88.7l22.5 22.5h17.4" opacity=".25"/><path d="M221 223h-22.3s-23-22.1-22.7-22.4c.4-.3.4-39.6 0-39.9-.4-.4-2.6-3-2.6-3v-40.6" opacity=".25"/><path d="M164 74.5v10.6l6.8 6.7v63.5l-2.5 3.8V200l27.4 26.9h25.8" opacity=".25"/><path d="M220.5 230.7h-25.7s-30.7-30-30.4-30.2 0-77.9 0-77.9" opacity=".25"/><path d="M157.4 73.3v123.5l37.4 38.6h28.4" opacity=".25"/><path d="M221 238.6h-26.4l-42.7-42.9V72" opacity=".25"/></g><path stroke-width="1.463" d="M96.1 103.4h38.5l8.7 8.5v60.4" opacity=".25"/><path stroke-width="1.463" d="M97.9 106.2h34.8l8.1 8v56.1" opacity=".25"/><g stroke-width="1.586"><path d="M330.6 173.6h4.9l.3-12.8c0-1.1.9-1.9 2-1.9h.4c1.1 0 2 .9 2 2l-.2 5.9c0 1.1.9 2 2 2s2-.9 2-2v-10.4c0-1.1.9-2 2-2h9.1l1.6 2.1h2.6l2-2.1h18.2v3.6" opacity=".25"/><path d="m332 184.4 3-3.5v-5.3h5.7l7.5-7.8v-7.7c0-1.2 1-2.1 2.1-2.1h2.5c1.2 0 2.1 1 2.1 2.1v.9c0 1.2 1 2.1 2.1 2.1h.9c1.2 0 2.1-1 2.1-2.1 0-1.2 1-2.1 2.1-2.1h1c1.2 0 2.1 1 2.1 2.1v2.3H380l3.8 3.7v3.4" opacity=".25"/><path d="m314.5 167.1 21.7-20.8 48.2-.6 19 8.9 4.5 15.8" opacity=".25"/><path d="m321.6 166.4 16.7-17.3h45.1l7.6 6.9v9.3l7.5 7.4" opacity=".25"/><path d="M332.6 166.1v-6.5l7.6-7.8h41l6 5.3v16.5" opacity=".25"/><path d="M394.8 173.2v4h-9l-3.7-3.6h-3.9l-2.3-2.4v-1.8l-2.2-2.4h-20.5L332 187.1" opacity=".25"/><path d="m332.6 192.9 20.2-21.2h1.8c.8 0 1.5.7 1.5 1.5v2.4c0 .8.7 1.5 1.5 1.5s1.5-.7 1.5-1.5v-.5c0-.8.7-1.5 1.5-1.5h.3c.8 0 1.5.7 1.5 1.5v.8c0 .8.7 1.5 1.5 1.5s1.5-.7 1.5-1.5v-4.7c0-.8.7-1.5 1.5-1.5h.1c.8 0 1.5.7 1.5 1.5v2.8h4.8l4 4.2h3.8m19.2-34.7h19.9l5.6 5.6v38.6l5.8 5.2v10.7l-3.9 5.3h-12.5" opacity=".25"/><path d="M400 147.5h18l5 4.3V180l-1.5 3h-20.6l-4.1 4.1v9.8l4.6 4.5h5.4m-26.5-18.3h-2.9l-2.3-2.4h-11.7l-2.3-1.2H350l-14.3 14.7h-3.1" opacity=".25"/><path d="M375.1 183.9h-6.6l-2.9 2.2h-17.9l-14.6 13.8" opacity=".25"/><path d="m332.6 206.6 16.4-17.5h30.4l2.7-3.1" opacity=".25"/><path d="m332.6 216.2 4.8-6.2c.8-1 2.2-1.1 3.1-.2l1 .9c.9.8 2.2.8 3-.1l.8-.9c.7-.8.7-2.1-.1-2.8l-.9-.9c-.8-.8-.8-2-.1-2.8l.5-.5c.8-.9 2.1-1 3-.1l1.4 1.3c.8.8 2.1.8 2.9-.1.8-.8.8-2.1 0-2.9l-1.8-1.8c-.8-.8-.8-2.1 0-2.9l1.3-1.4c.8-.9 2.2-.9 3 0l3.5 3.7" opacity=".25"/><path d="M331.7 215.9h15.5l20.1-21.1h5M331.7 223h6.1c1.2 0 2.2 1 2.2 2.2v1.3c0 1.2 1 2.2 2.2 2.2h1c1.2 0 2.2-1 2.2-2.2v-1.3c0-1.2 1-2.2 2.2-2.2s2.2 1 2.2 2.2v.1c0 1.2 1 2.2 2.2 2.2h1c1.2 0 2.2-1 2.2-2.2v-3c0-.5.2-.9.5-1.3l2.4-3.1m-26.4 13.4 6.2 5.1h41.5m-48.8 7.6h28.5l5.7-5.3h15.5m-48.6 17h30.4l4.5 3.2H384l10.9-11.8v-4.7" opacity=".25"/><path d="M331.2 260.3h61.2s5.8-3.7 5.8-4.2v-17.4" opacity=".25"/><path d="M331.2 265.1h63.7l8.7-9.4v-13.3" opacity=".25"/></g></g></g><g fill="#0d653e" opacity=".5"><path d="M369.1 395.1h42.1V325h-26.8v-6.1h12.4V299h-46.7l-13.5-15.8h11.8v-14.6h53l14.3-13.6h43.6V149h-31.7l-6.1-8.6h32.3l10 10.6v117.7l-37.2 36.8v8.7l42.1-41.1 38.6 38.6h14.4L475.1 268l.8-128-20.8-21.4 46.3-45.4H369.1l-27.4 26h-23l32-32.7h-35.8l-31.1 33.3h-11.1l-14.6 15.6h-18.6V65.2H227l-47.6 42.6V63.9h-32.3l-.3 145.7 42.4 34.8h35.7l21.3 19.5v45.7l45.2 43.9v44.3z" opacity=".3"/><path d="m588.3 163.6-20.1-7.8.3-8.4-5-7.6v43.8l-48.2 31.2H478V250l66.1 59.6v68.6l16.4 16.9h38v-39.8h-23.6v-61l-23.5-25.6h7v-21.8h48.2l3.3 39.8h18.6V183.6l-13.5-4.4v-33.5l13.5-14.6V58.4l-40.2 38.3z" opacity=".3"/></g><path fill="#8f6042" d="M632.4 206.9c8.063 0 14.6-6.537 14.6-14.6s-6.537-14.6-14.6-14.6-14.6 6.537-14.6 14.6 6.537 14.6 14.6 14.6"/><path fill="#f3a06a" d="M632.4 199.9a7.6 7.6 0 1 0 0-15.2 7.6 7.6 0 0 0 0 15.2"/><path fill="#8f6042" d="M682 206.9c8.063 0 14.6-6.537 14.6-14.6s-6.537-14.6-14.6-14.6-14.6 6.537-14.6 14.6 6.537 14.6 14.6 14.6"/><path fill="#f3a06a" d="M682 199.9a7.6 7.6 0 1 0 0-15.2 7.6 7.6 0 0 0 0 15.2"/><path fill="#8f6042" d="M632.4 308.6c8.063 0 14.6-6.537 14.6-14.6s-6.537-14.6-14.6-14.6-14.6 6.537-14.6 14.6 6.537 14.6 14.6 14.6"/><path fill="#f3a06a" d="M632.4 301.6a7.6 7.6 0 1 0 0-15.2 7.6 7.6 0 0 0 0 15.2"/><path fill="#8f6042" d="M682 308.6c8.063 0 14.6-6.537 14.6-14.6s-6.537-14.6-14.6-14.6-14.6 6.537-14.6 14.6 6.537 14.6 14.6 14.6"/><path fill="#f3a06a" d="M682 301.6a7.6 7.6 0 1 0 0-15.2 7.6 7.6 0 0 0 0 15.2"/><path fill="#8f6042" d="M639.6 337.8c6.13 0 11.1-4.97 11.1-11.1s-4.97-11.1-11.1-11.1-11.1 4.97-11.1 11.1 4.97 11.1 11.1 11.1"/><path fill="#f3a06a" d="M639.6 332.5a5.8 5.8 0 1 0 0-11.6 5.8 5.8 0 0 0 0 11.6"/><path fill="#8f6042" d="M639.6 469.4c6.13 0 11.1-4.97 11.1-11.1s-4.97-11.1-11.1-11.1-11.1 4.97-11.1 11.1 4.97 11.1 11.1 11.1"/><path fill="#f3a06a" d="M639.6 464.1a5.8 5.8 0 1 0 0-11.6 5.8 5.8 0 0 0 0 11.6"/><path fill="#0d653e" d="M91.2 238.6h47.9l22.1 23h18.2l16.3-18.7h24.2v37.8l-17.6 20.8h3.3v20.2h-35.7v64.1h-6.1v-81.2h-42.6l-6.5 6.4H91.2z" opacity=".3"/><path fill="#8f6042" d="M632.4 171.8c8.063 0 14.6-6.537 14.6-14.6s-6.537-14.6-14.6-14.6-14.6 6.537-14.6 14.6 6.537 14.6 14.6 14.6"/><path fill="#f3a06a" d="M632.4 164.8a7.6 7.6 0 1 0 0-15.2 7.6 7.6 0 0 0 0 15.2"/><path fill="#8f6042" d="M682 171.8c8.063 0 14.6-6.537 14.6-14.6s-6.537-14.6-14.6-14.6-14.6 6.537-14.6 14.6 6.537 14.6 14.6 14.6"/><path fill="#f3a06a" d="M682 164.8a7.6 7.6 0 1 0 0-15.2 7.6 7.6 0 0 0 0 15.2"/><path fill="#8f6042" d="M632.4 64.9c8.063 0 14.6-6.537 14.6-14.6s-6.537-14.6-14.6-14.6-14.6 6.537-14.6 14.6 6.537 14.6 14.6 14.6"/><path fill="#f3a06a" d="M632.4 57.9a7.6 7.6 0 1 0 0-15.2 7.6 7.6 0 0 0 0 15.2"/><path fill="#8f6042" d="M682 64.9c8.063 0 14.6-6.537 14.6-14.6s-6.537-14.6-14.6-14.6-14.6 6.537-14.6 14.6 6.537 14.6 14.6 14.6"/><path fill="#f3a06a" d="M682 57.9a7.6 7.6 0 1 0 0-15.2 7.6 7.6 0 0 0 0 15.2"/><path fill="#fdc704" d="M66.1 445.8c0-12.8 10.4-23.2 23.2-23.2s23.2 10.4 23.2 23.2S102.1 469 89.3 469s-23.2-10.4-23.2-23.2m33.2 0c0-5.5-4.5-10-10-10s-10 4.5-10 10 4.5 10 10 10 10-4.5 10-10"/><path fill="#1e1e1c" stroke="#9c9b9b" stroke-miterlimit="10" stroke-width=".551" d="M493.753 477.302v-100.7h-48.6v100.7z" opacity=".15"/><path fill="url(#a)" d="M508.5 496.4v-18.6c0-2.2-1.8-4-4-4h-35.7c-2.2 0-4 1.8-4 4v18.6c0 2.2 1.8 4 4 4h35.7c2.2-.1 4-1.8 4-4"/><path stroke="#3d3d3b" stroke-miterlimit="10" stroke-width="1.463" d="M508.5 496.4v-18.6c0-2.2-1.8-4-4-4h-35.7c-2.2 0-4 1.8-4 4v18.6c0 2.2 1.8 4 4 4h35.7c2.2-.1 4-1.8 4-4z"/><path fill="url(#b)" d="m513.8 475.3.1-99.7h-53.8l-.1 99.7z"/><g stroke-miterlimit="10" stroke-width="1.463"><path stroke="#9c9b9b" d="m513.8 475.3.1-99.7h-53.8l-.1 99.7z"/><path fill="url(#c)" stroke="#3d3d3b" d="M514.2 478.9v-7.2c0-1.1-.9-2.1-2.1-2.1h-50.2c-1.1 0-2.1.9-2.1 2.1v7.2c0 1.1.9 2.1 2.1 2.1h50.2c1.2 0 2.1-1 2.1-2.1z"/><path fill="url(#d)" stroke="#3d3d3b" d="M459.3 436.8h5l10.6-34.2h24.5l9.5 34.3h5.4l.1-61.3h-55z"/></g><path fill="#1e1e1c" d="M152.028 476.151v-42.1h-42.3v42.1z" opacity=".2"/><path fill="#c7c7c6" d="M158.089 437.198v-8.5h-2.9v8.5zm-5.568-.032v-8.5h-2.9v8.5zm-4.959.059v-8.5h-2.3v8.5zm-4.71-.09v-8.5h-2.7v8.5zm-4.707.007v-8.5h-2.7v8.5zm-4.657.057v-8.5h-2.7v8.5z"/><path fill="url(#e)" d="M175.3 437.3v36.9c0 1.8-1.4 3.2-3.2 3.2l-51.2-.1c-1.8 0-3.2-1.4-3.2-3.2v-36.9c0-1.8 1.4-3.2 3.2-3.2l51.2.1c1.7 0 3.2 1.4 3.2 3.2"/><path stroke="#9c9b9b" stroke-miterlimit="10" stroke-width="1.463" d="M175.3 437.3v36.9c0 1.8-1.4 3.2-3.2 3.2l-51.2-.1c-1.8 0-3.2-1.4-3.2-3.2v-36.9c0-1.8 1.4-3.2 3.2-3.2l51.2.1c1.7 0 3.2 1.4 3.2 3.2z"/><path fill="url(#f)" d="m373.6 398.2-.1 95.6c0 2-1.6 3.5-3.5 3.5l-111.6-.1c-2 0-3.5-1.6-3.5-3.5l.1-95.6c0-2 1.6-3.5 3.5-3.5l111.6.1c1.9-.1 3.5 1.5 3.5 3.5"/><path stroke="#9c9b9b" stroke-miterlimit="10" stroke-width="1.463" d="m373.6 398.2-.1 95.6c0 2-1.6 3.5-3.5 3.5l-111.6-.1c-2 0-3.5-1.6-3.5-3.5l.1-95.6c0-2 1.6-3.5 3.5-3.5l111.6.1c1.9-.1 3.5 1.5 3.5 3.5z"/><path fill="#5b5a5d" d="M264 478.2v-.2l3.8-35.8c.1-1 .9-1.8 2-1.8h12.7c1 0 1.8.7 1.9 1.7l4.2 35.8c.1 1.1-.6 2-1.7 2.2-1.1.1-2-.6-2.2-1.7l-4-27.4h-9.2l-3.6 27.4c-.1 1.1-1.1 1.9-2.2 1.7-.9-.1-1.7-.9-1.7-1.9m77.4.1v-.2l3.6-35.8c.1-1 .9-1.8 2-1.8h12.8c1 0 1.8.7 1.9 1.7L366 478c.1 1.1-.6 2.1-1.7 2.2s-2.1-.6-2.2-1.7l-4.1-29.1h-9.2l-3.5 29c-.1 1.1-1.1 1.9-2.1 1.8-1.1-.1-1.8-.9-1.8-1.9" opacity=".6"/><path stroke="#5b5a5d" stroke-linecap="round" stroke-linejoin="round" stroke-miterlimit="10" stroke-width="3.917" d="m296.9 424 7.1 54.2h21.6L332 424" opacity=".6"/><path fill="#fdc704" d="M525.2 55.2c0-12.8 10.4-23.2 23.2-23.2s23.2 10.4 23.2 23.2-10.4 23.2-23.2 23.2-23.2-10.4-23.2-23.2m33.2 0c0-5.5-4.5-10-10-10s-10 4.5-10 10 4.5 10 10 10 10-4.5 10-10m-33.2 390.6c0-12.8 10.4-23.2 23.2-23.2s23.2 10.4 23.2 23.2-10.4 23.2-23.2 23.2-23.2-10.4-23.2-23.2m33.2 0c0-5.5-4.5-10-10-10s-10 4.5-10 10 4.5 10 10 10 10-4.5 10-10M66.1 55.2C66.1 42.4 76.5 32 89.3 32s23.2 10.4 23.2 23.2-10.4 23.2-23.2 23.2S66.1 68 66.1 55.2m33.2 0c0-5.5-4.5-10-10-10s-10 4.5-10 10 4.5 10 10 10 10-4.5 10-10"/><path fill="#1e1e1c" d="M106.9 77.1V43.3c0-4 3.3-7.3 7.3-7.3h394.7c4 0 7.3 3.3 7.3 7.3v33.8c0 4-3.3 7.3-7.3 7.3H114.2c-4 0-7.3-3.3-7.3-7.3" opacity=".2"/><path fill="#1e1e1c" d="M72.3 376.5h3.4c1.2 0 2.2 1 2.2 2.2v15.8c0 1.2-1 2.2-2.2 2.2h-3.4c-1.2 0-2.2-1-2.2-2.2v-15.8c.1-1.3 1-2.2 2.2-2.2" opacity=".15"/><path fill="#b99b5d" d="M72.3 372.3h3.4c1.2 0 2.2 1 2.2 2.2v15.8c0 1.2-1 2.2-2.2 2.2h-3.4c-1.2 0-2.2-1-2.2-2.2v-15.8c.1-1.2 1-2.2 2.2-2.2"/><path fill="#bdbec2" d="M70.2 386.5h7.7v5c0 .5-.4.9-.9.9h-5.9c-.5 0-.9-.4-.9-.9zm1-14.2h5.6c.6 0 1.1.5 1.1 1.1v4.5h-7.7v-4.5c0-.6.4-1.1 1-1.1"/><path fill="#1e1e1c" d="M227.3 388.2h3.4c1.2 0 2.2 1 2.2 2.2v15.8c0 1.2-1 2.2-2.2 2.2h-3.4c-1.2 0-2.2-1-2.2-2.2v-15.8c.1-1.3 1-2.2 2.2-2.2" opacity=".15"/><path fill="#b99b5d" d="M227.3 384h3.4c1.2 0 2.2 1 2.2 2.2V402c0 1.2-1 2.2-2.2 2.2h-3.4c-1.2 0-2.2-1-2.2-2.2v-15.8c.1-1.2 1-2.2 2.2-2.2"/><path fill="#bdbec2" d="M225.2 398.2h7.7v5c0 .5-.4.9-.9.9h-5.9c-.5 0-.9-.4-.9-.9zm1-14.2h5.6c.6 0 1.1.5 1.1 1.1v4.5h-7.7v-4.5c0-.6.5-1.1 1-1.1"/><path fill="#1e1e1c" d="M146.6 320.7h3.4c1.2 0 2.2 1 2.2 2.2v15.8c0 1.2-1 2.2-2.2 2.2h-3.4c-1.2 0-2.2-1-2.2-2.2v-15.8c0-1.2 1-2.2 2.2-2.2" opacity=".15"/><path fill="#b99b5d" d="M146.6 316.6h3.4c1.2 0 2.2 1 2.2 2.2v15.8c0 1.2-1 2.2-2.2 2.2h-3.4c-1.2 0-2.2-1-2.2-2.2v-15.8c0-1.2 1-2.2 2.2-2.2"/><path fill="#bdbec2" d="M144.4 330.8h7.7v5c0 .5-.4.9-.9.9h-5.9c-.5 0-.9-.4-.9-.9zm1.1-14.2h5.6c.6 0 1.1.5 1.1 1.1v4.5h-7.7v-4.5c-.1-.6.4-1.1 1-1.1"/><path fill="#1e1e1c" d="M105.9 320.7h3.4c1.2 0 2.2 1 2.2 2.2v15.8c0 1.2-1 2.2-2.2 2.2h-3.4c-1.2 0-2.2-1-2.2-2.2v-15.8c.1-1.2 1-2.2 2.2-2.2" opacity=".15"/><path fill="#b99b5d" d="M105.9 316.6h3.4c1.2 0 2.2 1 2.2 2.2v15.8c0 1.2-1 2.2-2.2 2.2h-3.4c-1.2 0-2.2-1-2.2-2.2v-15.8c.1-1.2 1-2.2 2.2-2.2"/><path fill="#bdbec2" d="M103.8 330.8h7.7v5c0 .5-.4.9-.9.9h-5.9c-.5 0-.9-.4-.9-.9zm1-14.2h5.6c.6 0 1.1.5 1.1 1.1v4.5h-7.7v-4.5c0-.6.4-1.1 1-1.1"/><path fill="#1e1e1c" d="M114.1 370.3v3c0 1.1-.9 1.9-1.9 1.9H98c-1.1 0-1.9-.9-1.9-1.9v-3c0-1.1.9-1.9 1.9-1.9h14.2c1.1 0 1.9.8 1.9 1.9" opacity=".15"/><path fill="#b99b5d" d="M114.1 366.1v3c0 1.1-.9 1.9-1.9 1.9H98c-1.1 0-1.9-.9-1.9-1.9v-3c0-1.1.9-1.9 1.9-1.9h14.2c1.1 0 1.9.9 1.9 1.9"/><path fill="#bdbec2" d="M101.4 364.2v6.9h-4.5c-.5 0-.8-.4-.8-.8V365c0-.5.4-.8.8-.8zm12.7 1v5c0 .5-.4 1-1 1h-4v-6.9h4c.6-.1 1 .3 1 .9"/><path fill="#1e1e1c" d="M114.1 359.8v3c0 1.1-.9 1.9-1.9 1.9H98c-1.1 0-1.9-.9-1.9-1.9v-3c0-1.1.9-1.9 1.9-1.9h14.2c1.1-.1 1.9.8 1.9 1.9" opacity=".15"/><path fill="#b99b5d" d="M114.1 355.6v3c0 1.1-.9 1.9-1.9 1.9H98c-1.1 0-1.9-.9-1.9-1.9v-3c0-1.1.9-1.9 1.9-1.9h14.2c1.1 0 1.9.9 1.9 1.9"/><path fill="#bdbec2" d="M101.4 353.7v6.9h-4.5c-.5 0-.8-.4-.8-.8v-5.3c0-.5.4-.8.8-.8zm12.7 1v5c0 .5-.4 1-1 1h-4v-6.9h4c.6-.1 1 .3 1 .9"/><path fill="#1e1e1c" d="M239.3 368.3v3c0 1.1-.9 1.9-1.9 1.9h-14.2c-1.1 0-1.9-.9-1.9-1.9v-3c0-1.1.9-1.9 1.9-1.9h14.2c1.1-.1 1.9.8 1.9 1.9" opacity=".15"/><path fill="#b99b5d" d="M239.3 364.1v3c0 1.1-.9 1.9-1.9 1.9h-14.2c-1.1 0-1.9-.9-1.9-1.9v-3c0-1.1.9-1.9 1.9-1.9h14.2c1.1 0 1.9.8 1.9 1.9"/><path fill="#bdbec2" d="M226.6 362.2v6.9h-4.5c-.5 0-.8-.4-.8-.8V363c0-.5.4-.8.8-.8zm12.7.9v5c0 .5-.4 1-1 1h-4v-6.9h4c.6 0 1 .4 1 .9"/><path fill="#1e1e1c" d="M239.3 357.8v3c0 1.1-.9 1.9-1.9 1.9h-14.2c-1.1 0-1.9-.9-1.9-1.9v-3c0-1.1.9-1.9 1.9-1.9h14.2c1.1-.1 1.9.8 1.9 1.9" opacity=".15"/><path fill="#b99b5d" d="M239.3 353.6v3c0 1.1-.9 1.9-1.9 1.9h-14.2c-1.1 0-1.9-.9-1.9-1.9v-3c0-1.1.9-1.9 1.9-1.9h14.2c1.1 0 1.9.8 1.9 1.9"/><path fill="#bdbec2" d="M226.6 351.7v6.9h-4.5c-.5 0-.8-.4-.8-.8v-5.3c0-.5.4-.8.8-.8zm12.7.9v5c0 .5-.4 1-1 1h-4v-6.9h4c.6 0 1 .4 1 .9"/><path fill="#1e1e1c" d="M72.3 401.6h3.4c1.2 0 2.2 1 2.2 2.2v15.8c0 1.2-1 2.2-2.2 2.2h-3.4c-1.2 0-2.2-1-2.2-2.2v-15.8c.1-1.2 1-2.2 2.2-2.2" opacity=".15"/><path fill="#b99b5d" d="M72.3 397.5h3.4c1.2 0 2.2 1 2.2 2.2v15.8c0 1.2-1 2.2-2.2 2.2h-3.4c-1.2 0-2.2-1-2.2-2.2v-15.8c.1-1.3 1-2.2 2.2-2.2"/><path fill="#bdbec2" d="M70.2 411.6h7.7v5c0 .5-.4.9-.9.9h-5.9c-.5 0-.9-.4-.9-.9zm1-14.1h5.6c.6 0 1.1.5 1.1 1.1v4.5h-7.7v-4.5c0-.7.4-1.1 1-1.1"/><path fill="#b99b5d" d="M294.555 88.31v-4.1h-10.7v4.1z"/><path fill="#bdbec2" d="M291.4 88.3v-4.1h2.7c.3 0 .5.2.5.5v3.1c0 .3-.2.5-.5.5zm-7.6-.5v-3.1c0-.3.2-.5.5-.5h2v4.1h-2c-.3 0-.5-.2-.5-.5"/><path fill="#585857" stroke="#3d3d3b" stroke-miterlimit="10" stroke-width="1.185" d="M266.935 162.31h4.1v-10.8h-4.1z"/><path fill="#bdbec2" d="M266.9 159.1h4.1v2.7c0 .3-.2.5-.5.5h-3.2c-.3 0-.5-.2-.5-.5v-2.7zm.5-7.7h3.1c.3 0 .5.2.5.5v2h-4.1v-2c0-.2.2-.5.5-.5"/><path fill="#585857" stroke="#3d3d3b" stroke-miterlimit="10" stroke-width="1.185" d="M310.845 161.004v-4.1h-10.8v4.1z"/><path fill="#bdbec2" d="M307.6 161v-4.1h2.7c.3 0 .5.2.5.5v3.2c0 .3-.2.5-.5.5h-2.7zm-7.6-.5v-3.1c0-.3.2-.5.5-.5h2v4.1h-2c-.3 0-.5-.2-.5-.5"/><path fill="#585857" stroke="#3d3d3b" stroke-miterlimit="10" stroke-width="1.185" d="M123.341 190.856v-4.1h-10.8v4.1z"/><path fill="#bdbec2" d="M120.1 190.9v-4.1h2.7c.3 0 .5.2.5.5v3.2c0 .3-.2.5-.5.5h-2.7zm-7.6-.5v-3.1c0-.3.2-.5.5-.5h2v4.1h-2c-.3 0-.5-.2-.5-.5"/><path fill="#585857" stroke="#3d3d3b" stroke-miterlimit="10" stroke-width="1.185" d="M123.289 200.103v-4.1h-10.8v4.1z"/><path fill="#bdbec2" d="M120.1 200.2V196h2.7c.3 0 .5.2.5.5v3.2c0 .3-.2.5-.5.5zm-7.6-.6v-3.1c0-.3.2-.5.5-.5h2v4.1h-2c-.3.1-.5-.2-.5-.5"/><path fill="#1e1e1c" d="M108.4 411h-6.8c-1.6 0-3-1.3-3-3v-23.6c0-1.6 1.3-3 3-3h6.8c1.6 0 3 1.3 3 3V408c0 1.6-1.3 3-3 3" opacity=".15"/><path fill="#b99b5d" d="M108.4 406.8h-6.8c-1.6 0-3-1.3-3-3v-23.6c0-1.6 1.3-3 3-3h6.8c1.6 0 3 1.3 3 3v23.6c0 1.7-1.3 3-3 3"/><path fill="#bdbec2" d="M111.4 386H98.6v-7.3c0-.8.6-1.4 1.4-1.4h9.9c.8 0 1.4.6 1.4 1.4v7.3zm-1.6 20.8h-9.5c-.9 0-1.7-.7-1.7-1.7v-6.4h12.8v6.4c0 1-.7 1.7-1.6 1.7"/><path fill="#1e1e1c" d="M232.4 347.8h-6.8c-1.6 0-3-1.3-3-3v-23.6c0-1.6 1.3-3 3-3h6.8c1.6 0 3 1.3 3 3v23.6c0 1.7-1.3 3-3 3" opacity=".15"/><path fill="#b99b5d" d="M232.4 343.7h-6.8c-1.6 0-3-1.3-3-3v-23.6c0-1.6 1.3-3 3-3h6.8c1.6 0 3 1.3 3 3v23.6c0 1.7-1.3 3-3 3"/><path fill="#bdbec2" d="M235.4 322.8h-12.8v-7.3c0-.8.6-1.4 1.4-1.4h9.9c.8 0 1.4.6 1.4 1.4v7.3zm-1.6 20.9h-9.5c-.9 0-1.7-.7-1.7-1.7v-6.4h12.8v6.4c0 .9-.7 1.7-1.6 1.7"/><path fill="#1e1e1c" d="M214.3 412.4v6.8c0 1.6-1.3 3-3 3h-23.6c-1.6 0-3-1.3-3-3v-6.8c0-1.6 1.3-3 3-3h23.6c1.7 0 3 1.4 3 3" opacity=".15"/><path fill="#b99b5d" d="M214.3 408.3v6.8c0 1.6-1.3 3-3 3h-23.6c-1.6 0-3-1.3-3-3v-6.8c0-1.6 1.3-3 3-3h23.6c1.7 0 3 1.3 3 3"/><path fill="#bdbec2" d="M193.5 405.3v12.8h-7.3c-.8 0-1.4-.6-1.4-1.4v-9.9c0-.8.6-1.4 1.4-1.4h7.3zm20.8 1.6v9.5c0 .9-.7 1.7-1.7 1.7h-6.4v-12.8h6.4c1 0 1.7.7 1.7 1.6"/><path fill="#1e1e1c" d="M250.6 347.8h-6.8c-1.6 0-3-1.3-3-3v-23.6c0-1.6 1.3-3 3-3h6.8c1.6 0 3 1.3 3 3v23.6c0 1.7-1.3 3-3 3" opacity=".15"/><path fill="#b99b5d" d="M250.6 343.7h-6.8c-1.6 0-3-1.3-3-3v-23.6c0-1.6 1.3-3 3-3h6.8c1.6 0 3 1.3 3 3v23.6c0 1.7-1.3 3-3 3"/><path fill="#bdbec2" d="M253.6 322.8h-12.8v-7.3c0-.8.6-1.4 1.4-1.4h9.9c.8 0 1.4.6 1.4 1.4v7.3zm-1.7 20.9h-9.5c-.9 0-1.7-.7-1.7-1.7v-6.4h12.8v6.4c.1.9-.6 1.7-1.6 1.7"/><path fill="#1e1e1c" d="M188.3 467.5h-6.8c-1.6 0-3-1.3-3-3v-23.6c0-1.6 1.3-3 3-3h6.8c1.6 0 3 1.3 3 3v23.6c0 1.7-1.3 3-3 3" opacity=".15"/><path fill="#b99b5d" d="M188.3 463.4h-6.8c-1.6 0-3-1.3-3-3v-23.6c0-1.6 1.3-3 3-3h6.8c1.6 0 3 1.3 3 3v23.6c0 1.6-1.3 3-3 3"/><path fill="#bdbec2" d="M191.3 442.5h-12.8v-7.3c0-.8.6-1.4 1.4-1.4h9.9c.8 0 1.4.6 1.4 1.4v7.3zm-1.6 20.9h-9.5c-.9 0-1.7-.7-1.7-1.7v-6.4h12.8v6.4c0 .9-.7 1.7-1.6 1.7"/><path fill="#c7c7c6" d="M186.197 347.112v-8.5h-3.4v8.5zm-6.532.033v-8.5h-3.4v8.5zm-5.867-.033v-8.5h-2.7v8.5zm-5.461.06v-8.5h-3.2v8.5zm-5.523-.077v-8.5h-3.2v8.5zm-5.464.064v-8.5h-3.2v8.5zm28.804 42.21v-8.5h-3.4v8.5zm-6.533.032v-8.5h-3.4v8.5zm-5.767-.033v-8.5h-2.7v8.5zm-5.56.061v-8.5h-3.2v8.5zm-5.523-.077v-8.5h-3.2v8.5zm-5.465.064v-8.5h-3.199v8.5zm28.987-9.551h8.5v-3.4h-8.5zm0-6.565h8.5v-3.4h-8.5zm0-5.834h8.5v-2.7h-8.5zm0-5.52h8.5v-3.2h-8.5zm0-5.546h8.5v-3.2h-8.5zm0-5.429h8.5v-3.2h-8.5zm-42.212 28.894h8.5v-3.4h-8.5zm0-6.565h8.5v-3.4h-8.5zm0-5.834h8.5v-2.7h-8.5zm0-5.52h8.5v-3.2h-8.5zm0-5.546h8.5v-3.2h-8.5zm0-5.429h8.5v-3.2h-8.5z"/><g opacity=".15"><path fill="#1e1e1c" d="M151.4 383.2v-30.5c0-1.5 1.2-2.8 2.8-2.8h30.5c1.5 0 2.8 1.2 2.8 2.8v30.5c0 1.5-1.2 2.8-2.8 2.8h-30.5c-1.6 0-2.8-1.3-2.8-2.8" opacity=".15"/><path stroke="#1e1e1c" stroke-miterlimit="10" stroke-width="1.185" d="M151.4 383.2v-30.5c0-1.5 1.2-2.8 2.8-2.8h30.5c1.5 0 2.8 1.2 2.8 2.8v30.5c0 1.5-1.2 2.8-2.8 2.8h-30.5c-1.6 0-2.8-1.3-2.8-2.8z" opacity=".15"/></g><path fill="#585857" d="M151.4 379.1v-30.5c0-1.5 1.2-2.8 2.8-2.8h30.5c1.5 0 2.8 1.2 2.8 2.8v30.5c0 1.5-1.2 2.8-2.8 2.8h-30.5c-1.6-.1-2.8-1.3-2.8-2.8"/><path stroke="#3d3d3b" stroke-miterlimit="10" stroke-width="1.185" d="M151.4 379.1v-30.5c0-1.5 1.2-2.8 2.8-2.8h30.5c1.5 0 2.8 1.2 2.8 2.8v30.5c0 1.5-1.2 2.8-2.8 2.8h-30.5c-1.6-.1-2.8-1.3-2.8-2.8z"/><path fill="#8f6042" d="M120.2 183.3c6.075 0 11-4.925 11-11s-4.925-11-11-11-11 4.925-11 11 4.925 11 11 11"/><path fill="#f3a06a" d="M120.2 178a5.7 5.7 0 1 0 0-11.4 5.7 5.7 0 0 0 0 11.4"/><path fill="#585857" stroke="#3d3d3b" stroke-miterlimit="10" stroke-width="1.185" d="M344.8 268.9h-4.1v10.8h4.1z"/><path fill="#bdbec2" d="M344.8 272.1h-4.1v-2.7c0-.3.2-.5.5-.5h3.2c.3 0 .5.2.5.5v2.7zm-.5 7.6h-3.1c-.3 0-.5-.2-.5-.5v-2h4.1v2c0 .3-.2.5-.5.5"/><path fill="#585857" stroke="#3d3d3b" stroke-miterlimit="10" stroke-width="1.185" d="M393.948 423.693v-4.1h-10.8v4.1z"/><path fill="#bdbec2" d="M390.8 423.7v-4.1h2.7c.3 0 .5.2.5.5v3.2c0 .3-.2.5-.5.5h-2.7zm-7.6-.5v-3.1c0-.3.2-.5.5-.5h2v4.1h-2c-.3 0-.5-.2-.5-.5"/><path fill="#585857" stroke="#3d3d3b" stroke-miterlimit="10" stroke-width="1.185" d="M393.943 430.988v-4.1h-10.8v4.1z"/><path fill="#bdbec2" d="M390.8 431v-4.1h2.7c.3 0 .5.2.5.5v3.2c0 .3-.2.5-.5.5h-2.7zm-7.6-.5v-3.1c0-.3.2-.5.5-.5h2v4.1h-2c-.3 0-.5-.2-.5-.5"/><path fill="#1e1e1c" d="M602.5 140.4h5.7c2 0 3.5 1.6 3.5 3.5v26.4c0 2-1.6 3.5-3.5 3.5h-5.7c-2 0-3.5-1.6-3.5-3.5v-26.4c0-2 1.5-3.5 3.5-3.5" opacity=".15"/><path fill="#b99b5d" d="M602.5 136.2h5.7c2 0 3.5 1.6 3.5 3.5v26.4c0 2-1.6 3.5-3.5 3.5h-5.7c-2 0-3.5-1.6-3.5-3.5v-26.4c0-1.9 1.5-3.5 3.5-3.5"/><path fill="#bdbec2" d="M599 159.8h12.8v8.4c0 .8-.7 1.5-1.5 1.5h-9.8c-.8 0-1.5-.7-1.5-1.5zm1.6-23.6h9.5c.9 0 1.6.7 1.6 1.6v6.2H599v-6.2c0-.9.7-1.6 1.6-1.6"/><path fill="#1e1e1c" d="M602.5 82.9h5.7c2 0 3.5 1.6 3.5 3.5v26.4c0 2-1.6 3.5-3.5 3.5h-5.7c-2 0-3.5-1.6-3.5-3.5V86.4c0-1.9 1.5-3.5 3.5-3.5" opacity=".15"/><path fill="#b99b5d" d="M602.5 78.7h5.7c2 0 3.5 1.6 3.5 3.5v26.4c0 2-1.6 3.5-3.5 3.5h-5.7c-2 0-3.5-1.6-3.5-3.5V82.2c0-1.9 1.5-3.5 3.5-3.5"/><path fill="#bdbec2" d="M599 102.3h12.8v8.4c0 .8-.7 1.5-1.5 1.5h-9.8c-.8 0-1.5-.7-1.5-1.5zm1.8-23.6h9.2c1 0 1.8.8 1.8 1.8v7.8H599v-7.8c0-1 .8-1.8 1.8-1.8"/><path fill="#1e1e1c" d="m446.644 206.917-.169 12.099 4.599.064.169-12.099z" opacity=".15"/><path fill="#b99b5d" d="m446.59 202.769-.169 12.099 4.6.065.169-12.099z"/><path fill="#bdbec2" d="m451.2 206.4-4.6-.1v-3c0-.3.3-.5.6-.5h3.5c.3 0 .5.3.5.6zm-.7 8.5H447c-.3 0-.6-.3-.6-.6v-2.2l4.6.1v2.2c.1.3-.2.5-.5.5"/><path fill="#1e1e1c" d="m446.646 227.414-.169 12.099 4.6.064.169-12.098z" opacity=".15"/><path fill="#b99b5d" d="m446.593 223.267-.169 12.099 4.6.064.169-12.099z"/><path fill="#bdbec2" d="m451.2 226.9-4.6-.1v-3c0-.3.3-.5.6-.5h3.5c.3 0 .5.3.5.6zm-.7 8.5H447c-.3 0-.6-.3-.6-.6v-2.2l4.6.1v2.2c.1.3-.2.5-.5.5"/><path fill="#1e1e1c" d="m440.397 249.767-.064 4.6 12.099.169.064-4.6z" opacity=".15"/><path fill="#b99b5d" d="m440.344 245.62-.065 4.599 12.099.169.065-4.599z"/><path fill="#bdbec2" d="m444 245.6-.1 4.6h-3c-.3 0-.5-.3-.5-.6v-3.5c0-.3.3-.5.6-.5zm8.5.8v3.5c0 .3-.3.6-.6.6h-2.2l.1-4.6h2.2c.2-.1.5.1.5.5"/><path fill="#1e1e1c" d="m424.847 249.818-.064 4.6 12.099.169.064-4.6z" opacity=".15"/><path fill="#b99b5d" d="m424.794 245.671-.064 4.599 12.099.169.064-4.599z"/><path fill="#bdbec2" d="m428.4 245.6-.1 4.6h-3c-.3 0-.5-.3-.5-.6v-3.5c0-.3.3-.5.6-.5zm8.5.8v3.5c0 .3-.3.6-.6.6h-2.2l.1-4.6h2.2c.3-.1.5.1.5.5"/><path fill="#1e1e1c" d="m428.948 228.513-.065 4.599 12.099.169.064-4.599z" opacity=".15"/><path fill="#585857" d="m428.994 224.367-.064 4.599 12.099.169.064-4.599z"/><path fill="#bdbec2" d="m432.6 224.4-.1 4.6h-3c-.3 0-.5-.3-.5-.6v-3.5c0-.3.3-.5.6-.5zm8.5.7v3.5c0 .3-.3.6-.6.6h-2.2l.1-4.6h2.2c.2-.1.5.2.5.5"/><path fill="#1e1e1c" d="m379.364 206.833-.065 4.599 12.099.169.064-4.599z" opacity=".15"/><path fill="#b99b5d" d="m379.41 202.686-.064 4.6 12.099.169.064-4.599z"/><path fill="#bdbec2" d="m383 202.7-.1 4.6h-3c-.3 0-.5-.3-.5-.6v-3.5c0-.3.3-.5.6-.5zm8.5.7v3.5c0 .3-.3.6-.6.6h-2.2l.1-4.6h2.2c.2-.1.5.2.5.5"/><path fill="#1e1e1c" d="m375.165 215.214-.064 4.6 12.098.169.065-4.6z" opacity=".15"/><path fill="#b99b5d" d="m375.112 211.067-.065 4.599 12.099.169.064-4.599z"/><path fill="#bdbec2" d="m378.7 211.1-.1 4.6h-3c-.3 0-.5-.3-.5-.6v-3.5c0-.3.3-.5.6-.5zm8.5.7v3.5c0 .3-.3.6-.6.6h-2.2l.1-4.6h2.2c.3 0 .5.2.5.5"/><path fill="#1e1e1c" d="m361.266 206.319-.065 4.599 12.099.169.064-4.599z" opacity=".15"/><path fill="#b99b5d" d="m361.212 202.171-.064 4.6 12.099.169.064-4.6z"/><path fill="#bdbec2" d="m364.8 202.2-.1 4.6h-3c-.3 0-.5-.3-.5-.6v-3.5c0-.3.3-.5.6-.5zm8.5.7v3.5c0 .3-.3.6-.6.6h-2.2l.1-4.6h2.2c.3 0 .5.2.5.5"/><path fill="#1e1e1c" d="M375.2 251.2v2c0 .7-.6 1.3-1.3 1.3l-9.5-.1c-.7 0-1.3-.6-1.3-1.3v-2c0-.7.6-1.3 1.3-1.3l9.5.1c.7-.1 1.3.5 1.3 1.3" opacity=".15"/><path fill="#b99b5d" d="M375.2 247v2c0 .7-.6 1.3-1.3 1.3l-9.5-.1c-.7 0-1.3-.6-1.3-1.3v-2c0-.7.6-1.3 1.3-1.3l9.5.1c.7 0 1.3.6 1.3 1.3"/><path fill="#bdbec2" d="m366.6 245.6-.1 4.6h-3c-.3 0-.5-.3-.5-.6v-3.5c0-.3.3-.5.6-.5zm8.6.7v3.5c0 .3-.3.6-.6.6h-2.2l.1-4.6h2.2c.2-.1.5.2.5.5"/><path fill="#1e1e1c" d="m419.323 197.03-.17 12.099 4.6.064.169-12.098z" opacity=".15"/><path fill="#b99b5d" d="m419.369 192.884-.169 12.099 4.6.064.169-12.098z"/><path fill="#bdbec2" d="m419.2 201.4 4.6.1v3c0 .3-.3.5-.6.5h-3.5c-.3 0-.5-.3-.5-.6zm.7-8.5h3.5c.3 0 .6.3.6.6v2.2l-4.6-.1v-2.2c-.1-.3.2-.5.5-.5"/><path fill="#1e1e1c" d="m390.255 229.373-.169 12.099 4.599.064.169-12.099z" opacity=".15"/><path fill="#b99b5d" d="m390.301 225.227-.169 12.099 4.6.064.169-12.099z"/><path fill="#bdbec2" d="m390.1 233.7 4.6.1v3c0 .3-.3.5-.6.5h-3.5c-.3 0-.5-.3-.5-.6zm.7-8.5h3.5c.3 0 .6.3.6.6v2.2l-4.6-.1v-2.2c0-.2.2-.5.5-.5"/><path fill="#1e1e1c" d="m415.686 160.832-.169 12.099 4.6.064.169-12.099z" opacity=".15"/><path fill="#b99b5d" d="m415.733 156.686-.169 12.099 4.599.064.169-12.099z"/><path fill="#bdbec2" d="m415.6 165.2 4.6.1v3c0 .3-.3.5-.6.5h-3.5c-.3 0-.5-.3-.5-.6zm.7-8.5h3.5c.3 0 .6.3.6.6v2.2l-4.6-.1v-2.2c-.1-.2.2-.5.5-.5"/><path fill="#1e1e1c" d="m396.865 160.81-.169 12.099 4.599.064.169-12.098z" opacity=".15"/><path fill="#b99b5d" d="m396.912 156.664-.169 12.099 4.599.064.169-12.098z"/><path fill="#bdbec2" d="m396.8 165.2 4.6.1v3c0 .3-.3.5-.6.5h-3.5c-.3 0-.5-.3-.5-.6zm.7-8.5h3.5c.3 0 .6.3.6.6v2.2l-4.6-.1v-2.2c-.1-.2.1-.5.5-.5"/><path fill="#1e1e1c" d="m389.339 188.036-.169 12.099 4.6.064.169-12.099z" opacity=".15"/><path fill="#b99b5d" d="m389.286 183.888-.169 12.099 4.599.065.169-12.099z"/><path fill="#bdbec2" d="m389.2 192.4 4.6.1v3c0 .3-.3.5-.6.5h-3.5c-.3 0-.5-.3-.5-.6zm.7-8.5h3.5c.3 0 .6.3.6.6v2.2l-4.6-.1v-2.2c-.1-.3.2-.5.5-.5"/><path fill="#1e1e1c" d="m405.071 191.779-.064 4.599 12.099.169.064-4.599z" opacity=".15"/><path fill="#b99b5d" d="m405.118 187.633-.064 4.599 12.099.169.064-4.599z"/><path fill="#bdbec2" d="m408.7 187.7-.1 4.6h-3c-.3 0-.5-.3-.5-.6v-3.5c0-.3.3-.5.6-.5zm8.5.7v3.5c0 .3-.3.6-.6.6h-2.2l.1-4.6h2.2c.2-.1.5.1.5.5"/><path fill="#1e1e1c" d="m445.203 177.249-.064 4.6 12.099.169.064-4.6z" opacity=".15"/><path fill="#b99b5d" d="m445.25 173.103-.064 4.6 12.098.169.065-4.6z"/><path fill="#bdbec2" d="m448.8 173.1-.1 4.6h-3c-.3 0-.5-.3-.5-.6v-3.5c0-.3.3-.5.6-.5zm8.5.7v3.5c0 .3-.3.6-.6.6h-2.2l.1-4.6h2.2c.3-.1.5.2.5.5"/><path fill="#1e1e1c" d="m439.133 167.574-.064 4.599 12.099.169.064-4.599z" opacity=".15"/><path fill="#b99b5d" d="m439.18 163.427-.064 4.6 12.098.169.065-4.599z"/><path fill="#bdbec2" d="m442.7 163.5-.1 4.6h-3c-.3 0-.5-.3-.5-.6V164c0-.3.3-.5.6-.5zm8.6.7v3.5c0 .3-.3.6-.6.6h-2.2l.1-4.6h2.2c.2-.1.5.2.5.5"/><path fill="#1e1e1c" d="m437.506 154.88-.099 7.1 18.498.258.099-7.099z" opacity=".15"/><path fill="#b99b5d" d="m437.553 150.734-.099 7.1 18.498.258.099-7.099z"/><path fill="#bdbec2" d="m443 150.8-.1 7.1-4.6-.1c-.5 0-.8-.4-.8-.9l.1-5.4c0-.5.4-.8.9-.8zm13 1.1-.1 5.3c0 .5-.4.9-.9.9h-3.4l.1-7.1h3.4c.5 0 .9.4.9.9"/><path fill="#1e1e1c" d="m595.365 275.344-.555 39.696 15.198.212.555-39.696z" opacity=".15"/><path fill="#b99b5d" d="m595.411 271.198-.554 39.696 15.198.212.555-39.696z"/><path fill="#bdbec2" d="m610.4 283.2-15.2-.2.1-9.9c0-1 .8-1.8 1.8-1.8l11.6.2c1 0 1.8.8 1.8 1.8zm-2.3 27.9-11.3-.2c-1.1 0-1.9-.9-1.9-2l.1-7.3 15.2.2-.1 7.3c-.1 1.2-.9 2-2 2"/><path fill="#1e1e1c" d="m524.004 368.47-.472 33.796 12.899.18.472-33.796z" opacity=".15"/><path fill="#b99b5d" d="m524.051 364.323-.472 33.797 12.898.18.473-33.796z"/><path fill="#bdbec2" d="m523.7 388.1 12.9.2-.1 8.4c0 .9-.7 1.5-1.6 1.5l-9.9-.1c-.9 0-1.5-.7-1.5-1.6zm2-23.8 9.7.1c.9 0 1.6.8 1.6 1.7l-.1 6.2-12.9-.2.1-6.2c-.1-.9.7-1.6 1.6-1.6"/><path fill="#1e1e1c" d="m520.119 407.836-.18 12.898 33.796.473.181-12.899z" opacity=".15"/><path fill="#b99b5d" d="m520.166 403.689-.181 12.899 33.797.472.18-12.898z"/><path fill="#bdbec2" d="m543.8 416.9.2-12.9 8.4.1c.9 0 1.5.7 1.5 1.6l-.1 9.9c0 .9-.7 1.5-1.6 1.5zM520 415l.1-9.7c0-.9.8-1.6 1.7-1.6l6.2.1-.2 12.9-6.2-.1c-.9 0-1.6-.7-1.6-1.6"/><path fill="#1e1e1c" d="m401.833 234.308-.064 4.599 12.098.169.065-4.599z" opacity=".15"/><path fill="#b99b5d" d="m401.88 230.162-.065 4.599 12.099.169.064-4.599z"/><path fill="#bdbec2" d="m405.5 230.2-.1 4.6h-3c-.3 0-.5-.3-.5-.6v-3.5c0-.3.3-.5.6-.5zm8.5.7v3.5c0 .3-.3.6-.6.6h-2.2l.1-4.6h2.2c.2-.1.5.2.5.5"/><path fill="#1e1e1c" d="m436.332 201.717-.169 12.099 4.6.065.169-12.099z" opacity=".15"/><path fill="#b99b5d" d="m436.379 197.571-.169 12.099 4.599.065.169-12.099z"/><path fill="#bdbec2" d="m436.2 206 4.6.1v3c0 .3-.3.5-.6.5h-3.5c-.3 0-.5-.3-.5-.6zm.8-8.5h3.5c.3 0 .6.3.6.6v2.2l-4.6-.1V198c-.1-.2.1-.5.5-.5"/><path fill="#b99b5d" stroke="#3d3d3b" stroke-miterlimit="10" stroke-width="1.185" d="M502.527 337.825v-3.6h-9.5v3.6z"/><path fill="#bdbec2" d="M499.7 337.9v-3.6h2.4c.2 0 .4.2.4.4v2.8c0 .2-.2.4-.4.4zm-6.7-.5v-2.7c0-.3.2-.5.5-.5h1.8v3.6h-1.8c-.3.1-.5-.1-.5-.4"/><path fill="#585857" stroke="#3d3d3b" stroke-miterlimit="10" stroke-width="1.044" d="M502.565 345.563v-3.6h-9.5v3.6z"/><path fill="#bdbec2" d="M499.7 345.6V342h2.4c.2 0 .4.2.4.4v2.8c0 .2-.2.4-.4.4zm-6.7-.4v-2.7c0-.3.2-.5.5-.5h1.8v3.6h-1.8c-.3 0-.5-.2-.5-.4"/><path fill="#585857" stroke="#3d3d3b" stroke-miterlimit="10" stroke-width="1.044" d="M502.489 353.486v-3.6h-9.5v3.6z"/><path fill="#bdbec2" d="M499.7 353.6V350h2.4c.2 0 .4.2.4.4v2.8c0 .2-.2.4-.4.4zm-6.7-.5v-2.7c0-.3.2-.5.5-.5h1.8v3.6h-1.8c-.3.1-.5-.1-.5-.4"/><path fill="#585857" stroke="#3d3d3b" stroke-miterlimit="10" stroke-width="1.044" d="M534.393 344.54v-3.6h-9.5v3.6z"/><path fill="#bdbec2" d="M531.6 344.5v-3.6h2.4c.2 0 .4.2.4.4v2.8c0 .2-.2.4-.4.4zm-6.7-.4v-2.7c0-.3.2-.5.5-.5h1.8v3.6h-1.8c-.3 0-.5-.2-.5-.4"/><path fill="#585857" stroke="#3d3d3b" stroke-miterlimit="10" stroke-width="1.044" d="M534.417 352.464v-3.6h-9.5v3.6z"/><path fill="#bdbec2" d="M531.6 352.5v-3.6h2.4c.2 0 .4.2.4.4v2.8c0 .2-.2.4-.4.4zm-6.7-.5v-2.7c0-.3.2-.5.5-.5h1.8v3.6h-1.8c-.3.1-.5-.1-.5-.4"/><path fill="#585857" stroke="#3d3d3b" stroke-miterlimit="10" stroke-width="1.185" d="M447.041 388.976h4.1v-10.8h-4.1z"/><path fill="#bdbec2" d="M447 385.8h4.1v2.7c0 .3-.2.5-.5.5h-3.2c-.3 0-.5-.2-.5-.5v-2.7zm.5-7.6h3.1c.3 0 .5.2.5.5v2H447v-2c0-.3.2-.5.5-.5m72.187-37.734v-9.6h-2.7v9.6zm-5.332.032v-9.6h-2.7v9.6zm-4.876-.024v-9.6h-2.7v9.6zm-44.976 11.463v-9.6h-2.7v9.6zm-15.482-.018v-9.6h-2.7v9.6zm8.113 16.522v-9.6h-2.7v9.6zm62.514-11.914v-9.6h-2.7v9.6zm-5.331.032v-9.6h-2.7v9.6zm-4.877-.024v-9.6h-2.7v9.6z"/><g opacity=".15"><path fill="#1e1e1c" d="M505.4 351.7v-6.8c0-.4.4-.8.8-.8h14c.4 0 .8.4.8.8v6.8c0 .4-.4.8-.8.8h-14c-.4 0-.8-.4-.8-.8" opacity=".15"/><path stroke="#1e1e1c" stroke-miterlimit="10" stroke-width="1.134" d="M505.4 351.7v-6.8c0-.4.4-.8.8-.8h14c.4 0 .8.4.8.8v6.8c0 .4-.4.8-.8.8h-14c-.4 0-.8-.4-.8-.8z" opacity=".15"/></g><path fill="#70706f" d="M505.4 347.6v-6.8c0-.4.4-.8.8-.8h14c.4 0 .8.4.8.8v6.8c0 .4-.4.8-.8.8h-14c-.4 0-.8-.4-.8-.8"/><path stroke="#585857" stroke-miterlimit="10" stroke-width="1.134" d="M505.4 347.6v-6.8c0-.4.4-.8.8-.8h14c.4 0 .8.4.8.8v6.8c0 .4-.4.8-.8.8h-14c-.4 0-.8-.4-.8-.8z"/><g opacity=".15"><path fill="#1e1e1c" d="M445.6 362.7v-6.5c0-.5.4-.9.9-.9h19.3c.5 0 .9.4.9.9v6.5c0 .5-.4.9-.9.9h-19.3c-.5 0-.9-.4-.9-.9" opacity=".15"/><path stroke="#1e1e1c" stroke-miterlimit="10" stroke-width="1.319" d="M445.6 362.7v-6.5c0-.5.4-.9.9-.9h19.3c.5 0 .9.4.9.9v6.5c0 .5-.4.9-.9.9h-19.3c-.5 0-.9-.4-.9-.9z" opacity=".15"/></g><path fill="#70706f" d="M445.6 358.6V352c0-.5.4-.9.9-.9h19.3c.5 0 .9.4.9.9v6.5c0 .5-.4.9-.9.9h-19.3c-.5.1-.9-.3-.9-.8"/><path stroke="#585857" stroke-miterlimit="10" stroke-width="1.319" d="M445.6 358.6V352c0-.5.4-.9.9-.9h19.3c.5 0 .9.4.9.9v6.5c0 .5-.4.9-.9.9h-19.3c-.5.1-.9-.3-.9-.8z"/><path fill="#c7c7c6" d="M145.921 201.747v-3h-1.4v3zm-2.717.017v-3h-1.4v3zm-2.474-.026v-3h-1.1v3zm-2.296-.004v-3h-1.3v3zm-2.297-.003v-3h-1.3v3zm-2.273-.027v-3h-1.3v3zm12.074 14.859v-3h-1.4v3zm-2.718.017v-3h-1.4v3zm-2.473-.026v-3h-1.1v3zm-2.296-.004v-3h-1.3v3zm-2.298-.003v-3h-1.3v3zm-2.272-.027v-3h-1.3v3zm12.13-3.348h3.5v-1.2h-3.5zm0-2.281h3.5v-1.2h-3.5zm0-2.034h3.5v-.9h-3.5zm0-1.939h3.5v-1.1h-3.5zm0-1.973h3.5v-1.1h-3.5zm0-1.932h3.5v-1.1h-3.5zm-17.652 10.159h3.5v-1.2h-3.5zm0-2.281h3.5v-1.2h-3.5zm0-2.034h3.5v-.9h-3.5zm0-1.939h3.5v-1.1h-3.5zm0-1.973h3.5v-1.1h-3.5zm0-1.932h3.5v-1.1h-3.5z"/><g opacity=".15"><path fill="#1e1e1c" d="M131.4 217v-10.5c0-.6.5-1.1 1.1-1.1h12.9c.6 0 1.1.5 1.1 1.1V217c0 .6-.5 1.1-1.1 1.1h-12.9c-.6-.1-1.1-.5-1.1-1.1" opacity=".15"/><path stroke="#1e1e1c" stroke-miterlimit="10" stroke-width="1.185" d="M131.4 217v-10.5c0-.6.5-1.1 1.1-1.1h12.9c.6 0 1.1.5 1.1 1.1V217c0 .6-.5 1.1-1.1 1.1h-12.9c-.6-.1-1.1-.5-1.1-1.1z" opacity=".15"/></g><path fill="#585857" d="M131.4 212.8v-10.5c0-.6.5-1.1 1.1-1.1h12.9c.6 0 1.1.5 1.1 1.1v10.5c0 .6-.5 1.1-1.1 1.1h-12.9c-.6 0-1.1-.5-1.1-1.1"/><path stroke="#3d3d3b" stroke-miterlimit="10" stroke-width="1.185" d="M131.4 212.8v-10.5c0-.6.5-1.1 1.1-1.1h12.9c.6 0 1.1.5 1.1 1.1v10.5c0 .6-.5 1.1-1.1 1.1h-12.9c-.6 0-1.1-.5-1.1-1.1z"/><path fill="#b99b5d" stroke="#3d3d3b" stroke-miterlimit="10" stroke-width="1.185" d="M128.025 221.184v-4.1h-10.8v4.1z"/><path fill="#bdbec2" d="M124.8 221.2V217h2.7c.3 0 .5.2.5.5v3.2c0 .3-.2.5-.5.5zm-7.6-.6v-3.1c0-.3.2-.5.5-.5h2v4.1h-2c-.3.1-.5-.2-.5-.5m191.1 142v1.9c0 .5.4.9.9.9h.7c.5 0 .9-.4.9-.9v-1.9c0-.5-.4-.9-.9-.9h-.7c-.5 0-.9.4-.9.9m3.3 0v1.9c0 .5.4.9.9.9h.7c.5 0 .9-.4.9-.9v-1.9c0-.5-.4-.9-.9-.9h-.7c-.4 0-.9.4-.9.9m-3.3 10.7v2.9c0 .5.4.9.9.9h.8c.5 0 .9-.4.9-.9v-2.9zm3.3 0v2.9c0 .5.4.9.9.9h.8c.5 0 .9-.4.9-.9v-2.9z"/><g opacity=".15"><path fill="#1e1e1c" d="M307.4 369.1v8.7c0 .5.4.9.9.9h5.6c.5 0 .9-.4.9-.9v-8.7c0-.5-.4-.9-.9-.9h-5.6c-.4-.1-.9.4-.9.9" opacity=".15"/><path stroke="#1e1e1c" stroke-miterlimit="10" stroke-width="1.221" d="M307.4 369.1v8.7c0 .5.4.9.9.9h5.6c.5 0 .9-.4.9-.9v-8.7c0-.5-.4-.9-.9-.9h-5.6c-.4-.1-.9.4-.9.9z" opacity=".15"/></g><path fill="#70706f" d="M307.4 364.9v8.7c0 .5.4.9.9.9h5.6c.5 0 .9-.4.9-.9v-8.7c0-.5-.4-.9-.9-.9h-5.6c-.4 0-.9.4-.9.9"/><path stroke="#585857" stroke-miterlimit="10" stroke-width="1.221" d="M307.4 364.9v8.7c0 .5.4.9.9.9h5.6c.5 0 .9-.4.9-.9v-8.7c0-.5-.4-.9-.9-.9h-5.6c-.4 0-.9.4-.9.9z"/><path fill="#bdbec2" d="M320.2 362.6v1.9c0 .5.4.9.9.9h.7c.5 0 .9-.4.9-.9v-1.9c0-.5-.4-.9-.9-.9h-.7c-.5 0-.9.4-.9.9m3.3 0v1.9c0 .5.4.9.9.9h.7c.5 0 .9-.4.9-.9v-1.9c0-.5-.4-.9-.9-.9h-.7c-.5 0-.9.4-.9.9m-3.3 10.7v2.9c0 .5.4.9.9.9h.8c.5 0 .9-.4.9-.9v-2.9zm3.3 0v2.9c0 .5.4.9.9.9h.8c.5 0 .9-.4.9-.9v-2.9z"/><g opacity=".15"><path fill="#1e1e1c" d="M319.3 369.1v8.7c0 .5.4.9.9.9h5.6c.5 0 .9-.4.9-.9v-8.7c0-.5-.4-.9-.9-.9h-5.6c-.5-.1-.9.4-.9.9" opacity=".15"/><path stroke="#1e1e1c" stroke-miterlimit="10" stroke-width="1.221" d="M319.3 369.1v8.7c0 .5.4.9.9.9h5.6c.5 0 .9-.4.9-.9v-8.7c0-.5-.4-.9-.9-.9h-5.6c-.5-.1-.9.4-.9.9z" opacity=".15"/></g><path fill="#70706f" d="M319.3 364.9v8.7c0 .5.4.9.9.9h5.6c.5 0 .9-.4.9-.9v-8.7c0-.5-.4-.9-.9-.9h-5.6c-.5 0-.9.4-.9.9"/><path stroke="#585857" stroke-miterlimit="10" stroke-width="1.221" d="M319.3 364.9v8.7c0 .5.4.9.9.9h5.6c.5 0 .9-.4.9-.9v-8.7c0-.5-.4-.9-.9-.9h-5.6c-.5 0-.9.4-.9.9z"/><path fill="#bdbec2" d="M344.3 362.6v1.9c0 .5.4.9.9.9h.7c.5 0 .9-.4.9-.9v-1.9c0-.5-.4-.9-.9-.9h-.7c-.5 0-.9.4-.9.9m3.3 0v1.9c0 .5.4.9.9.9h.7c.5 0 .9-.4.9-.9v-1.9c0-.5-.4-.9-.9-.9h-.7c-.5 0-.9.4-.9.9m-3.3 10.7v2.9c0 .5.4.9.9.9h.8c.5 0 .9-.4.9-.9v-2.9zm3.3 0v2.9c0 .5.4.9.9.9h.8c.5 0 .9-.4.9-.9v-2.9z"/><g opacity=".15"><path fill="#1e1e1c" d="M343.4 369.1v8.7c0 .5.4.9.9.9h5.6c.5 0 .9-.4.9-.9v-8.7c0-.5-.4-.9-.9-.9h-5.6c-.5-.1-.9.4-.9.9" opacity=".15"/><path stroke="#1e1e1c" stroke-miterlimit="10" stroke-width="1.221" d="M343.4 369.1v8.7c0 .5.4.9.9.9h5.6c.5 0 .9-.4.9-.9v-8.7c0-.5-.4-.9-.9-.9h-5.6c-.5-.1-.9.4-.9.9z" opacity=".15"/></g><path fill="#70706f" d="M343.4 364.9v8.7c0 .5.4.9.9.9h5.6c.5 0 .9-.4.9-.9v-8.7c0-.5-.4-.9-.9-.9h-5.6c-.5 0-.9.4-.9.9"/><path stroke="#585857" stroke-miterlimit="10" stroke-width="1.221" d="M343.4 364.9v8.7c0 .5.4.9.9.9h5.6c.5 0 .9-.4.9-.9v-8.7c0-.5-.4-.9-.9-.9h-5.6c-.5 0-.9.4-.9.9z"/><path fill="#bdbec2" d="M332 362.6v1.9c0 .5.4.9.9.9h.7c.5 0 .9-.4.9-.9v-1.9c0-.5-.4-.9-.9-.9h-.7c-.5 0-.9.4-.9.9m3.3 0v1.9c0 .5.4.9.9.9h.7c.5 0 .9-.4.9-.9v-1.9c0-.5-.4-.9-.9-.9h-.7c-.4 0-.9.4-.9.9m-3.3 10.7v2.9c0 .5.4.9.9.9h.8c.5 0 .9-.4.9-.9v-2.9zm3.3 0v2.9c0 .5.4.9.9.9h.8c.5 0 .9-.4.9-.9v-2.9z"/><g opacity=".15"><path fill="#1e1e1c" d="M331.2 369.1v8.7c0 .5.4.9.9.9h5.6c.5 0 .9-.4.9-.9v-8.7c0-.5-.4-.9-.9-.9h-5.6c-.5-.1-.9.4-.9.9" opacity=".15"/><path stroke="#1e1e1c" stroke-miterlimit="10" stroke-width="1.221" d="M331.2 369.1v8.7c0 .5.4.9.9.9h5.6c.5 0 .9-.4.9-.9v-8.7c0-.5-.4-.9-.9-.9h-5.6c-.5-.1-.9.4-.9.9z" opacity=".15"/></g><path fill="#70706f" d="M331.2 364.9v8.7c0 .5.4.9.9.9h5.6c.5 0 .9-.4.9-.9v-8.7c0-.5-.4-.9-.9-.9h-5.6c-.5 0-.9.4-.9.9"/><path stroke="#585857" stroke-miterlimit="10" stroke-width="1.221" d="M331.2 364.9v8.7c0 .5.4.9.9.9h5.6c.5 0 .9-.4.9-.9v-8.7c0-.5-.4-.9-.9-.9h-5.6c-.5 0-.9.4-.9.9z"/><path fill="#1e1e1c" d="M91.1 344.192v-183.8H60.6v183.8zm643.272 120.835v-140.1h-153.3v140.1z" opacity=".2"/><path fill="url(#g)" d="M594.7 458.3V325.2h174.6v133.1z"/><path stroke="#9c9b9b" stroke-miterlimit="10" stroke-width="1.463" d="M594.7 458.3V325.2h174.6v133.1z"/><path fill="#1e1e1c" d="M736.611 312.079v-122.6h-121v122.6zm-.072-138.272v-122.6h-121v122.6z" opacity=".2"/><path fill="url(#h)" d="M769.3 52H628.5v107.5h140.8z"/><path stroke="#9c9b9b" stroke-miterlimit="10" stroke-width="1.463" d="M769.3 52H628.5v107.5h140.8z"/><path fill="#5b5a5d" d="M708.3 94.5c0-1 .7-1.9 1.8-2.2l39.9-8.9c.7-.1 1.2-.8 1.2-1.5v-4.7c0-.8-.6-1.4-1.3-1.5l-39.7-6.2c-1.2-.2-2-1.3-1.9-2.5.2-1.2 1.3-2 2.5-1.9l44.7 6.2c2.9.4 5.1 2.9 5.1 5.9v4.7c0 2.8-2 5.3-4.8 5.8l-44.9 8.9c-1.2.2-2.3-.5-2.6-1.7zm0 49.4c0-1 .7-1.9 1.8-2.2l39.9-8.9c.7-.1 1.2-.8 1.2-1.5v-4.7c0-.8-.6-1.4-1.3-1.5l-39.7-6.2c-1.2-.2-2-1.3-1.9-2.5.2-1.2 1.3-2 2.5-1.9l44.7 6.2c2.9.4 5.1 2.9 5.1 5.9v4.7c0 2.8-2 5.3-4.8 5.8l-44.9 8.9c-1.2.2-2.3-.5-2.6-1.7z" opacity=".7"/><path fill="url(#i)" d="M628.5 297.1V189.6h140.8v107.5z"/><path stroke="#9c9b9b" stroke-miterlimit="10" stroke-width="1.463" d="M628.5 297.1V189.6h140.8v107.5z"/><path fill="#5b5a5d" d="M708.3 232.3c0-1 .7-1.9 1.8-2.2l39.9-8.9c.7-.1 1.2-.8 1.2-1.5V215c0-.8-.6-1.4-1.3-1.5l-39.7-6.2c-1.2-.2-2-1.3-1.9-2.5.2-1.2 1.3-2 2.5-1.9l44.7 6.2c2.9.4 5.1 2.9 5.1 5.9v4.7c0 2.8-2 5.3-4.8 5.8l-44.9 8.9c-1.2.2-2.3-.5-2.6-1.7zm0 49.4c0-1 .7-1.9 1.8-2.1l39.9-8.9c.7-.1 1.2-.8 1.2-1.5v-4.7c0-.8-.6-1.4-1.3-1.5l-39.7-6.2c-1.2-.2-2-1.3-1.9-2.5.2-1.2 1.3-2 2.5-1.9l44.7 6.2c2.9.4 5.1 2.9 5.1 5.9v4.7c0 2.8-2 5.3-4.8 5.8l-44.9 8.9c-1.2.2-2.3-.5-2.6-1.7z" opacity=".7"/><g opacity=".15"><path fill="#1e1e1c" d="M578.7 262.8h-4.1v10.8h4.1z" opacity=".15"/><path stroke="#1e1e1c" stroke-miterlimit="10" stroke-width="1.185" d="M578.7 262.8h-4.1v10.8h4.1z" opacity=".15"/></g><path fill="#585857" d="M578.7 258.7h-4.1v10.8h4.1z"/><path stroke="#3d3d3b" stroke-miterlimit="10" stroke-width="1.185" d="M578.7 258.7h-4.1v10.8h4.1z"/><path fill="#bdbec2" d="M574.6 266.3h4.1v2.7c0 .3-.2.5-.5.5H575c-.3 0-.5-.2-.5-.5v-2.7zm.5-7.6h3.1c.3 0 .5.2.5.5v2h-4.1v-2c0-.3.2-.5.5-.5"/><g opacity=".15"><path fill="#1e1e1c" d="M566.6 262.8h-4.1v10.8h4.1z" opacity=".15"/><path stroke="#1e1e1c" stroke-miterlimit="10" stroke-width="1.185" d="M566.6 262.8h-4.1v10.8h4.1z" opacity=".15"/></g><path fill="#585857" d="M566.6 258.7h-4.1v10.8h4.1z"/><path stroke="#3d3d3b" stroke-miterlimit="10" stroke-width="1.185" d="M566.6 258.7h-4.1v10.8h4.1z"/><path fill="#bdbec2" d="M562.5 266.3h4.1v2.7c0 .3-.2.5-.5.5H563c-.3 0-.5-.2-.5-.5zm.5-7.6h3.1c.3 0 .5.2.5.5v2h-4.1v-2c0-.3.2-.5.5-.5"/><g opacity=".15"><path fill="#1e1e1c" d="M554.5 262.8h-4.1v10.8h4.1z" opacity=".15"/><path stroke="#1e1e1c" stroke-miterlimit="10" stroke-width="1.185" d="M554.5 262.8h-4.1v10.8h4.1z" opacity=".15"/></g><path fill="#585857" d="M554.5 258.7h-4.1v10.8h4.1z"/><path stroke="#3d3d3b" stroke-miterlimit="10" stroke-width="1.185" d="M554.5 258.7h-4.1v10.8h4.1z"/><path fill="#bdbec2" d="M550.4 266.3h4.1v2.7c0 .3-.2.5-.5.5h-3.2c-.3 0-.5-.2-.5-.5v-2.7zm.5-7.6h3.1c.3 0 .5.2.5.5v2h-4.1v-2c0-.3.2-.5.5-.5"/><g opacity=".15"><path fill="#1e1e1c" d="M541.9 262.8h-4.1v10.8h4.1z" opacity=".15"/><path stroke="#1e1e1c" stroke-miterlimit="10" stroke-width="1.185" d="M541.9 262.8h-4.1v10.8h4.1z" opacity=".15"/></g><path fill="#585857" d="M541.9 258.7h-4.1v10.8h4.1z"/><path stroke="#3d3d3b" stroke-miterlimit="10" stroke-width="1.185" d="M541.9 258.7h-4.1v10.8h4.1z"/><path fill="#bdbec2" d="M537.8 266.3h4.1v2.7c0 .3-.2.5-.5.5h-3.2c-.3 0-.5-.2-.5-.5v-2.7zm.5-7.6h3.1c.3 0 .5.2.5.5v2h-4.1v-2c0-.3.2-.5.5-.5"/><g opacity=".15"><path fill="#1e1e1c" d="M503.1 365.7h-10.8v4.1h10.8z" opacity=".15"/><path stroke="#1e1e1c" stroke-miterlimit="10" stroke-width="1.185" d="M503.1 365.7h-10.8v4.1h10.8z" opacity=".15"/></g><path fill="#585857" d="M503.1 361.5h-10.8v4.1h10.8z"/><path stroke="#3d3d3b" stroke-miterlimit="10" stroke-width="1.185" d="M503.1 361.5h-10.8v4.1h10.8z"/><path fill="#bdbec2" d="M500 365.7v-4.1h2.7c.3 0 .5.2.5.5v3.2c0 .3-.2.5-.5.5H500zm-7.7-.6V362c0-.3.2-.5.5-.5h2v4.1h-2c-.2.1-.5-.2-.5-.5"/><g opacity=".15"><path fill="#1e1e1c" d="M503.1 372.7h-10.8v4.1h10.8z" opacity=".15"/><path stroke="#1e1e1c" stroke-miterlimit="10" stroke-width="1.185" d="M503.1 372.7h-10.8v4.1h10.8z" opacity=".15"/></g><path fill="#585857" d="M503.1 368.6h-10.8v4.1h10.8z"/><path stroke="#3d3d3b" stroke-miterlimit="10" stroke-width="1.185" d="M503.1 368.6h-10.8v4.1h10.8z"/><path fill="#bdbec2" d="M500 372.7v-4.1h2.7c.3 0 .5.2.5.5v3.2c0 .3-.2.5-.5.5H500zm-7.7-.5v-3.1c0-.3.2-.5.5-.5h2v4.1h-2c-.2 0-.5-.2-.5-.5"/><g opacity=".15"><path fill="#1e1e1c" d="M525.2 192.1h-9v3.4h9z" opacity=".15"/><path stroke="#1e1e1c" stroke-miterlimit="10" stroke-width=".981" d="M525.2 192.1h-9v3.4h9z" opacity=".15"/></g><path fill="#585857" d="M525.2 188.7h-9v3.4h9z"/><path stroke="#3d3d3b" stroke-miterlimit="10" stroke-width=".981" d="M525.2 188.7h-9v3.4h9z"/><path fill="#bdbec2" d="M522.5 192.1v-3.4h2.2c.2 0 .4.2.4.4v2.6c0 .2-.2.4-.4.4zm-6.3-.4v-2.6c0-.2.2-.4.4-.4h1.6v3.4h-1.6c-.2 0-.4-.2-.4-.4"/><g opacity=".15"><path fill="#1e1e1c" d="M525.2 210.9h-9v3.4h9z" opacity=".15"/><path stroke="#1e1e1c" stroke-miterlimit="10" stroke-width=".981" d="M525.2 210.9h-9v3.4h9z" opacity=".15"/></g><path fill="#585857" d="M525.2 207.4h-9v3.4h9z"/><path stroke="#3d3d3b" stroke-miterlimit="10" stroke-width=".981" d="M525.2 207.4h-9v3.4h9z"/><path fill="#bdbec2" d="M522.5 210.9v-3.4h2.2c.2 0 .4.2.4.4v2.6c0 .2-.2.4-.4.4zm-6.3-.5v-2.6c0-.2.2-.4.4-.4h1.6v3.4h-1.6c-.2.1-.4-.1-.4-.4"/><g opacity=".15"><path fill="#1e1e1c" d="M525.2 222.9h-9v3.4h9z" opacity=".15"/><path stroke="#1e1e1c" stroke-miterlimit="10" stroke-width=".981" d="M525.2 222.9h-9v3.4h9z" opacity=".15"/></g><path fill="#585857" d="M525.2 219.5h-9v3.4h9z"/><path stroke="#3d3d3b" stroke-miterlimit="10" stroke-width=".981" d="M525.2 219.5h-9v3.4h9z"/><path fill="#bdbec2" d="M522.5 222.9v-3.4h2.2c.2 0 .4.2.4.4v2.6c0 .2-.2.4-.4.4zm-6.3-.4v-2.6c0-.2.2-.4.4-.4h1.6v3.4h-1.6c-.2 0-.4-.2-.4-.4"/><g opacity=".15"><path fill="#1e1e1c" d="M513.5 241.7h-9v3.4h9z" opacity=".15"/><path stroke="#1e1e1c" stroke-miterlimit="10" stroke-width=".981" d="M513.5 241.7h-9v3.4h9z" opacity=".15"/></g><path fill="#585857" d="M513.5 238.3h-9v3.4h9z"/><path stroke="#3d3d3b" stroke-miterlimit="10" stroke-width=".981" d="M513.5 238.3h-9v3.4h9z"/><path fill="#bdbec2" d="M510.8 241.7v-3.4h2.2c.2 0 .4.2.4.4v2.6c0 .2-.2.4-.4.4zm-6.3-.5v-2.6c0-.2.2-.4.4-.4h1.6v3.4H505c-.3.1-.5-.1-.5-.4"/><g opacity=".15"><path fill="#1e1e1c" d="M525.2 216.5h-9v3.4h9z" opacity=".15"/><path stroke="#1e1e1c" stroke-miterlimit="10" stroke-width=".981" d="M525.2 216.5h-9v3.4h9z" opacity=".15"/></g><path fill="#b99b5d" d="M525.2 213.1h-9v3.4h9z"/><path stroke="#3d3d3b" stroke-miterlimit="10" stroke-width=".981" d="M525.2 213.1h-9v3.4h9z"/><path fill="#bdbec2" d="M522.5 216.5v-3.4h2.2c.2 0 .4.2.4.4v2.6c0 .2-.2.4-.4.4zm-6.3-.5v-2.6c0-.2.2-.4.4-.4h1.6v3.4h-1.6c-.2.1-.4-.1-.4-.4"/><g opacity=".15"><path fill="#1e1e1c" d="M520.4 228.6h-9v3.4h9z" opacity=".15"/><path stroke="#1e1e1c" stroke-miterlimit="10" stroke-width=".981" d="M520.4 228.6h-9v3.4h9z" opacity=".15"/></g><path fill="#b99b5d" d="M520.4 225.2h-9v3.4h9z"/><path stroke="#3d3d3b" stroke-miterlimit="10" stroke-width=".981" d="M520.4 225.2h-9v3.4h9z"/><path fill="#bdbec2" d="M517.7 228.6v-3.4h2.2c.2 0 .4.2.4.4v2.6c0 .2-.2.4-.4.4zm-6.3-.5v-2.6c0-.2.2-.4.4-.4h1.6v3.4h-1.6c-.2.1-.4-.1-.4-.4"/><g opacity=".15"><path fill="#1e1e1c" d="M520.4 234.4h-9v3.4h9z" opacity=".15"/><path stroke="#1e1e1c" stroke-miterlimit="10" stroke-width=".981" d="M520.4 234.4h-9v3.4h9z" opacity=".15"/></g><path fill="#b99b5d" d="M520.4 231h-9v3.4h9z"/><path stroke="#3d3d3b" stroke-miterlimit="10" stroke-width=".981" d="M520.4 231h-9v3.4h9z"/><path fill="#bdbec2" d="M517.7 234.4V231h2.2c.2 0 .4.2.4.4v2.6c0 .2-.2.4-.4.4zm-6.3-.4v-2.6c0-.2.2-.4.4-.4h1.6v3.4h-1.6c-.2 0-.4-.2-.4-.4"/><g opacity=".15"><path fill="#1e1e1c" d="M525.2 241.7h-9v3.4h9z" opacity=".15"/><path stroke="#1e1e1c" stroke-miterlimit="10" stroke-width=".981" d="M525.2 241.7h-9v3.4h9z" opacity=".15"/></g><path fill="#b99b5d" d="M525.2 238.3h-9v3.4h9z"/><path stroke="#3d3d3b" stroke-miterlimit="10" stroke-width=".981" d="M525.2 238.3h-9v3.4h9z"/><path fill="#bdbec2" d="M522.5 241.7v-3.4h2.2c.2 0 .4.2.4.4v2.6c0 .2-.2.4-.4.4zm-6.3-.5v-2.6c0-.2.2-.4.4-.4h1.6v3.4h-1.6c-.2.1-.4-.1-.4-.4"/><g opacity=".15"><path fill="#1e1e1c" d="M525.2 247.8h-9v3.4h9z" opacity=".15"/><path stroke="#1e1e1c" stroke-miterlimit="10" stroke-width=".981" d="M525.2 247.8h-9v3.4h9z" opacity=".15"/></g><path fill="#b99b5d" d="M525.2 244.4h-9v3.4h9z"/><path stroke="#3d3d3b" stroke-miterlimit="10" stroke-width=".981" d="M525.2 244.4h-9v3.4h9z"/><path fill="#bdbec2" d="M522.5 247.8v-3.4h2.2c.2 0 .4.2.4.4v2.6c0 .2-.2.4-.4.4zm-6.3-.4v-2.6c0-.2.2-.4.4-.4h1.6v3.4h-1.6c-.2 0-.4-.2-.4-.4"/><g opacity=".15"><path fill="#1e1e1c" d="M525.2 254.1h-9v3.4h9z" opacity=".15"/><path stroke="#1e1e1c" stroke-miterlimit="10" stroke-width=".981" d="M525.2 254.1h-9v3.4h9z" opacity=".15"/></g><path fill="#b99b5d" d="M525.2 250.7h-9v3.4h9z"/><path stroke="#3d3d3b" stroke-miterlimit="10" stroke-width=".981" d="M525.2 250.7h-9v3.4h9z"/><path fill="#bdbec2" d="M522.5 254.1v-3.4h2.2c.2 0 .4.2.4.4v2.6c0 .2-.2.4-.4.4zm-6.3-.5V251c0-.2.2-.4.4-.4h1.6v3.4h-1.6c-.2.1-.4-.1-.4-.4"/><g opacity=".15"><path fill="#1e1e1c" d="M519.7 364.7h-10.8v4.1h10.8z" opacity=".15"/><path stroke="#1e1e1c" stroke-miterlimit="10" stroke-width="1.185" d="M519.7 364.7h-10.8v4.1h10.8z" opacity=".15"/></g><path fill="#b99b5d" d="M519.7 360.6h-10.8v4.1h10.8z"/><path stroke="#3d3d3b" stroke-miterlimit="10" stroke-width="1.185" d="M519.7 360.6h-10.8v4.1h10.8z"/><path fill="#bdbec2" d="M516.6 364.7v-4.1h2.7c.3 0 .5.2.5.5v3.2c0 .3-.2.5-.5.5h-2.7zm-7.7-.5v-3.1c0-.3.2-.5.5-.5h2v4.1h-2c-.2 0-.5-.2-.5-.5"/><g opacity=".15"><path fill="#1e1e1c" d="M535.1 336.3h-10.8v4.1h10.8z" opacity=".15"/><path stroke="#1e1e1c" stroke-miterlimit="10" stroke-width="1.185" d="M535.1 336.3h-10.8v4.1h10.8z" opacity=".15"/></g><path fill="#b99b5d" d="M535.1 332.2h-10.8v4.1h10.8z"/><path stroke="#3d3d3b" stroke-miterlimit="10" stroke-width="1.185" d="M535.1 332.2h-10.8v4.1h10.8z"/><path fill="#bdbec2" d="M531.9 336.3v-4.1h2.7c.3 0 .5.2.5.5v3.2c0 .3-.2.5-.5.5h-2.7zm-7.6-.5v-3.1c0-.3.2-.5.5-.5h2v4.1h-2c-.3 0-.5-.2-.5-.5"/><path fill="#1e1e1c" d="M427.976 475.268v-185.2h-33.2v185.2z" opacity=".2"/><path fill="#1e1e1c" d="M478 189.8v6.8c0 1.6-1.3 3-3 3h-23.6c-1.6 0-3-1.3-3-3v-6.8c0-1.6 1.3-3 3-3H475c1.6.1 3 1.4 3 3" opacity=".15"/><path fill="#b99b5d" d="M478 185.7v6.8c0 1.6-1.3 3-3 3h-23.6c-1.6 0-3-1.3-3-3v-6.8c0-1.6 1.3-3 3-3H475c1.6 0 3 1.4 3 3"/><path fill="#bdbec2" d="M457.1 182.7v12.8h-7.3c-.8 0-1.4-.6-1.4-1.4v-9.9c0-.8.6-1.4 1.4-1.4h7.3zm20.9 1.7v9.5c0 .9-.7 1.7-1.7 1.7h-6.4v-12.8h6.4c.9-.1 1.7.7 1.7 1.6m26.268-89.08v-4.9h-10v4.9zm-.087 8.013v-4.9h-10v4.9zm.026 7.527v-4.9h-10v4.9zm-19.726-15.552v-4.9h-10v4.9zm-.087 8.012v-4.9h-10v4.9zm.026 7.527v-4.9h-10v4.9z"/><g opacity=".15"><path fill="#1e1e1c" d="M483.1 114.5V94.3c0-1 .8-1.9 1.9-1.9h8.6c1 0 1.9.8 1.9 1.9v20.2c0 1-.8 1.9-1.9 1.9H485c-1.1 0-1.9-.8-1.9-1.9" opacity=".15"/><path stroke="#1e1e1c" stroke-miterlimit="10" stroke-width="1.134" d="M483.1 114.5V94.3c0-1 .8-1.9 1.9-1.9h8.6c1 0 1.9.8 1.9 1.9v20.2c0 1-.8 1.9-1.9 1.9H485c-1.1 0-1.9-.8-1.9-1.9z" opacity=".15"/></g><path fill="#70706f" d="M483.1 110.4V90.2c0-1 .8-1.9 1.9-1.9h8.6c1 0 1.9.8 1.9 1.9v20.2c0 1-.8 1.9-1.9 1.9H485c-1.1 0-1.9-.9-1.9-1.9"/><path stroke="#585857" stroke-miterlimit="10" stroke-width="1.134" d="M483.1 110.4V90.2c0-1 .8-1.9 1.9-1.9h8.6c1 0 1.9.8 1.9 1.9v20.2c0 1-.8 1.9-1.9 1.9H485c-1.1 0-1.9-.9-1.9-1.9z"/><g opacity=".15"><path fill="#1e1e1c" d="M512.1 107.6H508v10.8h4.1z" opacity=".15"/><path stroke="#1e1e1c" stroke-miterlimit="10" stroke-width="1.185" d="M512.1 107.6H508v10.8h4.1z" opacity=".15"/></g><path fill="#585857" d="M512.1 103.4H508v10.8h4.1z"/><path stroke="#3d3d3b" stroke-miterlimit="10" stroke-width="1.185" d="M512.1 103.4H508v10.8h4.1z"/><path fill="#bdbec2" d="M512.2 106.6H508v-2.7c0-.3.2-.5.5-.5h3.2c.3 0 .5.2.5.5zm-.6 7.6h-3.1c-.3 0-.5-.2-.5-.5v-2h4.1v2c.1.3-.2.5-.5.5"/><g opacity=".15"><path fill="#1e1e1c" d="M583.2 179.6h-4.1v10.8h4.1z" opacity=".15"/><path stroke="#1e1e1c" stroke-miterlimit="10" stroke-width="1.185" d="M583.2 179.6h-4.1v10.8h4.1z" opacity=".15"/></g><path fill="#585857" d="M583.2 175.5h-4.1v10.8h4.1z"/><path stroke="#3d3d3b" stroke-miterlimit="10" stroke-width="1.185" d="M583.2 175.5h-4.1v10.8h4.1z"/><path fill="#bdbec2" d="M579.1 183.1h4.1v2.7c0 .3-.2.5-.5.5h-3.2c-.3 0-.5-.2-.5-.5v-2.7zm.5-7.6h3.1c.3 0 .5.2.5.5v2h-4.1v-2c0-.3.2-.5.5-.5"/><g opacity=".15"><path fill="#1e1e1c" d="M576.8 179.6h-4.1v10.8h4.1z" opacity=".15"/><path stroke="#1e1e1c" stroke-miterlimit="10" stroke-width="1.185" d="M576.8 179.6h-4.1v10.8h4.1z" opacity=".15"/></g><path fill="#585857" d="M576.8 175.5h-4.1v10.8h4.1z"/><path stroke="#3d3d3b" stroke-miterlimit="10" stroke-width="1.185" d="M576.8 175.5h-4.1v10.8h4.1z"/><path fill="#bdbec2" d="M572.7 183.1h4.1v2.7c0 .3-.2.5-.5.5h-3.2c-.3 0-.5-.2-.5-.5v-2.7zm.5-7.6h3.1c.3 0 .5.2.5.5v2h-4.1v-2c0-.3.2-.5.5-.5"/><g opacity=".15"><path fill="#1e1e1c" d="M438.7 103.4h-4.1v10.8h4.1z" opacity=".15"/><path stroke="#1e1e1c" stroke-miterlimit="10" stroke-width="1.185" d="M438.7 103.4h-4.1v10.8h4.1z" opacity=".15"/></g><path fill="#585857" d="M438.7 99.3h-4.1v10.8h4.1z"/><path stroke="#3d3d3b" stroke-miterlimit="10" stroke-width="1.185" d="M438.7 99.3h-4.1v10.8h4.1z"/><path fill="#bdbec2" d="M438.8 102.5h-4.1v-2.7c0-.3.2-.5.5-.5h3.2c.3 0 .5.2.5.5v2.7zm-.5 7.6h-3.1c-.3 0-.5-.2-.5-.5v-2h4.1v2c0 .3-.3.5-.5.5"/><g opacity=".15"><path fill="#1e1e1c" d="M512.3 91.6h-4.1v10.8h4.1z" opacity=".15"/><path stroke="#1e1e1c" stroke-miterlimit="10" stroke-width="1.185" d="M512.3 91.6h-4.1v10.8h4.1z" opacity=".15"/></g><path fill="#b99b5d" d="M512.3 87.5h-4.1v10.8h4.1z"/><path stroke="#3d3d3b" stroke-miterlimit="10" stroke-width="1.185" d="M512.3 87.5h-4.1v10.8h4.1z"/><path fill="#bdbec2" d="M512.4 90.7h-4.1V88c0-.3.2-.5.5-.5h3.2c.3 0 .5.2.5.5v2.7zm-.5 7.6h-3.1c-.3 0-.5-.2-.5-.5v-2h4.1v2c0 .3-.2.5-.5.5"/><g opacity=".15"><path fill="#1e1e1c" d="M469.9 93.2h-4.1V104h4.1z" opacity=".15"/><path stroke="#1e1e1c" stroke-miterlimit="10" stroke-width="1.185" d="M469.9 93.2h-4.1V104h4.1z" opacity=".15"/></g><path fill="#b99b5d" d="M469.9 89.1h-4.1v10.8h4.1z"/><path stroke="#3d3d3b" stroke-miterlimit="10" stroke-width="1.185" d="M469.9 89.1h-4.1v10.8h4.1z"/><path fill="#bdbec2" d="M469.9 92.3h-4.1v-2.7c0-.3.2-.5.5-.5h3.2c.3 0 .5.2.5.5v2.7zm-.5 7.6h-3.1c-.3 0-.5-.2-.5-.5v-2h4.1v2c0 .3-.2.5-.5.5"/><g fill="#c7c7c6"><path d="m402.638 437.538-.005 3.8 18.5.024.005-3.8zm-.019-7.968-.005 3.8 18.5.024.005-3.8zm-.019-8.067-.005 3.8 18.5.024.005-3.8zm.081-7.968-.005 3.8 18.5.025.005-3.8zm-.019-7.967-.005 3.8 18.5.024.005-3.8zm-.019-7.967-.005 3.8 18.5.024.005-3.8zm-.019-7.968-.005 3.8 18.5.024.005-3.8zm.081-7.967-.005 3.8 18.5.024.005-3.8zm-.019-7.968-.005 3.8 18.5.024.005-3.8zm-.019-7.967-.005 3.8 18.5.024.005-3.8zm-.018-7.967-.005 3.8 18.5.024.005-3.8zm.08-7.967-.004 3.799 18.5.025.004-3.8zm-.018-7.968-.005 3.8 18.5.024.005-3.8zm-.02-7.968-.005 3.8 18.5.025.005-3.8zm-.018-7.967-.005 3.8 18.5.025.005-3.8z"/><path d="m419.712 437.511-.005 3.8 18.5.025.005-3.8zm-.019-7.967-.005 3.8 18.5.024.005-3.8zm-.019-7.967-.005 3.8 18.5.024.005-3.8zm.081-7.968-.005 3.8 18.5.024.005-3.8zm-.019-7.967-.005 3.8 18.5.024.005-3.8zm-.019-7.968-.005 3.8 18.5.025.005-3.8zm-.019-8.067-.005 3.8 18.5.024.005-3.8zm.081-7.967-.005 3.8 18.5.024.005-3.8zm-.019-7.968-.005 3.8 18.5.024.005-3.8zm-.019-7.967-.005 3.8 18.5.024.005-3.8zm-.019-7.967-.005 3.8 18.5.024.005-3.8zm.081-7.968-.005 3.8 18.5.024.005-3.8zm-.019-7.967-.005 3.8 18.5.024.005-3.8zm-.019-7.968-.005 3.8 18.5.024.005-3.8zm-.018-7.967-.005 3.8 18.5.024.005-3.8z"/></g><path fill="#1e1e1c" d="M438.499 452.763v-145.1h-23.3v145.1z" opacity=".2"/><path fill="url(#j)" stroke="#3d3d3b" stroke-miterlimit="10" stroke-width="1.463" d="M431.3 291.2h-18.6v30.2h9.3l-.2 124.4h-9.2l-.1 30.2h18.6z"/><path fill="#1e1e1c" d="M210.1 284.7V169.5c0-2 1.6-3.6 3.6-3.6H326c2 0 3.6 1.6 3.6 3.6v115.1c0 2-1.6 3.6-3.6 3.6H213.7c-2 .1-3.6-1.5-3.6-3.5" opacity=".2"/><path fill="#585857" stroke="#3d3d3b" stroke-miterlimit="10" stroke-width="1.185" d="M253.972 158.108h4.1v-10.8h-4.1z"/><path fill="#bdbec2" d="M254 154.9h4.1v2.7c0 .3-.2.5-.5.5h-3.2c-.3 0-.5-.2-.5-.5v-2.7zm.5-7.6h3.1c.3 0 .5.2.5.5v2H254v-2c0-.3.2-.5.5-.5"/><path fill="#585857" stroke="#3d3d3b" stroke-miterlimit="10" stroke-width="1.185" d="M245.549 158.108h4.1v-10.8h-4.1z"/><path fill="#bdbec2" d="M245.6 154.9h4.1v2.7c0 .3-.2.5-.5.5H246c-.3 0-.5-.2-.5-.5v-2.7zm.5-7.6h3.1c.3 0 .5.2.5.5v2h-4.1v-2c0-.3.2-.5.5-.5"/><path fill="#585857" stroke="#3d3d3b" stroke-miterlimit="10" stroke-width="1.185" d="M238.063 158.108h4.1v-10.8h-4.1z"/><path fill="#bdbec2" d="M238 154.9h4.1v2.7c0 .3-.2.5-.5.5h-3.2c-.3 0-.5-.2-.5-.5v-2.7zm.5-7.6h3.1c.3 0 .5.2.5.5v2H238v-2c0-.3.2-.5.5-.5"/><path fill="#585857" stroke="#3d3d3b" stroke-miterlimit="10" stroke-width="1.185" d="M238.063 294.698h4.1v-10.8h-4.1z"/><path fill="#bdbec2" d="M238 291.5h4.1v2.7c0 .3-.2.5-.5.5h-3.2c-.3 0-.5-.2-.5-.5v-2.7zm.5-7.6h3.1c.3 0 .5.2.5.5v2H238v-2c0-.3.2-.5.5-.5"/><path fill="#585857" stroke="#3d3d3b" stroke-miterlimit="10" stroke-width="1.185" d="M233.211 288.151v-4.1h-10.8v4.1z"/><path fill="#bdbec2" d="M230 288.2V284h2.7c.3 0 .5.2.5.5v3.2c0 .3-.2.5-.5.5zm-7.6-.6v-3.1c0-.3.2-.5.5-.5h2v4.1h-2c-.2.1-.5-.2-.5-.5"/><path fill="#585857" stroke="#3d3d3b" stroke-miterlimit="10" stroke-width="1.185" d="M233.242 294.882v-4.1h-10.8v4.1z"/><path fill="#bdbec2" d="M230 294.9v-4.1h2.7c.3 0 .5.2.5.5v3.2c0 .3-.2.5-.5.5H230zm-7.6-.5v-3.1c0-.3.2-.5.5-.5h2v4.1h-2c-.2 0-.5-.3-.5-.5"/><path fill="url(#k)" stroke="#3d3d3b" stroke-miterlimit="10" stroke-width="1.255" d="M531.3 253.4v-59.1h59.1v59.1z"/><path fill="#1e1e1c" d="m405.039 210.611-.064 4.599 12.098.169.065-4.599z" opacity=".15"/><path fill="#b99b5d" d="m405.086 206.465-.065 4.599 12.099.169.064-4.599z"/><path fill="#bdbec2" d="m408.7 206.5-.1 4.6h-3c-.3 0-.5-.3-.5-.6V207c0-.3.3-.5.6-.5zm8.5.7v3.5c0 .3-.3.6-.6.6h-2.2l.1-4.6h2.2c.2-.1.5.2.5.5"/><path fill="#1e1e1c" d="m410.899 178.863-.064 4.6 12.099.169.064-4.6z" opacity=".15"/><path fill="#b99b5d" d="m410.846 174.716-.064 4.599 12.099.169.064-4.599z"/><path fill="#bdbec2" d="m414.5 174.7-.1 4.6h-3c-.3 0-.5-.3-.5-.6v-3.5c0-.3.3-.5.6-.5zm8.5.8v3.5c0 .3-.3.6-.6.6h-2.2l.1-4.6h2.2c.2-.1.5.1.5.5"/><g opacity=".15"><path fill="#1e1e1c" d="M405.8 199.9v5.5c0 .8.7 1.5 1.5 1.5h7.2c.8 0 1.5-.7 1.5-1.5v-5.5c0-.8-.7-1.5-1.5-1.5h-7.2c-.8 0-1.5.6-1.5 1.5" opacity=".15"/><path stroke="#1e1e1c" stroke-miterlimit="10" stroke-width="1.221" d="M405.8 199.9v5.5c0 .8.7 1.5 1.5 1.5h7.2c.8 0 1.5-.7 1.5-1.5v-5.5c0-.8-.7-1.5-1.5-1.5h-7.2c-.8 0-1.5.6-1.5 1.5z" opacity=".15"/></g><path fill="#70706f" d="M405.8 195.7v5.5c0 .8.7 1.5 1.5 1.5h7.2c.8 0 1.5-.7 1.5-1.5v-5.5c0-.8-.7-1.5-1.5-1.5h-7.2c-.8 0-1.5.7-1.5 1.5"/><path stroke="#585857" stroke-miterlimit="10" stroke-width="1.221" d="M405.8 195.7v5.5c0 .8.7 1.5 1.5 1.5h7.2c.8 0 1.5-.7 1.5-1.5v-5.5c0-.8-.7-1.5-1.5-1.5h-7.2c-.8 0-1.5.7-1.5 1.5z"/><path fill="#1e1e1c" d="M392.5 250.7v3.1c0 .4-.3.8-.8.7l-10.6-.1c-.4 0-.8-.3-.7-.8v-3.1c0-.4.3-.8.8-.7l10.6.1c.3.1.7.4.7.8" opacity=".15"/><path fill="#b99b5d" d="M392.5 246.6v3.1c0 .4-.3.8-.8.7l-10.6-.1c-.4 0-.8-.3-.7-.8v-3.1c0-.4.3-.8.8-.7l10.6.1c.3 0 .7.4.7.8"/><path fill="#bdbec2" d="m384 245.7-.1 4.6h-3c-.3 0-.5-.3-.5-.6v-3.5c0-.3.3-.5.6-.5zm8.5.7v3.5c0 .3-.3.6-.6.6h-2.2l.1-4.6h2.2c.2-.1.5.2.5.5"/><path fill="#1e1e1c" d="m418.4 246.9 2.2 2.2c.3.3.3.8 0 1.1l-7.6 7.4c-.3.3-.8.3-1.1 0l-2.2-2.2c-.3-.3-.3-.8 0-1.1l7.6-7.4c.4-.3.9-.3 1.1 0" opacity=".15"/><path fill="#b99b5d" d="m418.4 242.7 2.2 2.2c.3.3.3.8 0 1.1l-7.6 7.4c-.3.3-.8.3-1.1 0l-2.2-2.2c-.3-.3-.3-.8 0-1.1l7.6-7.4c.4-.3.9-.3 1.1 0"/><path fill="#bdbec2" d="m411.8 248.1 3.2 3.3-2.2 2.1c-.2.2-.6.2-.8 0l-2.5-2.5c-.2-.2-.2-.6 0-.8zm6.5-5.5 2.4 2.5c.2.2.2.6 0 .8l-1.6 1.6-3.2-3.3 1.6-1.6c.2-.2.6-.2.8 0"/><path fill="url(#l)" d="M217.6 275.3V170.7c0-3 2.4-5.4 5.4-5.4h104.5c3 0 5.4 2.4 5.4 5.4v104.5c0 3-2.4 5.4-5.4 5.4H223.1c-3 .1-5.5-2.3-5.5-5.3"/><path fill="#9c9b9b" d="M358.5 302.4c4.7 0 4.7-7.3 0-7.3s-4.7 7.3 0 7.3"/><path fill="#1e1e1c" d="M230.3 263.2V186c0-2.6 2.1-4.7 4.7-4.7h77.2c2.6 0 4.7 2.1 4.7 4.7v77.2c0 2.6-2.1 4.7-4.7 4.7H235c-2.6-.1-4.7-2.1-4.7-4.7" opacity=".2"/><path stroke="#868686" stroke-miterlimit="10" stroke-width="1.463" d="M217.6 275.3V170.7c0-3 2.4-5.4 5.4-5.4h104.5c3 0 5.4 2.4 5.4 5.4v104.5c0 3-2.4 5.4-5.4 5.4H223.1c-3 .1-5.5-2.3-5.5-5.3z"/><path fill="#ccc" d="M112.5 177.2V91.7c0-2.1 1.7-3.7 3.7-3.7h62.9c2.1 0 3.7 1.7 3.7 3.7v85.5c0 2.1-1.7 3.7-3.7 3.7h-62.9c-2 0-3.7-1.7-3.7-3.7"/><path stroke="#868686" stroke-miterlimit="10" stroke-width="1.463" d="M112.5 177.2V91.7c0-2.1 1.7-3.7 3.7-3.7h62.9c2.1 0 3.7 1.7 3.7 3.7v85.5c0 2.1-1.7 3.7-3.7 3.7h-62.9c-2 0-3.7-1.7-3.7-3.7z"/><path fill="#ccc" d="M233.9 260.5v-75.1c0-2.2 1.8-3.9 3.9-3.9h75.1c2.2 0 3.9 1.8 3.9 3.9v75.1c0 2.2-1.8 3.9-3.9 3.9h-75.1c-2.2.1-3.9-1.7-3.9-3.9"/><path stroke="#868686" stroke-miterlimit="10" stroke-width="1.463" d="M233.9 260.5v-75.1c0-2.2 1.8-3.9 3.9-3.9h75.1c2.2 0 3.9 1.8 3.9 3.9v75.1c0 2.2-1.8 3.9-3.9 3.9h-75.1c-2.2.1-3.9-1.7-3.9-3.9z"/><path fill="#b2b2b2" d="M137.3 105.9c.6 0 1 .3 1.5.5 1.3-.4 1.5.2 2.2.4 1.4-.3 1.8.3 2.4 1h.8c2.1 1.2 3.1 3.7 3.5 4.9.4-1.3 1.4-3.7 3.5-4.9h.8c.7-.7 1.1-1.3 2.4-1 .6-.2.9-.8 2.2-.4.8-.2 1.5-.9 2.5-.1.9-.3 1.7-.4 2.5.2 1.2-.1 1.6.2 1.8.5.3 0 1.9-.3 2.7.9 1.9-.2 2.5 1.1 1.8 2.4.4.6.8 1.2-.1 2.3.3.6.1 1.3-.6 2.2.2.9-.2 1.5-.9 2 .1 1.2-1.1 1.9-1.5 2.2-.1.7-.5 1.4-1.9 1.8-.2 1.1-1.1 1.2-2 1.5 2.8 1.6 5.2 3.7 5.2 8.9l.4.7c3.2 1.9 6.1 8.1 1.6 13.1-.3 1.6-.8 2.7-1.2 3.9-.7 5-5 7.4-6.1 7.7-1.7 1.2-3.4 2.4-5.8 3.2-2.3 2.3-4.7 3.2-7.2 3.2h-.1c-2.5 0-4.9-.9-7.1-3.2-2.4-.8-4.2-2-5.8-3.3-1.1-.3-5.4-2.6-6.1-7.7-.4-1.2-.9-2.4-1.2-3.9-4.5-5-1.6-11.2 1.6-13.1l.4-.7c0-5.2 2.4-7.3 5.2-8.9-.8-.2-1.7-.4-2-1.5-1.5-.4-1.8-1-1.9-1.8-.4-.3-1.6-1-1.5-2.2-.7-.5-1.1-1.1-.9-2-.8-.8-1-1.5-.6-2.2-.9-1.1-.5-1.7-.1-2.3-.7-1.2-.1-2.6 1.8-2.4.8-1.1 2.4-.9 2.7-.9.3-.4.7-.7 1.8-.5.8-.7 1.6-.6 2.5-.2.2-.2.5-.3.8-.3m-4 5.3c4.3 1.4 8.1 3.3 11.3 6 3.8-1.8 1.2-6.2-.7-8-.1.5-.2.8-.3.8-.6-.6-1.1-1.3-1.9-1.9 0 .4.2.8-.3 1.1-.4-.6-1-1.1-1.7-1.5.4.6.1.8-.1 1.1-.6-.5-1.1-1-2.2-1.4.3.4.7.7.3 1.1-.6-.4-1.2-.7-2.6-1 .3.4 1 .7.6 1.1-.7-.3-1.6-.5-2.5-.6.4.4.8.7.4 1-.8-.2-1.9-.6-2.9-.3l.7.7c.1.1-1.6.1-2.7.1.4.6.8 1.1 1 2-.1.1-.6 0-1.2 0 .5 1.1 1.4 1.4 1.6 1.8-.3.2-.8.2-1.2 0 .4.8 1.2 1.3 1.8 1.9-.2.1-.4.2-1.1.1.6.6 1.3 1.2 2.1 1.7-.1.2-.6.2-1.1.2.7.7 1.7 1.1 2.6 1.6-.4.3-.8.2-1.1.2.6.5 1.7.8 2.7 1.1-.2.3-.4.4-.8.5 1.1.6 2.6.3 3 .6-.1.3-.4.5-.7.6 1.7.1 6.4-.1 7.3-3.6-1.7-1.9-4.8-4.2-10.3-7m29.1 0c-5.5 2.8-8.7 5-10.4 7 .9 3.5 5.6 3.7 7.3 3.6-.3-.2-.6-.4-.7-.6.4-.3 1.9 0 3-.6-.4-.1-.6-.2-.8-.5 1-.3 2.1-.6 2.7-1.1-.3 0-.7.1-1.1-.2.9-.5 1.9-.9 2.6-1.6-.5 0-1 0-1.1-.2.8-.5 1.5-1.1 2.1-1.7-.6.1-.9 0-1.1-.1.6-.6 1.4-1.2 1.8-1.9q-.75.3-1.2 0c.2-.5 1.1-.7 1.6-1.8-.5 0-1 .1-1.2 0 .2-.9.6-1.5 1-2-1.1 0-2.7 0-2.7-.1l.7-.7c-1.1-.3-2.1 0-2.9.3-.4-.3 0-.6.4-1-.9.1-1.7.3-2.5.6-.4-.4.3-.7.6-1-1.4.3-2 .6-2.6 1-.4-.4 0-.7.3-1.1-1.1.4-1.6.9-2.2 1.4-.2-.3-.5-.4-.1-1.1-.7.4-1.3.9-1.7 1.5-.5-.3-.3-.7-.3-1.1-.8.6-1.3 1.3-1.9 1.9-.1-.1-.2-.4-.3-.8-1.9 1.8-4.5 6.2-.7 8 3.3-2.7 7.1-4.6 11.4-6.1m-7.9 36c0-3.3-3-6-6.6-5.9-3.6 0-6.6 2.7-6.5 6v.1c0 3.3 3 6 6.6 5.9 3.5-.1 6.5-2.8 6.5-6.1m-10.4-17c-2.7-1.8-6.7-.6-8.8 2.5-2.1 3.2-1.6 7.1 1.1 8.9s6.7.6 8.8-2.5c2.1-3.2 1.6-7.2-1.1-8.9m7.3-.3c-2.7 1.8-3.2 5.7-1.1 8.9s6 4.3 8.8 2.5c2.7-1.8 3.2-5.7 1.1-8.9s-6-4.3-8.8-2.5M129 144c2.4 1.1 4.4-11.7 1.4-10.9-4.8 2.7-4 8.8-1.4 10.9m35.5-11.1c-2.9-.8-1 12 1.4 10.9 2.6-2 3.4-8.1-1.4-10.9m-.9-2c.2-5.4-4-8.4-9.1-7.6-1.9.4 8.9 9.7 9.1 7.6m-23.2-7.7c-5.1-.9-9.3 2.1-9.1 7.5.2 2.1 11-7.2 9.1-7.5m7.3-1.2c-3-.1-5.9 2.2-6 3.5 0 1.6 2.4 3.3 6 3.3s6-1.3 6-3c.1-1.9-3.3-3.9-6-3.8m.2 33.1c-2.6-.1-6.7 1-6.6 2.4 0 1 3.2 3.7 6.4 3.6 3.2.1 6.4-2.7 6.4-3.9 0-1.3-3.6-2.2-6.2-2.1m-9.8-7.5c-2.2-2.5-5-3.9-6.8-2.9-1.2.9-1.4 4 .3 7.1 2.6 3.6 6.2 4 7.7 3.1 1.6-1.1.7-5.1-1.2-7.3m19.2-.7c-2 2.3-3.2 6.6-1.7 8 1.4 1.1 5.2.9 8-2.9 2-2.6 1.4-6.9.2-8-1.7-1.4-4.2.3-6.5 2.9"/><path fill="#fff" fill-opacity=".9" d="M499.6 124.7c.5 0 .9.3 1.4.4 1.1-.4 1.4.1 1.9.3 1.2-.2 1.6.3 2.1.9h.7c1.8 1.1 2.7 3.2 3 4.3.3-1.1 1.2-3.2 3-4.3h.7c.6-.6.9-1.1 2.1-.9.5-.2.8-.7 1.9-.3.7-.2 1.3-.8 2.2-.1.8-.3 1.5-.4 2.2.2 1-.1 1.4.1 1.6.5.2 0 1.7-.2 2.3.8 1.7-.2 2.2 1 1.6 2.1.3.5.7 1-.1 2 .3.6.1 1.2-.6 1.9.2.8-.2 1.3-.8 1.8.1 1.1-1 1.7-1.3 1.9-.1.6-.4 1.2-1.7 1.5-.2.9-1 1.1-1.7 1.3 2.4 1.4 4.5 3.2 4.5 7.8l.4.6c2.8 1.7 5.3 7.1 1.4 11.4-.3 1.4-.7 2.4-1.1 3.4-.6 4.4-4.3 6.4-5.3 6.7-1.5 1.1-3 2.1-5.1 2.8-2 2-4.1 2.8-6.2 2.8h-.1c-2.1 0-4.3-.8-6.2-2.8-2.1-.7-3.6-1.8-5.1-2.8-1-.2-4.7-2.3-5.3-6.7-.4-1.1-.8-2.1-1.1-3.4-3.9-4.4-1.4-9.8 1.4-11.4l.4-.6c0-4.5 2.1-6.3 4.5-7.7-.7-.2-1.5-.4-1.7-1.3-1.3-.3-1.5-.9-1.7-1.5-.3-.2-1.4-.8-1.3-1.9-.6-.4-1-1-.8-1.8-.7-.7-.8-1.3-.6-1.9-.8-1-.4-1.5-.1-2-.6-1.1-.1-2.3 1.6-2.1.7-1 2.1-.8 2.4-.8.3-.3.6-.6 1.6-.5.7-.6 1.4-.5 2.2-.2.2-.3.5-.4.8-.4m-3.5 4.6c3.7 1.3 7.1 2.9 9.9 5.2 3.3-1.5 1-5.4-.6-7-.1.4-.2.7-.3.7-.5-.6-1-1.1-1.6-1.7 0 .3.2.7-.2.9-.4-.5-.9-.9-1.5-1.3.3.5.1.7-.1.9-.5-.4-1-.9-1.9-1.2.3.3.6.6.2 1-.5-.3-1-.6-2.2-.9.3.3.8.6.5.9-.6-.2-1.4-.4-2.1-.5.4.3.7.6.4.9-.7-.2-1.6-.5-2.6-.3l.6.6c.1.1-1.4.1-2.3.1.3.5.7.9.9 1.8-.1.1-.6 0-1 0 .5 1 1.2 1.2 1.4 1.6-.3.2-.7.2-1.1 0 .3.7 1 1.1 1.6 1.7-.1.1-.4.2-.9.1q.75.75 1.8 1.5c-.1.1-.6.1-1 .1.6.6 1.5 1 2.3 1.4-.4.3-.7.2-1 .2.6.5 1.5.7 2.4 1-.2.3-.3.3-.7.4.9.5 2.3.3 2.6.5-.1.3-.3.4-.7.6 1.5.1 5.6 0 6.4-3.1-1.7-1.7-4.4-3.6-9.2-6.1m25.4 0c-4.8 2.4-7.6 4.4-9.1 6.1.8 3.1 4.9 3.2 6.4 3.2-.3-.1-.6-.3-.7-.6.4-.3 1.7 0 2.6-.5-.4-.1-.5-.1-.7-.4.9-.3 1.8-.5 2.4-1-.3 0-.6.1-1-.2.8-.4 1.6-.7 2.3-1.4-.4 0-.8 0-1-.2q1.05-.6 1.8-1.5c-.6.1-.8 0-.9-.1.5-.5 1.2-1 1.6-1.7-.4.1-.8.2-1.1 0 .2-.4 1-.7 1.4-1.6-.4 0-.9.1-1 0 .2-.8.6-1.3.9-1.8-.9 0-2.4 0-2.3-.1l.6-.6c-.9-.2-1.9 0-2.6.2-.3-.2 0-.5.4-.9-.8.1-1.5.3-2.1.5-.3-.3.2-.6.5-.9-1.2.2-1.7.5-2.2.9-.4-.4 0-.7.2-1-.9.3-1.4.8-1.9 1.2-.2-.2-.4-.4-.1-.9-.7.4-1.1.8-1.5 1.3-.4-.3-.2-.6-.2-.9-.7.5-1.1 1.1-1.6 1.7-.1-.1-.2-.3-.3-.7-1.6 1.5-3.9 5.4-.6 7 2.7-2.2 6.1-3.8 9.8-5.1m-6.9 31.4c0-2.9-2.6-5.2-5.8-5.2s-5.7 2.4-5.7 5.2v.1c0 2.9 2.6 5.2 5.8 5.2 3.1 0 5.7-2.3 5.7-5.3m-9.1-14.8c-2.4-1.5-5.8-.6-7.7 2.2s-1.4 6.2 1 7.8c2.4 1.5 5.8.6 7.7-2.2 1.8-2.8 1.4-6.3-1-7.8m6.4-.3c-2.4 1.5-2.8 5-1 7.8s5.3 3.8 7.7 2.2c2.4-1.5 2.8-5 1-7.8-1.8-2.7-5.3-3.7-7.7-2.2m-19.5 12.3c2.1.9 3.8-10.2 1.2-9.6-4.3 2.5-3.5 7.8-1.2 9.6m30.9-9.6c-2.6-.7-.9 10.5 1.2 9.6 2.3-1.9 3.1-7.2-1.2-9.6m-.7-1.7c.2-4.7-3.5-7.3-8-6.6-1.6.2 7.8 8.4 8 6.6m-20.3-6.8c-4.4-.7-8.1 1.9-8 6.6.2 1.8 9.7-6.3 8-6.6m6.4-1.1c-2.6-.1-5.2 1.9-5.2 3.1 0 1.4 2.1 2.9 5.2 2.9 3.2 0 5.2-1.2 5.2-2.6.1-1.7-2.8-3.4-5.2-3.4m.1 29c-2.3-.1-5.8.9-5.8 2.1 0 .8 2.8 3.3 5.6 3.2 2.8 0 5.6-2.4 5.6-3.4 0-1.2-3.1-2-5.4-1.9m-8.5-6.6c-1.9-2.2-4.3-3.4-5.9-2.5-1.1.8-1.3 3.5.2 6.2 2.2 3.2 5.4 3.5 6.7 2.7 1.4-1 .7-4.4-1-6.4m16.7-.6c-1.8 2.1-2.8 5.8-1.5 7 1.2.9 4.6.8 7-2.5 1.8-2.3 1.2-6 .2-7-1.4-1.2-3.6.3-5.7 2.5"/><path fill="#f3a06a" d="M558.9 144.9v15.4h-15.4v-15.4zm-2.8 7.7c0-2.7-2.2-4.7-4.9-4.7s-4.7 2-4.7 4.7 2 4.7 4.7 4.7 4.9-2 4.9-4.7"/><path stroke="#fff" stroke-miterlimit="10" stroke-width=".888" d="M587.2 143.8v17.8c0 .9-.7 1.6-1.6 1.6h-44.9c-.9 0-1.6-.7-1.6-1.6v-17.8c0-.9.7-1.6 1.6-1.6h44.9c.9-.1 1.6.7 1.6 1.6z"/><path fill="#f3a06a" d="M567.6 152.6c0-4.4 3.6-8 8-8s8 3.6 8 8-3.6 8-8 8-8-3.6-8-8m12.5 0c0-2.5-2-4.5-4.5-4.5s-4.5 2-4.5 4.5 2 4.5 4.5 4.5 4.5-2 4.5-4.5"/><g opacity=".15"><path fill="#1e1e1c" d="M206.3 101.9h-10.8v4.1h10.8z" opacity=".15"/><path stroke="#1e1e1c" stroke-miterlimit="10" stroke-width="1.185" d="M206.3 101.9h-10.8v4.1h10.8z" opacity=".15"/></g><path fill="#585857" d="M206.3 97.8h-10.8v4.1h10.8z"/><path stroke="#3d3d3b" stroke-miterlimit="10" stroke-width="1.185" d="M206.3 97.8h-10.8v4.1h10.8z"/><path fill="#bdbec2" d="M198.7 97.8v4.1H196c-.3 0-.5-.2-.5-.5v-3.2c0-.3.2-.5.5-.5h2.7zm7.7.5v3.1c0 .3-.2.5-.5.5h-2v-4.1h2c.2 0 .5.2.5.5"/><g opacity=".15"><path fill="#1e1e1c" d="M206.3 94.3h-10.8v4.1h10.8z" opacity=".15"/><path stroke="#1e1e1c" stroke-miterlimit="10" stroke-width="1.185" d="M206.3 94.3h-10.8v4.1h10.8z" opacity=".15"/></g><path fill="#585857" d="M206.3 90.1h-10.8v4.1h10.8z"/><path stroke="#3d3d3b" stroke-miterlimit="10" stroke-width="1.185" d="M206.3 90.1h-10.8v4.1h10.8z"/><path fill="#bdbec2" d="M198.7 90.1v4.1H196c-.3 0-.5-.2-.5-.5v-3.2c0-.3.2-.5.5-.5h2.7zm7.7.5v3.1c0 .3-.2.5-.5.5h-2v-4.1h2c.2 0 .5.3.5.5"/><g opacity=".15"><path fill="#1e1e1c" d="M206.3 109.5h-10.8v4.1h10.8z" opacity=".15"/><path stroke="#1e1e1c" stroke-miterlimit="10" stroke-width="1.185" d="M206.3 109.5h-10.8v4.1h10.8z" opacity=".15"/></g><path fill="#b99b5d" d="M206.3 105.4h-10.8v4.1h10.8z"/><path stroke="#3d3d3b" stroke-miterlimit="10" stroke-width="1.185" d="M206.3 105.4h-10.8v4.1h10.8z"/><path fill="#bdbec2" d="M198.7 105.4v4.1H196c-.3 0-.5-.2-.5-.5v-3.2c0-.3.2-.5.5-.5h2.7zm7.7.5v3.1c0 .3-.2.5-.5.5h-2v-4.1h2c.2 0 .5.2.5.5"/><g fill="#c7c7c6"><path d="m104.198 197.965.005-3.8-18.5-.024-.005 3.8zm-.032 7.981.005-3.8-18.5-.024-.005 3.8zm.067 7.981.005-3.8-18.5-.024-.005 3.8zm-.032 7.981.005-3.8-18.5-.024-.005 3.8zm-.033 7.881.005-3.8-18.5-.024-.005 3.8zm-.032 7.981.005-3.8-18.5-.024-.006 3.8zm.067 7.981.005-3.8-18.5-.024-.005 3.8zm-.033 7.981.005-3.8-18.5-.024-.005 3.8zm-.032 7.981.005-3.8-18.5-.024-.005 3.8zm-.033 7.981.005-3.8-18.5-.024-.005 3.8zm.067 7.982.005-3.8-18.5-.024-.005 3.8zm-.032 7.981.005-3.8-18.5-.024-.006 3.8zm-.033 7.981.005-3.8-18.5-.024-.005 3.8zm-.033 7.981.005-3.8-18.5-.025-.005 3.8zm.068 7.981.005-3.8-18.5-.024-.006 3.8z"/><path d="m87.125 197.939.005-3.8-18.5-.024-.005 3.8zm-.033 7.981.005-3.8-18.5-.025-.005 3.8zm.068 7.981.004-3.8-18.5-.024-.005 3.8zm-.033 7.981.005-3.8-18.5-.025-.005 3.8zm-.033 7.981.005-3.8-18.5-.024-.005 3.8zm-.032 7.981.005-3.8-18.5-.024-.005 3.8zm.068 7.981.004-3.8-18.5-.024-.005 3.8zm-.033 7.881.005-3.8-18.5-.024-.005 3.8zm-.033 7.981.005-3.8-18.5-.024-.005 3.8zm-.033 7.981.005-3.8-18.5-.024-.005 3.8zm.067 7.981.005-3.8-18.5-.024-.005 3.8zm-.032 7.981.005-3.8-18.5-.024-.005 3.8zm-.033 7.982.005-3.8-18.5-.025-.005 3.8zm-.033 7.98.006-3.8-18.5-.024-.005 3.8zm.068 7.982.005-3.8-18.5-.024-.005 3.8z"/></g><path fill="#1e1e1c" d="M92.299 328.402v-178.6h-24.9v178.6z" opacity=".2"/><path fill="url(#m)" stroke="#3d3d3b" stroke-miterlimit="10" stroke-width="1.463" d="m75.5 344.2 18.6.1V314h-9.2l.1-124.3h9.2l.1-30.2-18.6-.1z"/><g opacity=".15"><path fill="#1e1e1c" d="M119.3 344.4V323c0-1.6 1.3-3 3-3h13.6c1.6 0 3 1.3 3 3v21.4c0 1.6-1.3 3-3 3h-13.6c-1.6 0-3-1.3-3-3" opacity=".15"/><path stroke="#1e1e1c" stroke-miterlimit="10" stroke-width="1.221" d="M119.3 344.4V323c0-1.6 1.3-3 3-3h13.6c1.6 0 3 1.3 3 3v21.4c0 1.6-1.3 3-3 3h-13.6c-1.6 0-3-1.3-3-3z" opacity=".15"/></g><path fill="#70706f" d="M119.3 340.3v-21.4c0-1.6 1.3-3 3-3h13.6c1.6 0 3 1.3 3 3v21.4c0 1.6-1.3 3-3 3h-13.6c-1.6-.1-3-1.4-3-3"/><path stroke="#585857" stroke-miterlimit="10" stroke-width="1.221" d="M119.3 340.3v-21.4c0-1.6 1.3-3 3-3h13.6c1.6 0 3 1.3 3 3v21.4c0 1.6-1.3 3-3 3h-13.6c-1.6-.1-3-1.4-3-3z"/><path fill="#bdbec2" d="M118.6 340.7v-1.6h21v1.6c0 2-1.6 3.6-3.6 3.6h-13.8c-2 0-3.6-1.6-3.6-3.6m0-22.1v1.3h21v-1.3c0-2-1.6-3.6-3.6-3.6h-13.8c-2 0-3.6 1.6-3.6 3.6"/><g opacity=".15"><path fill="#1e1e1c" d="M198.1 350.3v-21.4c0-1.6 1.3-3 3-3h13.6c1.6 0 3 1.3 3 3v21.4c0 1.6-1.3 3-3 3h-13.6c-1.7-.1-3-1.4-3-3" opacity=".15"/><path stroke="#1e1e1c" stroke-miterlimit="10" stroke-width="1.221" d="M198.1 350.3v-21.4c0-1.6 1.3-3 3-3h13.6c1.6 0 3 1.3 3 3v21.4c0 1.6-1.3 3-3 3h-13.6c-1.7-.1-3-1.4-3-3z" opacity=".15"/></g><path fill="#70706f" d="M198.1 346.1v-21.4c0-1.6 1.3-3 3-3h13.6c1.6 0 3 1.3 3 3v21.4c0 1.6-1.3 3-3 3h-13.6c-1.7 0-3-1.3-3-3"/><path stroke="#585857" stroke-miterlimit="10" stroke-width="1.221" d="M198.1 346.1v-21.4c0-1.6 1.3-3 3-3h13.6c1.6 0 3 1.3 3 3v21.4c0 1.6-1.3 3-3 3h-13.6c-1.7 0-3-1.3-3-3z"/><path fill="#bdbec2" d="M197.4 346.6V345h21v1.6c0 2-1.6 3.6-3.6 3.6H201c-2 0-3.6-1.6-3.6-3.6m0-22.1v1.3h21v-1.3c0-2-1.6-3.6-3.6-3.6H201c-2 0-3.6 1.6-3.6 3.6"/><g opacity=".15"><path fill="#1e1e1c" d="M119.3 399.8v-21.4c0-1.6 1.3-3 3-3h13.6c1.6 0 3 1.3 3 3v21.4c0 1.6-1.3 3-3 3h-13.6c-1.6-.1-3-1.4-3-3" opacity=".15"/><path stroke="#1e1e1c" stroke-miterlimit="10" stroke-width="1.221" d="M119.3 399.8v-21.4c0-1.6 1.3-3 3-3h13.6c1.6 0 3 1.3 3 3v21.4c0 1.6-1.3 3-3 3h-13.6c-1.6-.1-3-1.4-3-3z" opacity=".15"/></g><path fill="#70706f" d="M119.3 395.6v-21.4c0-1.6 1.3-3 3-3h13.6c1.6 0 3 1.3 3 3v21.4c0 1.6-1.3 3-3 3h-13.6c-1.6 0-3-1.4-3-3"/><path stroke="#585857" stroke-miterlimit="10" stroke-width="1.221" d="M119.3 395.6v-21.4c0-1.6 1.3-3 3-3h13.6c1.6 0 3 1.3 3 3v21.4c0 1.6-1.3 3-3 3h-13.6c-1.6 0-3-1.4-3-3z"/><path fill="#bdbec2" d="M118.6 396.1v-1.6h21v1.6c0 2-1.6 3.6-3.6 3.6h-13.8c-2-.1-3.6-1.7-3.6-3.6m0-22.1v1.3h21V374c0-2-1.6-3.6-3.6-3.6h-13.8c-2 0-3.6 1.6-3.6 3.6"/><g opacity=".15"><path fill="#1e1e1c" d="M198.9 399.8v-21.4c0-1.6 1.3-3 3-3h13.6c1.6 0 3 1.3 3 3v21.4c0 1.6-1.3 3-3 3h-13.6c-1.7-.1-3-1.4-3-3" opacity=".15"/><path stroke="#1e1e1c" stroke-miterlimit="10" stroke-width="1.221" d="M198.9 399.8v-21.4c0-1.6 1.3-3 3-3h13.6c1.6 0 3 1.3 3 3v21.4c0 1.6-1.3 3-3 3h-13.6c-1.7-.1-3-1.4-3-3z" opacity=".15"/></g><path fill="#70706f" d="M198.9 395.6v-21.4c0-1.6 1.3-3 3-3h13.6c1.6 0 3 1.3 3 3v21.4c0 1.6-1.3 3-3 3h-13.6c-1.7 0-3-1.4-3-3"/><path stroke="#585857" stroke-miterlimit="10" stroke-width="1.221" d="M198.9 395.6v-21.4c0-1.6 1.3-3 3-3h13.6c1.6 0 3 1.3 3 3v21.4c0 1.6-1.3 3-3 3h-13.6c-1.7 0-3-1.4-3-3z"/><path fill="#bdbec2" d="M198.2 396.1v-1.6h21v1.6c0 2-1.6 3.6-3.6 3.6h-13.8c-2-.1-3.6-1.7-3.6-3.6m0-22.1v1.3h21V374c0-2-1.6-3.6-3.6-3.6h-13.8c-2 0-3.6 1.6-3.6 3.6"/><g opacity=".15"><path fill="#1e1e1c" d="M197 464.4v-25.6c0-2 1.6-3.5 3.5-3.5h16.3c2 0 3.5 1.6 3.5 3.5v25.6c0 2-1.6 3.5-3.5 3.5h-16.3c-1.9 0-3.5-1.6-3.5-3.5" opacity=".15"/><path stroke="#1e1e1c" stroke-miterlimit="10" stroke-width="1.221" d="M197 464.4v-25.6c0-2 1.6-3.5 3.5-3.5h16.3c2 0 3.5 1.6 3.5 3.5v25.6c0 2-1.6 3.5-3.5 3.5h-16.3c-1.9 0-3.5-1.6-3.5-3.5z" opacity=".15"/></g><path fill="#70706f" d="M197 460.2v-25.6c0-2 1.6-3.5 3.5-3.5h16.3c2 0 3.5 1.6 3.5 3.5v25.6c0 2-1.6 3.5-3.5 3.5h-16.3c-1.9.1-3.5-1.5-3.5-3.5"/><path stroke="#585857" stroke-miterlimit="10" stroke-width="1.221" d="M197 460.2v-25.6c0-2 1.6-3.5 3.5-3.5h16.3c2 0 3.5 1.6 3.5 3.5v25.6c0 2-1.6 3.5-3.5 3.5h-16.3c-1.9.1-3.5-1.5-3.5-3.5z"/><path fill="#bdbec2" d="M196.1 460.8v-1.9h25.1v1.9c0 2.4-1.9 4.3-4.3 4.3h-16.5c-2.3 0-4.3-2-4.3-4.3m0-26.5v1.6h25.1v-1.6c0-2.4-1.9-4.3-4.3-4.3h-16.5c-2.3 0-4.3 1.9-4.3 4.3"/><path fill="#c7c7c6" d="M279.889 369.885v-4.9h-10v4.9zm-19.767-7.393v-4.9h-10v4.9zm.039 15.539v-4.9h-10v4.9z"/><g opacity=".15"><path fill="#1e1e1c" d="M258.7 381.7v-20.2c0-1 .8-1.9 1.9-1.9h8.6c1 0 1.9.8 1.9 1.9v20.2c0 1-.8 1.9-1.9 1.9h-8.6c-1 0-1.9-.8-1.9-1.9" opacity=".15"/><path stroke="#1e1e1c" stroke-miterlimit="10" stroke-width="1.134" d="M258.7 381.7v-20.2c0-1 .8-1.9 1.9-1.9h8.6c1 0 1.9.8 1.9 1.9v20.2c0 1-.8 1.9-1.9 1.9h-8.6c-1 0-1.9-.8-1.9-1.9z" opacity=".15"/></g><path fill="#70706f" d="M258.7 377.6v-20.2c0-1 .8-1.9 1.9-1.9h8.6c1 0 1.9.8 1.9 1.9v20.2c0 1-.8 1.9-1.9 1.9h-8.6c-1 0-1.9-.9-1.9-1.9"/><path stroke="#585857" stroke-miterlimit="10" stroke-width="1.134" d="M258.7 377.6v-20.2c0-1 .8-1.9 1.9-1.9h8.6c1 0 1.9.8 1.9 1.9v20.2c0 1-.8 1.9-1.9 1.9h-8.6c-1 0-1.9-.9-1.9-1.9z"/><path fill="#c7c7c6" d="M275.657 346.809v-2.5h-5.1v2.5zm-9.928-3.73v-2.5h-5.1v2.5zm-.048 7.852v-2.5h-5.1v2.5z"/><g opacity=".15"><path fill="#1e1e1c" d="M265 354.8v-10.2c0-.5.4-1 1-1h4.3c.5 0 1 .4 1 1v10.2c0 .5-.4 1-1 1H266c-.6 0-1-.4-1-1" opacity=".15"/><path stroke="#1e1e1c" stroke-miterlimit="10" stroke-width="1.134" d="M265 354.8v-10.2c0-.5.4-1 1-1h4.3c.5 0 1 .4 1 1v10.2c0 .5-.4 1-1 1H266c-.6 0-1-.4-1-1z" opacity=".15"/></g><path fill="#70706f" d="M265 350.7v-10.2c0-.5.4-1 1-1h4.3c.5 0 1 .4 1 1v10.2c0 .5-.4 1-1 1H266c-.6-.1-1-.5-1-1"/><path stroke="#585857" stroke-miterlimit="10" stroke-width="1.134" d="M265 350.7v-10.2c0-.5.4-1 1-1h4.3c.5 0 1 .4 1 1v10.2c0 .5-.4 1-1 1H266c-.6-.1-1-.5-1-1z"/><path fill="#c7c7c6" d="M275.74 331.592v-2.5h-5.1v2.5zm-10.028-3.731v-2.5h-5.1v2.5zm-.048 7.852v-2.5h-5.1v2.5z"/><g opacity=".15"><path fill="#1e1e1c" d="M265 339.6v-10.2c0-.5.4-1 1-1h4.3c.5 0 1 .4 1 1v10.2c0 .5-.4 1-1 1H266c-.6 0-1-.5-1-1" opacity=".15"/><path stroke="#1e1e1c" stroke-miterlimit="10" stroke-width="1.134" d="M265 339.6v-10.2c0-.5.4-1 1-1h4.3c.5 0 1 .4 1 1v10.2c0 .5-.4 1-1 1H266c-.6 0-1-.5-1-1z" opacity=".15"/></g><path fill="#70706f" d="M265 335.5v-10.2c0-.5.4-1 1-1h4.3c.5 0 1 .4 1 1v10.2c0 .5-.4 1-1 1H266c-.6-.1-1-.5-1-1"/><path stroke="#585857" stroke-miterlimit="10" stroke-width="1.134" d="M265 335.5v-10.2c0-.5.4-1 1-1h4.3c.5 0 1 .4 1 1v10.2c0 .5-.4 1-1 1H266c-.6-.1-1-.5-1-1z"/><path fill="#bdbec2" d="M416.097 225.049v-7.9h-6.5v7.9zm-8.719-.081v-7.9h-6.5v7.9z"/><path stroke="#fff" stroke-miterlimit="10" stroke-width=".858" d="M539.943 84.34v47.201h47.6v-47.2z"/><path fill="#5b5a5d" fill-opacity=".6" d="M166.1 462.8v-3.6h-4v3.6l-1.9 2.2v2.6h7.3v-2.9zm-36 0v-3.6h-4v3.6l-1.9 2.2v2.6h7.3v-2.9zm38.211-21.131v-3.5h-8.7v3.5zm-34.874-.027v-3.5h-8.7v3.5z"/><path fill="url(#n)" stroke="#3d3d3b" stroke-miterlimit="10" stroke-width="1.463" d="M508.4 79.9h1.6c5.8 0 10.6-4.8 10.6-10.6V45c0-5.8-4.8-10.6-10.6-10.6h-1.6c-4 0-7.5 2.2-9.3 5.5-1.8-3.3-5.3-5.5-9.3-5.5h-1.6c-4.1 0-7.6 2.3-9.4 5.7-1.8-3.4-5.3-5.7-9.4-5.7h-1.6c-4 0-7.5 2.2-9.3 5.5-1.8-3.3-5.3-5.5-9.3-5.5h-1.6c-4 0-7.6 2.3-9.4 5.6-1.8-3.3-5.3-5.6-9.4-5.6h-1.6c-4 0-7.5 2.2-9.3 5.5-1.8-3.3-5.3-5.5-9.3-5.5H407c-4 0-7.4 2.2-9.2 5.4-1.8-3.2-5.3-5.4-9.2-5.4H387c-4 0-7.5 2.2-9.3 5.5-1.8-3.3-5.3-5.5-9.3-5.5h-1.6c-4 0-7.6 2.3-9.4 5.6-1.8-3.3-5.3-5.6-9.4-5.6h-1.6c-4 0-7.5 2.2-9.3 5.5-1.8-3.3-5.3-5.5-9.3-5.5h-1.6c-4 0-7.5 2.2-9.3 5.5-1.8-3.3-5.3-5.6-9.3-5.6H306c-4 0-7.5 2.2-9.3 5.5-1.8-3.3-5.3-5.5-9.3-5.5h-1.6c-4.1 0-7.6 2.3-9.4 5.7-1.8-3.4-5.3-5.7-9.4-5.7h-1.6c-4 0-7.5 2.2-9.3 5.5-1.8-3.3-5.3-5.5-9.3-5.5h-1.6c-4 0-7.6 2.3-9.4 5.6-1.8-3.3-5.3-5.6-9.4-5.6h-1.6c-4 0-7.5 2.2-9.3 5.5-1.8-3.3-5.3-5.5-9.3-5.5h-1.6c-4 0-7.4 2.2-9.2 5.4-1.8-3.2-5.3-5.4-9.2-5.4h-1.6c-4 0-7.5 2.2-9.3 5.5-1.8-3.3-5.3-5.5-9.3-5.5h-1.6c-4.8 0-8.8 3.1-10.2 7.5-1.2-4.5-5.4-7.9-10.2-7.9h-1.6c-3.5 0-6.7 1.7-8.6 4.4-1.9-2.5-4.9-4-8.3-4h-1.6c-5.8 0-10.6 4.8-10.6 10.6v24.3c0 5.8 4.8 10.6 10.6 10.6h1.6c3.5 0 6.7-1.7 8.6-4.4 1.9 2.5 4.9 4 8.3 4h1.6c4.8 0 8.8-3.1 10.2-7.5 1.2 4.5 5.4 7.9 10.2 7.9h1.6c4 0 7.5-2.2 9.3-5.5 1.8 3.3 5.3 5.5 9.3 5.5h1.6c4 0 7.4-2.2 9.2-5.4 1.8 3.2 5.3 5.4 9.2 5.4h1.6c4 0 7.5-2.2 9.3-5.5 1.8 3.3 5.3 5.5 9.3 5.5h1.6c4 0 7.6-2.3 9.4-5.6 1.8 3.3 5.3 5.6 9.4 5.6h1.6c4 0 7.5-2.2 9.3-5.5 1.8 3.3 5.3 5.5 9.3 5.5h1.6c4.1 0 7.6-2.3 9.4-5.7 1.8 3.4 5.3 5.7 9.4 5.7h1.6c4 0 7.5-2.2 9.3-5.5 1.8 3.3 5.3 5.5 9.3 5.5h1.6c4 0 7.5-2.2 9.3-5.5 1.8 3.3 5.3 5.6 9.3 5.6h1.6c4 0 7.5-2.2 9.3-5.5 1.8 3.3 5.3 5.5 9.3 5.5h1.6c4 0 7.6-2.3 9.4-5.6 1.8 3.3 5.3 5.6 9.4 5.6h1.6c4 0 7.5-2.2 9.3-5.5 1.8 3.3 5.3 5.5 9.3 5.5h1.6c4 0 7.4-2.2 9.2-5.4 1.8 3.2 5.3 5.4 9.2 5.4h1.6c4 0 7.5-2.2 9.3-5.5 1.8 3.3 5.3 5.5 9.3 5.5h1.6c4 0 7.6-2.3 9.4-5.6 1.8 3.3 5.3 5.6 9.4 5.6h1.6c4 0 7.5-2.2 9.3-5.5 1.8 3.3 5.3 5.5 9.3 5.5h1.6c4.1 0 7.6-2.3 9.4-5.7 1.8 3.4 5.3 5.7 9.4 5.7h1.6c4 0 7.5-2.2 9.3-5.5 1.9 3.3 5.3 5.5 9.3 5.5z"/><path fill="url(#o)" d="M128 66.2v5.4h-6.2l.1-5.4z"/><path fill="url(#p)" d="M128 41.8v5.3h-6.1v-5.3z"/><path fill="url(#q)" d="M147.1 66.3v5.3H141v-5.3z"/><path fill="url(#r)" d="M147.2 41.8v5.3H141v-5.3z"/><path fill="url(#s)" d="M168.1 66.3v5.3H162v-5.3z"/><path fill="url(#t)" d="M168.2 41.8v5.3H162v-5.3z"/><path fill="url(#u)" d="M189.2 66.3v5.3h-6.1v-5.3z"/><path fill="url(#v)" d="M189.2 41.8v5.3h-6.1v-5.3z"/><path fill="url(#w)" d="M208.4 66.3v5.3h-6.2v-5.3z"/><path fill="url(#x)" d="M208.4 41.8v5.4h-6.1v-5.4z"/><path fill="url(#y)" d="M229.4 66.4v5.3h-6.2v-5.4z"/><path fill="url(#z)" d="M229.4 41.9v5.3h-6.1v-5.3z"/><path fill="url(#A)" d="M249.8 66.4v5.3h-6.1v-5.3z"/><path fill="url(#B)" d="M249.8 41.9v5.3h-6.1v-5.3z"/><path fill="url(#C)" d="M268.9 66.4v5.3h-6.1v-5.3z"/><path fill="url(#D)" d="M269 41.9v5.3h-6.2v-5.3z"/><path fill="url(#E)" d="M289.9 66.4v5.3h-6.1v-5.3z"/><path fill="url(#F)" d="M290 41.9v5.4h-6.2v-5.4z"/><path fill="url(#G)" d="M310.5 66.4v5.4h-6.1v-5.4z"/><path fill="url(#H)" d="M310.5 42v5.3h-6.1V42z"/><path fill="url(#I)" d="M329.7 66.5v5.3h-6.2v-5.3z"/><path fill="url(#J)" d="M329.7 42v5.3h-6.2l.1-5.3z"/><path fill="url(#K)" d="M350.7 66.5v5.3h-6.2v-5.3z"/><path fill="url(#L)" d="M350.7 42v5.3h-6.1V42z"/><path fill="url(#M)" d="M371.1 66.5v5.3h-6.2v-5.3z"/><path fill="url(#N)" d="M371.1 42v5.3H365V42z"/><path fill="url(#O)" d="M390.2 66.5v5.4l-6.1-.1v-5.3z"/><path fill="url(#P)" d="M390.3 42.1v5.3h-6.2V42z"/><path fill="url(#Q)" d="M411.2 66.6v5.3h-6.1v-5.4z"/><path fill="url(#R)" d="M411.3 42.1v5.3h-6.2v-5.3z"/><path fill="url(#S)" d="M431.6 66.6v5.3h-6.2v-5.3z"/><path fill="url(#T)" d="M431.6 42.1v5.3h-6.1v-5.3z"/><path fill="url(#U)" d="M450.7 66.6v5.3h-6.1v-5.3z"/><path fill="url(#V)" d="m450.8 42.1-.1 5.3h-6.1v-5.3z"/><path fill="url(#W)" d="M471.7 66.6v5.3h-6.1v-5.3z"/><path fill="url(#X)" d="M471.8 42.1v5.4h-6.2v-5.4z"/><path fill="url(#Y)" d="M492.2 66.6V72h-6.1v-5.4z"/><path fill="url(#Z)" d="M492.2 42.2v5.3h-6.1v-5.3z"/><path fill="url(#aa)" d="M511.4 66.7V72h-6.2v-5.3z"/><path fill="url(#ab)" d="M511.4 42.2v5.3h-6.2l.1-5.3z"/><path fill="#c7c7c6" d="M508.115 393.103v-11.9h-7v11.9zm-35.13.03v-11.9h-7v11.9zm-113.727 5.083v-14.6h-2.5v14.6zm-4.386-.014v-14.6h-2.5v14.6zm-4.673-.027v-14.6h-2.5v14.6zm-4.385-.015v-14.6h-2.5v14.6zm-4.62.02v-14.6h-2.5v14.6zm-4.385-.014v-14.6h-2.5v14.6zm-4.674-.027v-14.6h-2.5v14.6zm-4.385.085v-14.6h-2.5v14.6zm-4.386-.014v-14.6h-2.5v14.6zm-4.386-.014v-14.6h-2.5v14.6zm-4.673-.027v-14.6h-2.5v14.6zm-4.385-.014v-14.6h-2.5v14.6zm-4.62.019v-14.6h-2.5v14.6zm-4.386-.014v-14.6h-2.5v14.6zm-4.673.073v-14.6h-2.5v14.6zm-4.385-.014v-14.6h-2.5v14.6zm-4.386-.015v-14.6h-2.5v14.6zm-4.386-.014v-14.6h-2.5v14.6zm-4.673-.027v-14.6h-2.5v14.6zm-4.386-.014v-14.6h-2.5v14.6zm-4.619.019v-14.6h-2.5v14.6z"/><g stroke="#3d3d3b" stroke-miterlimit="10" stroke-width="1.463"><path fill="url(#ac)" d="M256.7 396.4v-4h109v4z"/><path fill="url(#ad)" d="M361.2 408.6v-14.5c0-2.3 1.9-4.2 4.2-4.2h7.3c2.3 0 4.2 1.9 4.2 4.2v14.5c0 2.3-1.9 4.2-4.2 4.2h-7.3c-2.3.1-4.2-1.8-4.2-4.2z"/><path fill="url(#ae)" d="M249.2 408.6v-14.5c0-2.3 1.9-4.2 4.2-4.2h7.3c2.3 0 4.2 1.9 4.2 4.2v14.5c0 2.3-1.9 4.2-4.2 4.2h-7.3c-2.3.1-4.2-1.8-4.2-4.2z"/></g><path fill="url(#af)" stroke="#9c9b9b" stroke-miterlimit="10" stroke-width="1.463" d="M594.7 387.1V342h3.7v45.1z"/><path fill="url(#ag)" stroke="#9c9b9b" stroke-miterlimit="10" stroke-width="1.463" d="M594.7 440.1V395h3.7v45.1z"/><path fill="#1e1f1d" d="M536 121.7V94.6c0-4.7 3.8-8.6 8.6-8.6h13.2c4.7 0 8.6 3.8 8.6 8.6v27.1c0 4.7-3.8 8.6-8.6 8.6h-13.2c-4.7-.1-8.6-3.9-8.6-8.6" opacity=".2"/><path fill="#3d3d3b" d="M242.1 192.4a2.7 2.7 0 1 0 0-5.4 2.7 2.7 0 0 0 0 5.4"/><path fill="#bdbec2" d="M288.654 360.039v-9.2h-9.2v9.2z"/><g stroke-miterlimit="10"><path stroke="#b2b2b2" stroke-linecap="round" stroke-width="1.463" d="m507.1 392.2 2.9 2.9c.5.5.8 1.2.8 1.9v4c0 .3-.1.6-.2.9l-7.9 21.8-1.6.9m-34.2-32.4-2.9 2.9c-.5.5-.8 1.2-.8 1.9v4c0 .3.1.6.2.9l7.9 21.8 1.6.9"/><path fill="url(#ah)" stroke="#3d3d3b" stroke-width="1.471" d="M550.6 85.7h26.2c5.4 0 9.7 4.4 9.7 9.7v2c0 5.4-4.4 9.7-9.7 9.7h-26.2c-5.4 0-9.7-4.4-9.7-9.7v-2c-.1-5.3 4.3-9.7 9.7-9.7z"/></g><path fill="url(#ai)" d="M554.1 99.5h-5.4l.1-6.1h5.3z"/><path fill="url(#aj)" d="M578.5 99.5h-5.3v-6.1h5.4z"/><path fill="url(#ak)" stroke="#3d3d3b" stroke-miterlimit="10" stroke-width="1.471" d="M550.6 108.4h26.2c5.4 0 9.7 4.4 9.7 9.7v2c0 5.4-4.4 9.7-9.7 9.7h-26.2c-5.4 0-9.7-4.4-9.7-9.7v-2c-.1-5.4 4.3-9.7 9.7-9.7z"/><path fill="url(#al)" d="M554.1 122.2h-5.4l.1-6.2h5.3z"/><path fill="url(#am)" d="M578.5 122.2h-5.3v-6.1h5.4z"/><defs><linearGradient id="a" x1="486.648" x2="486.677" y1="500.33" y2="473.741" gradientUnits="userSpaceOnUse"><stop offset="0" stop-color="#5b5a5d"/><stop offset="1" stop-color="#5b5a5d"/></linearGradient><linearGradient id="b" x1="486.897" x2="487.008" y1="475.315" y2="375.607" gradientUnits="userSpaceOnUse"><stop offset="0" stop-color="#e4e4e6"/><stop offset="1" stop-color="#b9babd"/></linearGradient><linearGradient id="c" x1="487.095" x2="487.108" y1="480.961" y2="469.657" gradientUnits="userSpaceOnUse"><stop offset="0" stop-color="#5b5a5d"/><stop offset="1" stop-color="#5b5a5d"/></linearGradient><linearGradient id="d" x1="486.81" x2="486.878" y1="436.852" y2="375.607" gradientUnits="userSpaceOnUse"><stop offset="0" stop-color="#5b5a5d"/><stop offset="1" stop-color="#5b5a5d"/></linearGradient><linearGradient id="e" x1="146.434" x2="146.482" y1="477.299" y2="434.046" gradientUnits="userSpaceOnUse"><stop offset="0" stop-color="#e4e4e6"/><stop offset="1" stop-color="#b9babd"/></linearGradient><linearGradient id="f" x1="314.096" x2="314.209" y1="497.248" y2="394.568" gradientUnits="userSpaceOnUse"><stop offset="0" stop-color="#e4e4e6"/><stop offset="1" stop-color="#b9babd"/></linearGradient><linearGradient id="g" x1="594.704" x2="769.276" y1="391.766" y2="391.766" gradientUnits="userSpaceOnUse"><stop offset="0" stop-color="#b9babd"/><stop offset="1" stop-color="#e4e4e6"/></linearGradient><linearGradient id="h" x1="628.496" x2="769.276" y1="105.738" y2="105.738" gradientUnits="userSpaceOnUse"><stop offset="0" stop-color="#b9babd"/><stop offset="1" stop-color="#e4e4e6"/></linearGradient><linearGradient id="i" x1="628.496" x2="769.276" y1="243.339" y2="243.339" gradientUnits="userSpaceOnUse"><stop offset="0" stop-color="#b9babd"/><stop offset="1" stop-color="#e4e4e6"/></linearGradient><linearGradient id="j" x1="421.913" x2="421.913" y1="291.183" y2="475.992" gradientUnits="userSpaceOnUse"><stop offset="0" stop-color="#5b5a5d"/><stop offset="1" stop-color="#5b5a5d"/></linearGradient><linearGradient id="k" x1="560.855" x2="560.855" y1="194.297" y2="253.401" gradientUnits="userSpaceOnUse"><stop offset="0" stop-color="#5b5a5d"/><stop offset="1" stop-color="#5b5a5d"/></linearGradient><linearGradient id="l" x1="275.354" x2="275.354" y1="165.294" y2="280.703" gradientUnits="userSpaceOnUse"><stop offset="0" stop-color="#bdbec1"/><stop offset="1" stop-color="#e4e4e6"/></linearGradient><linearGradient id="m" x1="84.904" x2="84.904" y1="344.251" y2="159.442" gradientUnits="userSpaceOnUse"><stop offset="0" stop-color="#5b5a5d"/><stop offset="1" stop-color="#5b5a5d"/></linearGradient><linearGradient id="n" x1="317.42" x2="317.42" y1="33.618" y2="79.952" gradientUnits="userSpaceOnUse"><stop offset="0" stop-color="#5b5a5d"/><stop offset="1" stop-color="#5b5a5d"/></linearGradient><linearGradient id="o" x1="124.902" x2="124.908" y1="71.556" y2="66.238" gradientUnits="userSpaceOnUse"><stop offset="0" stop-color="#e4e4e6"/><stop offset="1" stop-color="#efeff0"/></linearGradient><linearGradient id="p" x1="124.929" x2="124.935" y1="47.074" y2="41.756" gradientUnits="userSpaceOnUse"><stop offset="0" stop-color="#e4e4e6"/><stop offset="1" stop-color="#efeff0"/></linearGradient><linearGradient id="q" x1="144.05" x2="144.056" y1="71.577" y2="66.259" gradientUnits="userSpaceOnUse"><stop offset="0" stop-color="#e4e4e6"/><stop offset="1" stop-color="#efeff0"/></linearGradient><linearGradient id="r" x1="144.077" x2="144.083" y1="47.095" y2="41.777" gradientUnits="userSpaceOnUse"><stop offset="0" stop-color="#e4e4e6"/><stop offset="1" stop-color="#efeff0"/></linearGradient><linearGradient id="s" x1="165.059" x2="165.065" y1="71.6" y2="66.283" gradientUnits="userSpaceOnUse"><stop offset="0" stop-color="#e4e4e6"/><stop offset="1" stop-color="#efeff0"/></linearGradient><linearGradient id="t" x1="165.086" x2="165.092" y1="47.118" y2="41.8" gradientUnits="userSpaceOnUse"><stop offset="0" stop-color="#e4e4e6"/><stop offset="1" stop-color="#efeff0"/></linearGradient><linearGradient id="u" x1="186.131" x2="186.137" y1="71.624" y2="66.306" gradientUnits="userSpaceOnUse"><stop offset="0" stop-color="#e4e4e6"/><stop offset="1" stop-color="#efeff0"/></linearGradient><linearGradient id="v" x1="186.158" x2="186.164" y1="47.142" y2="41.824" gradientUnits="userSpaceOnUse"><stop offset="0" stop-color="#e4e4e6"/><stop offset="1" stop-color="#efeff0"/></linearGradient><linearGradient id="w" x1="205.279" x2="205.285" y1="71.645" y2="66.327" gradientUnits="userSpaceOnUse"><stop offset="0" stop-color="#e4e4e6"/><stop offset="1" stop-color="#efeff0"/></linearGradient><linearGradient id="x" x1="205.307" x2="205.312" y1="47.163" y2="41.845" gradientUnits="userSpaceOnUse"><stop offset="0" stop-color="#e4e4e6"/><stop offset="1" stop-color="#efeff0"/></linearGradient><linearGradient id="y" x1="226.288" x2="226.294" y1="71.668" y2="66.35" gradientUnits="userSpaceOnUse"><stop offset="0" stop-color="#e4e4e6"/><stop offset="1" stop-color="#efeff0"/></linearGradient><linearGradient id="z" x1="226.315" x2="226.321" y1="47.186" y2="41.868" gradientUnits="userSpaceOnUse"><stop offset="0" stop-color="#e4e4e6"/><stop offset="1" stop-color="#efeff0"/></linearGradient><linearGradient id="A" x1="246.703" x2="246.709" y1="71.691" y2="66.373" gradientUnits="userSpaceOnUse"><stop offset="0" stop-color="#e4e4e6"/><stop offset="1" stop-color="#efeff0"/></linearGradient><linearGradient id="B" x1="246.73" x2="246.736" y1="47.209" y2="41.891" gradientUnits="userSpaceOnUse"><stop offset="0" stop-color="#e4e4e6"/><stop offset="1" stop-color="#efeff0"/></linearGradient><linearGradient id="C" x1="265.851" x2="265.857" y1="71.712" y2="66.394" gradientUnits="userSpaceOnUse"><stop offset="0" stop-color="#e4e4e6"/><stop offset="1" stop-color="#efeff0"/></linearGradient><linearGradient id="D" x1="265.878" x2="265.884" y1="47.23" y2="41.912" gradientUnits="userSpaceOnUse"><stop offset="0" stop-color="#e4e4e6"/><stop offset="1" stop-color="#efeff0"/></linearGradient><linearGradient id="E" x1="286.86" x2="286.865" y1="71.735" y2="66.418" gradientUnits="userSpaceOnUse"><stop offset="0" stop-color="#e4e4e6"/><stop offset="1" stop-color="#efeff0"/></linearGradient><linearGradient id="F" x1="286.887" x2="286.893" y1="47.254" y2="41.935" gradientUnits="userSpaceOnUse"><stop offset="0" stop-color="#e4e4e6"/><stop offset="1" stop-color="#efeff0"/></linearGradient><linearGradient id="G" x1="307.416" x2="307.422" y1="71.758" y2="66.44" gradientUnits="userSpaceOnUse"><stop offset="0" stop-color="#e4e4e6"/><stop offset="1" stop-color="#efeff0"/></linearGradient><linearGradient id="H" x1="307.444" x2="307.449" y1="47.276" y2="41.958" gradientUnits="userSpaceOnUse"><stop offset="0" stop-color="#e4e4e6"/><stop offset="1" stop-color="#efeff0"/></linearGradient><linearGradient id="I" x1="326.565" x2="326.571" y1="71.779" y2="66.462" gradientUnits="userSpaceOnUse"><stop offset="0" stop-color="#e4e4e6"/><stop offset="1" stop-color="#efeff0"/></linearGradient><linearGradient id="J" x1="326.592" x2="326.598" y1="47.297" y2="41.98" gradientUnits="userSpaceOnUse"><stop offset="0" stop-color="#e4e4e6"/><stop offset="1" stop-color="#efeff0"/></linearGradient><linearGradient id="K" x1="347.573" x2="347.579" y1="71.803" y2="66.485" gradientUnits="userSpaceOnUse"><stop offset="0" stop-color="#e4e4e6"/><stop offset="1" stop-color="#efeff0"/></linearGradient><linearGradient id="L" x1="347.6" x2="347.606" y1="47.321" y2="42.003" gradientUnits="userSpaceOnUse"><stop offset="0" stop-color="#e4e4e6"/><stop offset="1" stop-color="#efeff0"/></linearGradient><linearGradient id="M" x1="367.988" x2="367.994" y1="71.825" y2="66.508" gradientUnits="userSpaceOnUse"><stop offset="0" stop-color="#e4e4e6"/><stop offset="1" stop-color="#efeff0"/></linearGradient><linearGradient id="N" x1="368.015" x2="368.021" y1="47.343" y2="42.026" gradientUnits="userSpaceOnUse"><stop offset="0" stop-color="#e4e4e6"/><stop offset="1" stop-color="#efeff0"/></linearGradient><linearGradient id="O" x1="387.136" x2="387.142" y1="71.847" y2="66.529" gradientUnits="userSpaceOnUse"><stop offset="0" stop-color="#e4e4e6"/><stop offset="1" stop-color="#efeff0"/></linearGradient><linearGradient id="P" x1="387.164" x2="387.169" y1="47.365" y2="42.047" gradientUnits="userSpaceOnUse"><stop offset="0" stop-color="#e4e4e6"/><stop offset="1" stop-color="#efeff0"/></linearGradient><linearGradient id="Q" x1="408.145" x2="408.151" y1="71.87" y2="66.552" gradientUnits="userSpaceOnUse"><stop offset="0" stop-color="#e4e4e6"/><stop offset="1" stop-color="#efeff0"/></linearGradient><linearGradient id="R" x1="408.172" x2="408.178" y1="47.388" y2="42.07" gradientUnits="userSpaceOnUse"><stop offset="0" stop-color="#e4e4e6"/><stop offset="1" stop-color="#efeff0"/></linearGradient><linearGradient id="S" x1="428.479" x2="428.485" y1="71.892" y2="66.575" gradientUnits="userSpaceOnUse"><stop offset="0" stop-color="#e4e4e6"/><stop offset="1" stop-color="#efeff0"/></linearGradient><linearGradient id="T" x1="428.506" x2="428.512" y1="47.41" y2="42.093" gradientUnits="userSpaceOnUse"><stop offset="0" stop-color="#e4e4e6"/><stop offset="1" stop-color="#efeff0"/></linearGradient><linearGradient id="U" x1="447.627" x2="447.633" y1="71.914" y2="66.596" gradientUnits="userSpaceOnUse"><stop offset="0" stop-color="#e4e4e6"/><stop offset="1" stop-color="#efeff0"/></linearGradient><linearGradient id="V" x1="447.654" x2="447.66" y1="47.432" y2="42.114" gradientUnits="userSpaceOnUse"><stop offset="0" stop-color="#e4e4e6"/><stop offset="1" stop-color="#efeff0"/></linearGradient><linearGradient id="W" x1="468.636" x2="468.642" y1="71.937" y2="66.619" gradientUnits="userSpaceOnUse"><stop offset="0" stop-color="#e4e4e6"/><stop offset="1" stop-color="#efeff0"/></linearGradient><linearGradient id="X" x1="468.663" x2="468.669" y1="47.455" y2="42.137" gradientUnits="userSpaceOnUse"><stop offset="0" stop-color="#e4e4e6"/><stop offset="1" stop-color="#efeff0"/></linearGradient><linearGradient id="Y" x1="489.109" x2="489.114" y1="71.96" y2="66.642" gradientUnits="userSpaceOnUse"><stop offset="0" stop-color="#e4e4e6"/><stop offset="1" stop-color="#efeff0"/></linearGradient><linearGradient id="Z" x1="489.136" x2="489.142" y1="47.478" y2="42.16" gradientUnits="userSpaceOnUse"><stop offset="0" stop-color="#e4e4e6"/><stop offset="1" stop-color="#efeff0"/></linearGradient><linearGradient id="aa" x1="508.257" x2="508.263" y1="71.981" y2="66.663" gradientUnits="userSpaceOnUse"><stop offset="0" stop-color="#e4e4e6"/><stop offset="1" stop-color="#efeff0"/></linearGradient><linearGradient id="ab" x1="508.284" x2="508.29" y1="47.499" y2="42.181" gradientUnits="userSpaceOnUse"><stop offset="0" stop-color="#e4e4e6"/><stop offset="1" stop-color="#efeff0"/></linearGradient><linearGradient id="ac" x1="311.223" x2="311.223" y1="392.397" y2="396.42" gradientUnits="userSpaceOnUse"><stop offset="0" stop-color="#5b5a5d"/><stop offset="1" stop-color="#5b5a5d"/></linearGradient><linearGradient id="ad" x1="369.046" x2="369.046" y1="389.883" y2="412.857" gradientUnits="userSpaceOnUse"><stop offset="0" stop-color="#5b5a5d"/><stop offset="1" stop-color="#5b5a5d"/></linearGradient><linearGradient id="ae" x1="257.026" x2="257.026" y1="389.883" y2="412.857" gradientUnits="userSpaceOnUse"><stop offset="0" stop-color="#5b5a5d"/><stop offset="1" stop-color="#5b5a5d"/></linearGradient><linearGradient id="af" x1="594.704" x2="598.405" y1="364.541" y2="364.541" gradientUnits="userSpaceOnUse"><stop offset="0" stop-color="#b9babd"/><stop offset="1" stop-color="#e4e4e6"/></linearGradient><linearGradient id="ag" x1="594.704" x2="598.405" y1="417.549" y2="417.549" gradientUnits="userSpaceOnUse"><stop offset="0" stop-color="#b9babd"/><stop offset="1" stop-color="#e4e4e6"/></linearGradient><linearGradient id="ah" x1="586.459" x2="540.845" y1="96.454" y2="96.454" gradientUnits="userSpaceOnUse"><stop offset="0" stop-color="#5b5a5d"/><stop offset="1" stop-color="#5b5a5d"/></linearGradient><linearGradient id="ai" x1="548.752" x2="554.07" y1="96.42" y2="96.426" gradientUnits="userSpaceOnUse"><stop offset="0" stop-color="#e4e4e6"/><stop offset="1" stop-color="#efeff0"/></linearGradient><linearGradient id="aj" x1="573.234" x2="578.552" y1="96.447" y2="96.453" gradientUnits="userSpaceOnUse"><stop offset="0" stop-color="#e4e4e6"/><stop offset="1" stop-color="#efeff0"/></linearGradient><linearGradient id="ak" x1="586.459" x2="540.845" y1="119.122" y2="119.122" gradientUnits="userSpaceOnUse"><stop offset="0" stop-color="#5b5a5d"/><stop offset="1" stop-color="#5b5a5d"/></linearGradient><linearGradient id="al" x1="548.752" x2="554.07" y1="119.087" y2="119.093" gradientUnits="userSpaceOnUse"><stop offset="0" stop-color="#e4e4e6"/><stop offset="1" stop-color="#efeff0"/></linearGradient><linearGradient id="am" x1="573.234" x2="578.552" y1="119.115" y2="119.12" gradientUnits="userSpaceOnUse"><stop offset="0" stop-color="#e4e4e6"/><stop offset="1" stop-color="#efeff0"/></linearGradient></defs></svg>