<svg xmlns="http://www.w3.org/2000/svg" viewBox="0 0 856 557"><rect width="693.163" height="383.958" x="81.419" y="86.521" fill="teal" ry="28.882"/><g fill="#fff" stroke-width="17.267" aria-label="UEFI"><path d="M286.316 267.676q-3.868 0-10.086-.414-10.916-3.454-15.614-9.672-6.08-6.632-8.843-19.206-.967-4.56-.552-14.094.552-9.672 1.52-13.817 0-.415 2.625-8.152 2.625-7.876 3.04-8.843.138-.553.276-2.35.276-1.796.553-3.316.276-1.658.829-2.21 1.243-1.52 3.316-2.626 2.21-1.105 4.007-.967 2.21.967 3.869 3.73 1.658 2.626 1.105 5.113-.276.83-1.796 4.422-1.382 3.454-2.487 6.356-1.106 2.763-2.073 5.941t-1.105 4.56q-.139 1.105-.968 6.77-.69 5.527-.829 7.738-.138 2.21.139 6.356.414 4.007 1.658 7.185 2.625 5.25 5.25 8.567 2.764 3.178 7.047 4.56 4.007 1.658 9.672 1.658 4.698 0 6.77-1.244 1.382-.553 3.593-1.382 2.35-.967 3.73-1.381 1.383-.553 2.902-1.52 1.658-1.106 2.764-2.35l2.487-2.486 2.625-2.626q.967-1.105 2.211-2.901 1.382-1.797 2.625-4.007 1.52-2.764 4.007-11.469t3.178-10.225q.277-1.105.415-6.632.276-5.527.69-7.047.277-2.763 0-5.25 0-.277-.966-2.487-.83-2.35-.83-2.764-1.381-3.454 3.455-7.047 4.56-.69 7.876 1.797 1.243 1.381 2.487 4.283 1.381 2.902 1.105 4.283-.138 2.073.276 5.804t.415 6.908-.967 5.527q0 6.08-2.902 16.028-2.763 9.949-6.08 15.2-1.243 1.934-2.348 3.454-1.106 1.52-2.764 3.178-1.52 1.658-2.21 2.349-.553.69-2.902 2.901-2.211 2.073-2.902 2.625-6.08 7.047-22.522 10.363-1.658.83-6.77.83M367.562 268.505q-2.487-.69-4.698-2.901-.829.829-2.763 1.796-3.73.691-6.08-2.487-1.243-1.934-1.796-6.08l1.105-12.435 1.244-9.396q.138-1.244.69-7.461.553-6.218 1.382-9.258v-13.126q-.552-.553-1.658-2.902-.967-2.487-.967-3.178-.69-4.56 0-9.672.415-.967 1.52-1.658 1.244-.691 3.178-1.106 1.934-.552 2.21-.69 5.113 1.105 7.048.829 2.901 0 6.08-.691 3.315-.691 5.112-1.244 1.934-.69 6.08-2.072 4.144-1.52 5.526-2.073 1.796-.414 5.803-1.382 4.146-1.105 6.91-1.52 2.9-.552 6.493-.552 1.52-.138 6.356.69l4.974.968 1.382.967q1.382 1.105 2.073 1.796.69.553 1.52 1.658.967.968 1.105 1.797v8.704q-.553 1.106-2.625 1.659-1.935.552-3.455.138-.552-.277-3.04-2.902-2.348-2.625-4.006-2.349-15.476-.69-25.286 2.625-1.52.691-6.218 2.35-4.698 1.52-7.738 3.04-3.04 1.38-5.25 3.315l-.967.83q-1.106 14.37 0 16.718 3.178-.967 8.843-.967h6.08q2.348-.553 8.842-2.487 6.633-2.073 11.33-3.178 4.837-1.105 8.706-1.244h4.421q3.04-.138 4.974-.138 2.073-.138 4.56.138 2.625.277 4.422.83 6.217 4.145 5.25 7.46.553 3.179-3.592 4.699-.83.414-3.593-.553-2.763-1.105-3.316-1.105-8.567-1.106-16.719.552t-19.206 5.527q-2.625.83-8.429 3.316-5.665 2.488-7.323 3.731-1.243.276-3.869-.276-2.487-.691-3.04-.691-1.934.69-1.934 14.094 5.527-.277 9.949-.415 4.56-.276 6.632-.276h3.73q1.52-.139 1.935-.139t.69-.138q3.179-.69 11.331-1.105 8.152-.553 8.843-.553 10.916-.552 22.66 1.658 1.935.691 2.902 2.487 1.106 1.658.553 3.731-1.106 1.52-2.625 2.625-5.804.139-15.752 1.244-9.81 1.105-13.956 1.382-.967.138-5.25.829-4.145.69-7.876 1.381-3.73.691-5.25 1.244-1.244.138-4.008 1.105-2.625.968-3.454.691zM459.31 269.058q-3.732-2.625-4.422-4.421-.277-.691-.277-1.52-.829-1.935-.829-3.593v-62.04l-4.421-6.08q-.691-5.94 6.08-9.118 6.079-2.211 17.547-4.56t16.581-3.869q7.738-3.178 19.206-4.283.415.138 2.487 0 2.073-.277 5.113-.553t5.112-.276q3.316 0 4.836.829 3.178 0 5.941 3.04t1.935 6.355q.553 1.658-.415 3.317-.967 1.52-2.763 2.21-1.658.415-3.316-.829l-1.52-1.105q-.83-.691-1.658-.83-18.654-1.934-47.255 7.877-.968.552-3.87 1.658-2.763.967-3.04.967-1.243.415-2.624 1.796l-1.797 1.796v8.705q0 10.64.968 15.752 1.243 0 2.21.138l6.909.553q.967.138 2.21.138 4.56-.414 12.16-2.487T502.834 216q9.534-1.106 11.053-1.106 3.455 0 6.218.968 2.487 1.381 2.764 3.73t-1.797 4.145q-2.072 1.106-8.843 2.211-6.632.967-7.737 1.244-4.146 1.52-13.541 3.869-9.258 2.349-11.883 3.178-.415 0-3.178 1.243-2.625 1.106-2.902 1.382h-.967l-4.283-.83-.83.83q-.967 13.126.83 19.206v.967q.276 8.29-3.455 10.225-1.52 1.243-4.974 1.796M546.772 270.302q-4.974 1.105-8.29-5.113l1.382-6.908 14.37-3.593q3.04-.69 3.454-2.625 1.52-3.454 2.764-16.305t1.934-15.89q2.21-15.751 1.52-23.627-2.073-.829-4.007-.829-1.105 0-3.73.414-2.488.277-3.87.277-1.105.69-3.04.69-2.348 0-4.006-.69-2.902-1.935-3.455-7.047-.138-1.244 2.35-3.73 2.486-2.626 5.112-4.284 3.178-.276 6.494 1.934h10.5q2.488-.829 2.626-.967.277-.138 1.796-1.658 1.52-1.658 2.626-1.796 3.869-.276 5.25 1.796h6.08l3.04-.553q1.52-.414 1.796-.552t1.244-.138q.967-.139 1.658 0 .69 0 2.763.138h3.316q2.902 1.381 4.974 4.698 2.073 3.178 1.244 5.803-1.934.829-3.593 1.382-1.52.552-2.901.967l-2.073.69q-.829.139-1.934.277h-4.974q-3.593 0-6.356.415-.415 0-.691.138l-2.902.552q-.276.139-.69.139-.139 0-.553.414-.277.276-.277.415-1.243 4.836-3.592 21.14-2.211 16.305-3.316 20.864-.139 1.244-.553 4.698l-.415 4.974q0 1.52.139 4.422 0 .276.829.967.967.553 1.796.69 15.06-1.933 19.759-1.657.138 0 1.934.276 1.796.138 2.625.415.968.138 2.35.552t2.072 1.244q.829.69.967 1.796.415 1.244-.276 3.178-.553 1.796-1.52 2.073-4.145 1.52-20.035 4.421-.691 0-1.244.139l-4.56.552q-.552.138-1.243.138-4.698.83-7.876 3.455h-4.283l-3.593-.968q-2.349.139-5.941.83-3.455.829-4.975.967"/></g><g fill="#fff" stroke-width="6.916" aria-label="arm64"><path d="M359.82 391.274q-1.715.222-3.541-.443-1.826-.719-2.878-1.992-.498-.775-.72-1.051-.165-.332-.553-.996-.387-.72-.553-1.163-.11-.442-.277-1.051-.166-.609-.166-1.162 0-.609.166-1.218.055-1.881 1.218-3.818 1.217-1.937 2.435-3.1t3.154-2.766q.387-.277.553-.443 2.325-1.882 6.31-1.882.83 0 5.257.443.11.11.719.388.664.276.94.608.278.277.056.775l.72.72q1.217.719 1.55 1.383.497.83 1.825 5.202.111.443 1.052 2.988.996 2.546 1.107 3.044 1.383 2.546 1.438 3.376l.277.885q-.055.277-.498.61-.443.331-.498.386-.94.333-2.878-.332-.387-.166-.72-.387l-.442-.443q-.11-.221-.498-.774l-.498-.83-.221-.277q-.61-1.44-1.882-5.092-2.214 3.764-5.368 6.143-3.154 2.325-6.585 2.27m-.276-5.146q.94 0 2.6-.443 2.713-.996 4.926-3.487 2.158-2.988 2.435-5.257 0-.166.222-1.273.22-1.162.166-1.605-1.107.277-3.21.443-2.048.11-3.155.332-1.438.221-2.933 1.384-1.494 1.106-2.269 2.103-.774.996-2.103 2.822-.94 1.162.333 3.486.996 1.495 2.988 1.495M388.874 374.727q1.44-2.877 3.265-4.593 2.048-2.047 4.815-2.324 2.712-.332 5.147.664 1.051 1.051 1.051 1.716 0 1.272-.221 1.494-1.052 1.051-1.771 1.051-.055 0-.83-.11-.72-.111-1.328-.167h-1.273q-2.38.332-3.763 1.937l-1.218 1.55q-1.383 1.937-1.715 2.822-.111.277-.61 1.328-.442 1.052-.497 1.605-.11 3.265.387 4.926.277.498.332 1.106.056.554 0 .941 0 .332-.332 1.052-.277.664-.443.885-.11.221-.553.996-.498.554-1.051.554-1.052 0-2.048-1.052-.94-1.051-1.439-2.545l-.055-6.365q-.11-2.158-.886-9.96-.221-2.325 0-3.875.61-1.217 2.325-1.328.774-.11 1.328.277.553.387.609 1.217.055.222.166.498.166.277.166.443 0 1.218.166 5.036zM410.512 390.942q-2.38.277-2.767-.664-.166-.277-.442-1.107-.277-.885-.277-.996v-13.448q.221-1.494 1.439-1.494.664 0 1.383.498.72.498 1.052 1.162l.332 1.771q-.221 1.218.332 4.594 2.656-3.32 3.486-5.313 1.218-1.384 1.052-2.822 2.435-1.384 4.206-1.052.996.277 2.103 2.49v6.365q.996-1.107 2.711-3.432 1.716-2.324 2.546-3.32 1.66-2.269 3.154-3.154 2.325.276 3.487 1.77 1.605 2.712 2.103 7.693-.056.996.11 2.103t.499 2.435.442 2.103q.554 1.55.388 2.822-.056.72-.72.94-.664.222-1.383.056-1.218-.277-2.103-2.047-.388-.83-.72-1.605-.276-.83-.553-1.993-.221-1.217-.332-1.604-.055-.388-.277-2.048-.221-1.716-.221-1.826-.388-1.107-.886-1.107-.221.11-.83.664-.608.553-1.217 1.162-.554.554-1.218 1.273l-.774.775-.554.774-2.047 2.657-.554.775q-.221.22-.83 1.051-.553.775-.996 1.162-.387.388-.94.609-.942.166-1.772-.166-.83-.387-1.051-1.273-.332-.443-.332-1.051v-6.365h-.111q-.221-.11-.277-.055-3.043 4.261-5.921 9.574-.498.664-.72.664M457.884 392.104q-3.708-.11-7.416-1.992-3.652-1.937-5.423-5.036-1.771-2.214-2.38-6.032-.553-3.819.11-6.364 1.606-4.538 4.151-8.08 2.546-3.597 6.42-7.083 1.107-.997 3.93-2.933 2.877-1.937 4.094-3.21.498-.11 2.103-.775 1.605-.664 2.712-.553 2.822-.443 4.815 1.106.276.554.332.886t-.056.885q-.055.554-.055 1.052-.94.332-2.601.72-1.605.331-2.822.774-1.163.443-2.159 1.328-5.644 2.767-10.68 8.8-3.597 4.814-4.815 9.462 1.77-2.047 2.988-2.988 1.273-.94 3.266-1.882 1.826-.664 3.818-.664 3.597 0 8.19 1.993 1.329 1.162 2.325 2.435.996 1.217 1.826 2.988.885 1.716.83 3.431t-.83 3.763q-2.324 3.93-5.645 6.032-3.265 2.048-7.028 1.937m.94-4.87q.056 0 .886-.221.83-.277 1.107-.387.277-.166 1.051-.498.775-.333 1.163-.72.442-.387.996-.94.608-.61.996-1.384.443-.775.775-1.771.166-1.439-.056-2.49-.221-1.052-.609-1.66-.332-.61-1.106-1.052-.775-.498-1.273-.664t-1.494-.388q-.996-.22-1.328-.332-1.55-.276-3.542.056-1.993.332-3.21 1.328-.221.221-1.051.83-.83.553-1.329 1.051-.442.443-.996 1.44-.498.995-.609 2.268.056.056 1.273 1.716 1.218 1.605 1.384 1.66 1.605 2.158 6.973 2.158M497.784 392.88q-1.107.165-1.881-.278l-1.107-1.106q-.83-1.052-.72-3.266v-3.099q0-.608.388-3.984l.221-1.771-.609-.332h-8.854q-4.427-1.162-6.032-2.822-.443-.332-.72-.775-.276-.498-.442-.775-.166-.332-.222-1.051-.055-.775-.055-.941v-1.107q.055-.94.055-.996.498-1.882 1.993-4.649 1.55-2.822 2.767-4.427l7.581-9.352q1.384-1.605 3.985-1.44 1.605.997 1.107 2.602-2.823 3.597-5.258 6.917-3.542 4.261-4.759 5.922-.055.332-.664 1.328-1.826 3.542-.886 4.261.333.332 1.882 1.273l.387.221q.554.056.775.166.222.11.166.222v.11h.166q.055-.055.222-.055h.332q2.6 0 6.142-.443.222 0 .886-.11.664-.111.94-.111l.61-.11q.442-.222.608-.665 1.826-5.313 2.214-9.74.11-1.051 1.051-1.881.941-.886 1.992-.72 1.218-.221 2.048.886.83 1.051.72 2.269.22.498-.443 1.77-.166.277-.277.554-1.273 2.933-1.383 4.372-.277 1.439-.83 2.767 1.494 1.77 2.102 3.984 0 .886-.72 2.214-.719 1.328-1.438 1.383l-1.66.333q-.11 0-.222.055h-.11q-.498 1.66-.609 2.324-.055.609-.055 2.712-.11 1.273.387 2.767l.166.664q.166.664.222 1.051 0 1.218-1.107 2.214z"/></g></svg>