<svg xmlns="http://www.w3.org/2000/svg" viewBox="0 0 856 557"><rect width="693.163" height="383.958" x="81.419" y="86.521" fill="#008033" ry="28.882"/><g fill="#fff" stroke-width="17.267" aria-label="UEFI"><path d="M286.316 267.676q-3.868 0-10.086-.414-10.916-3.454-15.614-9.672-6.08-6.632-8.843-19.206-.967-4.56-.552-14.094.552-9.672 1.52-13.817 0-.415 2.625-8.152 2.625-7.876 3.04-8.843.138-.553.276-2.35.276-1.796.553-3.316.276-1.658.829-2.21 1.243-1.52 3.316-2.626 2.21-1.105 4.007-.967 2.21.967 3.869 3.73 1.658 2.626 1.105 5.113-.276.83-1.796 4.422-1.382 3.454-2.487 6.356-1.106 2.763-2.073 5.941t-1.105 4.56q-.139 1.105-.968 6.77-.69 5.527-.829 7.738-.138 2.21.139 6.356.414 4.007 1.658 7.185 2.625 5.25 5.25 8.567 2.764 3.178 7.047 4.56 4.007 1.658 9.672 1.658 4.698 0 6.77-1.244 1.382-.553 3.593-1.382 2.35-.967 3.73-1.381 1.383-.553 2.902-1.52 1.658-1.106 2.764-2.35l2.487-2.486 2.625-2.626q.967-1.105 2.211-2.901 1.382-1.797 2.625-4.007 1.52-2.764 4.007-11.469t3.178-10.225q.277-1.105.415-6.632.276-5.527.69-7.047.277-2.763 0-5.25 0-.277-.966-2.487-.83-2.35-.83-2.764-1.381-3.454 3.455-7.047 4.56-.69 7.876 1.797 1.243 1.381 2.487 4.283 1.381 2.902 1.105 4.283-.138 2.073.276 5.804t.415 6.908-.967 5.527q0 6.08-2.902 16.028-2.763 9.949-6.08 15.2-1.243 1.934-2.348 3.454-1.106 1.52-2.764 3.178-1.52 1.658-2.21 2.349-.553.69-2.902 2.901-2.211 2.073-2.902 2.625-6.08 7.047-22.522 10.363-1.658.83-6.77.83M367.562 268.505q-2.487-.69-4.698-2.901-.829.829-2.763 1.796-3.73.691-6.08-2.487-1.243-1.934-1.796-6.08l1.105-12.435 1.244-9.396q.138-1.244.69-7.461.553-6.218 1.382-9.258v-13.126q-.552-.553-1.658-2.902-.967-2.487-.967-3.178-.69-4.56 0-9.672.415-.967 1.52-1.658 1.244-.691 3.178-1.106 1.934-.552 2.21-.69 5.113 1.105 7.048.829 2.901 0 6.08-.691 3.315-.691 5.112-1.244 1.934-.69 6.08-2.072 4.144-1.52 5.526-2.073 1.796-.414 5.803-1.382 4.146-1.105 6.91-1.52 2.9-.552 6.493-.552 1.52-.138 6.356.69l4.974.968 1.382.967q1.382 1.105 2.073 1.796.69.553 1.52 1.658.967.968 1.105 1.797v8.704q-.553 1.106-2.625 1.659-1.935.552-3.455.138-.552-.277-3.04-2.902-2.348-2.625-4.006-2.349-15.476-.69-25.286 2.625-1.52.691-6.218 2.35-4.698 1.52-7.738 3.04-3.04 1.38-5.25 3.315l-.967.83q-1.106 14.37 0 16.718 3.178-.967 8.843-.967h6.08q2.348-.553 8.842-2.487 6.633-2.073 11.33-3.178 4.837-1.105 8.706-1.244h4.421q3.04-.138 4.974-.138 2.073-.138 4.56.138 2.625.277 4.422.83 6.217 4.145 5.25 7.46.553 3.179-3.592 4.699-.83.414-3.593-.553-2.763-1.105-3.316-1.105-8.567-1.106-16.719.552t-19.206 5.527q-2.625.83-8.429 3.316-5.665 2.488-7.323 3.731-1.243.276-3.869-.276-2.487-.691-3.04-.691-1.934.69-1.934 14.094 5.527-.277 9.949-.415 4.56-.276 6.632-.276h3.73q1.52-.139 1.935-.139t.69-.138q3.179-.69 11.331-1.105 8.152-.553 8.843-.553 10.916-.552 22.66 1.658 1.935.691 2.902 2.487 1.106 1.658.553 3.731-1.106 1.52-2.625 2.625-5.804.139-15.752 1.244-9.81 1.105-13.956 1.382-.967.138-5.25.829-4.145.69-7.876 1.381-3.73.691-5.25 1.244-1.244.138-4.008 1.105-2.625.968-3.454.691zM459.31 269.058q-3.732-2.625-4.422-4.421-.277-.691-.277-1.52-.829-1.935-.829-3.593v-62.04l-4.421-6.08q-.691-5.94 6.08-9.118 6.079-2.211 17.547-4.56t16.581-3.869q7.738-3.178 19.206-4.283.415.138 2.487 0 2.073-.277 5.113-.553t5.112-.276q3.316 0 4.836.829 3.178 0 5.941 3.04t1.935 6.355q.553 1.658-.415 3.317-.967 1.52-2.763 2.21-1.658.415-3.316-.829l-1.52-1.105q-.83-.691-1.658-.83-18.654-1.934-47.255 7.877-.968.552-3.87 1.658-2.763.967-3.04.967-1.243.415-2.624 1.796l-1.797 1.796v8.705q0 10.64.968 15.752 1.243 0 2.21.138l6.909.553q.967.138 2.21.138 4.56-.414 12.16-2.487T502.834 216q9.534-1.106 11.053-1.106 3.455 0 6.218.968 2.487 1.381 2.764 3.73t-1.797 4.145q-2.072 1.106-8.843 2.211-6.632.967-7.737 1.244-4.146 1.52-13.541 3.869-9.258 2.349-11.883 3.178-.415 0-3.178 1.243-2.625 1.106-2.902 1.382h-.967l-4.283-.83-.83.83q-.967 13.126.83 19.206v.967q.276 8.29-3.455 10.225-1.52 1.243-4.974 1.796M546.772 270.302q-4.974 1.105-8.29-5.113l1.382-6.908 14.37-3.593q3.04-.69 3.454-2.625 1.52-3.454 2.764-16.305t1.934-15.89q2.21-15.751 1.52-23.627-2.073-.829-4.007-.829-1.105 0-3.73.414-2.488.277-3.87.277-1.105.69-3.04.69-2.348 0-4.006-.69-2.902-1.935-3.455-7.047-.138-1.244 2.35-3.73 2.486-2.626 5.112-4.284 3.178-.276 6.494 1.934h10.5q2.488-.829 2.626-.967.277-.138 1.796-1.658 1.52-1.658 2.626-1.796 3.869-.276 5.25 1.796h6.08l3.04-.553q1.52-.414 1.796-.552t1.244-.138q.967-.139 1.658 0 .69 0 2.763.138h3.316q2.902 1.381 4.974 4.698 2.073 3.178 1.244 5.803-1.934.829-3.593 1.382-1.52.552-2.901.967l-2.073.69q-.829.139-1.934.277h-4.974q-3.593 0-6.356.415-.415 0-.691.138l-2.902.552q-.276.139-.69.139-.139 0-.553.414-.277.276-.277.415-1.243 4.836-3.592 21.14-2.211 16.305-3.316 20.864-.139 1.244-.553 4.698l-.415 4.974q0 1.52.139 4.422 0 .276.829.967.967.553 1.796.69 15.06-1.933 19.759-1.657.138 0 1.934.276 1.796.138 2.625.415.968.138 2.35.552t2.072 1.244q.829.69.967 1.796.415 1.244-.276 3.178-.553 1.796-1.52 2.073-4.145 1.52-20.035 4.421-.691 0-1.244.139l-4.56.552q-.552.138-1.243.138-4.698.83-7.876 3.455h-4.283l-3.593-.968q-2.349.139-5.941.83-3.455.829-4.975.967"/></g><g fill="#fff" stroke-width="6.916" aria-label="x86_64"><path d="M329.037 394.318q-.609.11-1.77-.775-1.44-2.38-1.052-3.929v-.221q.387-.554 2.435-2.103.498-.166 3.43-1.937.388-.388 2.214-1.937 1.882-1.605 2.435-2.767-.332-.554-.774-1.052-.443-.498-1.107-1.106-.609-.61-.94-.997-2.602-2.711-3.155-3.818v-2.49q.11-.388 1.439-1.716.332-.387.774-.387.222 0 .443.055t.498.166.387.166l1.384 1.384q.609.664 2.269 2.988 1.716 2.324 2.988 3.32.277.056.443.056l.609-.056q.443-.276 2.711-2.103 2.325-1.881 3.432-2.435.276-.22.996-.83.72-.608.996-.774.277-.222.94-.61.665-.387 1.163-.553t1.328-.332q.83-.166 1.826-.221.11-.11.277 0 .166.055.221.11.11 0 .222.167.166.166.221.276.055.056.166.277.11.166.11.221v.72q.056.498-.055.83-.055.277-.332.553-1.494 1.218-2.767 1.605-5.091 3.431-8.688 7.305-.11.332 0 .72l4.04 3.154q.11.11 1.439.664.166.055.774.166.664.055 1.052.222.387.11.609.332.885 1.494.719 2.213 0 1.439-1.77 1.992-.72-.055-1.33 0-.608.056-1.327 0-.664-.11-1.218-.387-1.383-.885-3.874-2.712-2.49-1.881-3.32-2.49-.11-.055-.387-.055h-.388q-.996.387-1.826.996-.775.609-1.937 1.826-1.107 1.162-1.383 1.384-.332.332-1.716 1.881-1.383 1.605-2.158 2.27-1.052.885-1.716.774M375.69 392.27q-1.606 0-2.768-.276-2.933-.166-4.482-2.49-1.55-2.38-1.44-5.369.056-1.937 1.938-5.202t2.158-4.15q-.332-.332-1.66-1.218-1.273-.94-1.329-.996-3.929-1.107-8.08-6.253-.608-1.162-.387-2.823.277-1.66 1.495-2.324 6.142-3.984 9.186-5.147l1.162-.387q.996-.332 1.218-.387.276-.056 1.162-.332.94-.332 1.273-.388t1.162-.277q.83-.22 1.273-.276t1.162-.166q.775-.11 1.273-.11.553 0 1.217.054.664 0 1.273.111 1.55 0 2.822 1.107 1.329 1.107 1.218 2.712v.166q.443-.277 1.051-.554 1.052.332 1.771 2.103.775 1.716.72 3.819.221.83-.61 2.103-.83 1.217-1.88 1.604-4.981 2.657-7.693 6.365l-.055.166q.221.608 1.715 1.715 2.767 1.218 4.593 3.597t1.827 5.147q-.111 1.328-.941 2.6-.83 1.218-1.66 1.938-.775.72-2.159 1.77-3.652 2.048-7.526 2.048m-.554-5.368q4.095.443 6.585-2.213.11-.166.332-.388.222-.276.332-.442.166-.166.277-.332.166-.222.221-.333.056-.166 0-.276-.055-.443-.387-.941-.277-.498-.609-.775-.276-.332-.83-.775-.553-.498-.72-.664-.331-.166-1.217-.83-.83-.664-1.439-.996-.608-.332-1.106-.277l-.72.056q-3.154 2.545-2.988 6.807-.222 1.051.442 1.715.665.664 1.827.664m-8.855-22.357q0 .221.277.664.277.387.664.83.443.443.553.664 1.052.83 3.598 2.158t3.375 1.882h.388l6.253-5.147q.388-.276 1.771-1.439 1.384-1.217 2.158-1.55-.72-1.161-.608-2.157-.554.166-1.163 0-.055 0-.885-.332-.83-.388-.94-.388-.388-.387-1.108-.387-5.7-.443-9.906 1.826-.166.11-.83.443-.608.332-.885.498-.277.11-.775.443-.498.332-.775.608-.276.222-.608.609t-.554.775M410.388 392.104q-3.708-.11-7.416-1.992-3.653-1.937-5.423-5.036-1.771-2.214-2.38-6.032-.553-3.819.11-6.364 1.605-4.538 4.151-8.08 2.546-3.597 6.42-7.083 1.106-.997 3.929-2.933 2.877-1.937 4.095-3.21.498-.11 2.103-.775 1.605-.664 2.712-.553 2.822-.443 4.814 1.106.277.554.332.886.056.332-.055.885-.055.554-.055 1.052-.941.332-2.601.72-1.605.331-2.823.774-1.162.443-2.158 1.328-5.645 2.767-10.68 8.8-3.598 4.814-4.815 9.462 1.77-2.047 2.988-2.988 1.273-.94 3.265-1.882 1.826-.664 3.819-.664 3.597 0 8.19 1.993 1.328 1.162 2.324 2.435.996 1.217 1.827 2.988.885 1.716.83 3.431t-.83 3.763q-2.325 3.93-5.645 6.032-3.265 2.048-7.028 1.937m.94-4.87q.056 0 .886-.221.83-.277 1.107-.387.276-.166 1.051-.498.775-.333 1.162-.72.443-.387.996-.94.609-.61.996-1.384.443-.775.775-1.771.166-1.439-.055-2.49t-.609-1.66q-.332-.61-1.107-1.052-.774-.498-1.272-.664t-1.495-.388q-.996-.22-1.328-.332-1.55-.276-3.542.056t-3.21 1.328q-.22.221-1.05.83-.83.553-1.329 1.051-.443.443-.996 1.44-.498.995-.609 2.268.055.056 1.273 1.716 1.217 1.605 1.383 1.66 1.605 2.158 6.973 2.158M430.863 396.864q-.664 0-1.328-.72t-.664-1.66q0-1.273.72-1.992l1.992-1.993h.055l.222-.055q.276 0 1.328.388h2.435q1.715.055 2.545 0 .83-.056 2.601-.167 1.771-.11 2.933-.166 2.546-.166 6.143-.553 3.597-.443 7.637-.775.277 0 1.273-.332 1.051-.332 1.439-.664h1.66q.609.222.664.388l1.992 1.328q.111.055.332.664v.664q-.276.885-1.438 3.265-.997 1.826-3.266 1.826-.608 0-1.66-1.051-1.051-1.052-1.328-1.052h-3.32q-.111 0-.996.166-.886.166-.997.166h-4.04q-.774.056-3.707.222-2.933.221-4.261.332t-3.487.498-3.763.885q-.277 0-.83.166-.498.222-.886.222M482.883 392.104q-3.707-.11-7.415-1.992-3.653-1.937-5.424-5.036-1.77-2.214-2.38-6.032-.553-3.819.111-6.364 1.605-4.538 4.151-8.08 2.546-3.597 6.42-7.083 1.106-.997 3.929-2.933 2.877-1.937 4.095-3.21.498-.11 2.103-.775 1.605-.664 2.711-.553 2.823-.443 4.815 1.106.277.554.332.886t-.055.885q-.055.554-.055 1.052-.941.332-2.601.72-1.605.331-2.823.774-1.162.443-2.158 1.328-5.645 2.767-10.68 8.8-3.598 4.814-4.815 9.462 1.77-2.047 2.988-2.988 1.273-.94 3.265-1.882 1.826-.664 3.819-.664 3.597 0 8.19 1.993 1.328 1.162 2.324 2.435.996 1.217 1.826 2.988.886 1.716.83 3.431-.055 1.716-.83 3.763-2.324 3.93-5.644 6.032-3.265 2.048-7.029 1.937m.941-4.87q.056 0 .886-.221.83-.277 1.106-.387.277-.166 1.052-.498.775-.333 1.162-.72.443-.387.996-.94.609-.61.996-1.384.443-.775.775-1.771.166-1.439-.055-2.49-.222-1.052-.609-1.66-.332-.61-1.107-1.052-.775-.498-1.273-.664t-1.494-.388q-.996-.22-1.328-.332-1.55-.276-3.542.056t-3.21 1.328q-.22.221-1.05.83-.831.553-1.33 1.051-.442.443-.995 1.44-.498.995-.609 2.268.055.056 1.273 1.716 1.217 1.605 1.383 1.66 1.605 2.158 6.973 2.158M522.784 392.88q-1.107.165-1.882-.278l-.221-.221-.886-.885q-.83-1.052-.719-3.266v-3.099q0-.608.387-3.984l.222-1.771-.609-.332h-8.854q-4.428-1.162-6.033-2.822-.442-.332-.719-.775-.277-.498-.443-.775-.166-.332-.221-1.051-.055-.775-.055-.941v-1.107q.055-.94.055-.996.498-1.882 1.992-4.649 1.55-2.822 2.767-4.427l7.582-9.352q1.383-1.605 3.984-1.44 1.605.997 1.107 2.602-2.822 3.597-5.257 6.917-3.542 4.261-4.76 5.922-.055.332-.664 1.328-1.826 3.542-.885 4.261.332.332 1.882 1.273l.387.221q.553.056.775.166t.166.222v.11h.165q.056-.055.222-.055h.332q2.601 0 6.143-.443.221 0 .885-.11.664-.111.941-.111l.609-.11q.443-.222.609-.665 1.826-5.313 2.213-9.74.11-1.051 1.052-1.881.94-.886 1.992-.72 1.217-.221 2.048.886.83 1.051.719 2.269.221.498-.443 1.77-.166.277-.276.554-1.273 2.933-1.384 4.372-.277 1.439-.83 2.767 1.494 1.77 2.103 3.984 0 .886-.72 2.214-.719 1.328-1.438 1.383l-1.66.333q-.111 0-.222.055h-.11q-.499 1.66-.61 2.324-.055.609-.055 2.712-.11 1.273.388 2.767l.166.664q.166.664.221 1.051 0 1.218-1.107 2.214z"/></g></svg>